<?xml version="1.0" standalone="no"?>
<!DOCTYPE svg PUBLIC "-//W3C//DTD SVG 1.1//EN" "http://www.w3.org/Graphics/SVG/1.1/DTD/svg11.dtd" >
<svg>
<metadata>
Created by FontForge 20090622 at Fri Sep 11 20:20:24 2020
 By deploy user
Round -a-
</metadata>
<defs>
<font id="Greenwich-Regular" horiz-adv-x="606" >
  <font-face 
    font-family="Greenwich"
    font-weight="400"
    font-stretch="normal"
    units-per-em="1000"
    panose-1="0 0 0 0 0 0 0 0 0 0"
    ascent="850"
    descent="-150"
    x-height="480"
    cap-height="700"
    bbox="-91 -223 1219 955"
    underline-thickness="50"
    underline-position="-225"
    unicode-range="U+000D-U+FB04"
  />
<missing-glyph horiz-adv-x="364" 
d="M33 0v666h265v-666h-265zM66 33h199v600h-199v-600z" />
    <glyph glyph-name="f_f" unicode="ff" horiz-adv-x="755" 
d="M491 402h-88v78h88v95q0 70 42 112.5t112 42.5q48 0 84 -22v-73q-23 17 -60 17q-40 0 -64 -25.5t-24 -67.5v-79h148v-78h-148v-402h-90v402zM114 402h-88v78h88v95q0 70 42 112.5t111 42.5q47 0 85 -22v-73q-23 17 -61 17q-40 0 -64 -25.5t-24 -67.5v-79h149v-78h-149
v-402h-89v402z" />
    <glyph glyph-name="fi" unicode="fi" horiz-adv-x="625" 
d="M203 480h149v-78h-149v-402h-89v402h-88v78h88v95q0 70 42 112.5t111 42.5q47 0 85 -22v-73q-23 17 -61 17q-40 0 -64 -25.5t-24 -67.5v-79zM456 480h90v-480h-90v480zM501 587q-26 0 -42.5 16t-16.5 42t16.5 42.5t42.5 16.5t42 -16.5t16 -42.5q0 -25 -16.5 -41.5
t-41.5 -16.5z" />
    <glyph glyph-name="fl" unicode="fl" horiz-adv-x="655" 
d="M26 402v78h88v95q0 70 42 112.5t111 42.5q47 0 85 -22v-73q-23 17 -61 17q-40 0 -64 -25.5t-24 -67.5v-79h149v-78h-149v-402h-89v402h-88zM456 720h90v-595q0 -29 20.5 -46t57.5 -17v-59q-20 -9 -48 -9q-52 0 -86 33t-34 84v609z" />
    <glyph glyph-name="f_f_i" unicode="ffi" horiz-adv-x="1002" 
d="M581 480h148v-78h-148v-402h-90v402h-88v78h88v95q0 70 42 112.5t112 42.5q48 0 84 -22v-73q-23 17 -60 17q-40 0 -64 -25.5t-24 -67.5v-79zM26 402v78h88v95q0 70 42 112.5t111 42.5q47 0 85 -22v-73q-23 17 -61 17q-40 0 -64 -25.5t-24 -67.5v-79h149v-78h-149v-402
h-89v402h-88zM834 480h89v-480h-89v480zM819 645q0 26 16.5 42.5t42.5 16.5t42.5 -16.5t16.5 -42.5t-16.5 -42t-42.5 -16t-42.5 16t-16.5 42z" />
    <glyph glyph-name="f_f_l" unicode="ffl" horiz-adv-x="1032" 
d="M403 402v78h88v95q0 70 42 112.5t112 42.5q48 0 84 -22v-73q-23 17 -60 17q-40 0 -64 -25.5t-24 -67.5v-79h148v-78h-148v-402h-90v402h-88zM26 402v78h88v95q0 70 42 112.5t111 42.5q47 0 85 -22v-73q-23 17 -61 17q-40 0 -64 -25.5t-24 -67.5v-79h149v-78h-149v-402
h-89v402h-88zM834 720h89v-595q0 -29 21 -46t57 -17v-59q-19 -9 -48 -9q-52 0 -85.5 33t-33.5 84v609z" />
    <glyph glyph-name=".notdef" horiz-adv-x="364" 
d="M33 0v666h265v-666h-265zM66 33h199v600h-199v-600z" />
    <glyph glyph-name="uni0000" horiz-adv-x="0" 
 />
    <glyph glyph-name="uni0000" horiz-adv-x="0" 
 />
    <glyph glyph-name="uni000D" unicode="&#xd;" horiz-adv-x="250" 
 />
    <glyph glyph-name="space" unicode=" " horiz-adv-x="261" 
 />
    <glyph glyph-name="exclam" unicode="!" horiz-adv-x="252" 
d="M79 700h94l-9 -481h-75zM126 -10q-26 0 -42.5 16.5t-16.5 42.5t16.5 42t42.5 16t42.5 -16t16.5 -42t-16.5 -42.5t-42.5 -16.5z" />
    <glyph glyph-name="quotedbl" unicode="&#x22;" horiz-adv-x="411" 
d="M243 700h92l-17 -228h-59zM76 700h92l-16 -228h-59z" />
    <glyph glyph-name="numbersign" unicode="#" horiz-adv-x="658" 
d="M22 181l8 58h115l32 222h-116l9 58h115l25 181h71l-25 -181h194l25 181h70l-25 -181h116l-8 -58h-116l-32 -222h116l-8 -58h-116l-25 -181h-70l25 181h-194l-25 -181h-71l25 181h-115zM216 239h194l32 222h-194z" />
    <glyph glyph-name="dollar" unicode="$" horiz-adv-x="650" 
d="M62 522q0 85 59.5 133.5t170.5 53.5v91h59v-91q121 -7 196 -72v-84q-75 70 -218 70q-83 0 -129.5 -26t-46.5 -72q0 -43 44.5 -72t138.5 -49q134 -26 197 -78.5t63 -137.5q0 -88 -63.5 -138t-181.5 -57v-93h-59v92q-144 6 -229 73v84q85 -70 241 -70q94 0 148 28.5
t54 79.5q0 45 -45 74.5t-142 49.5q-134 28 -195.5 78.5t-61.5 132.5z" />
    <glyph glyph-name="percent" unicode="%" horiz-adv-x="849" 
d="M649 -10q-68 0 -111.5 54t-43.5 139t43.5 138.5t111.5 53.5t111.5 -53.5t43.5 -138.5t-43.5 -139t-111.5 -54zM200 325q-68 0 -111 53.5t-43 138.5t43 139t111 54q69 0 112 -54t43 -139t-43 -138.5t-112 -53.5zM144 0l489 700h71l-489 -700h-71zM109 517
q0 -58 25.5 -94.5t65.5 -36.5q41 0 66.5 36.5t25.5 94.5q0 59 -25.5 95.5t-66.5 36.5q-40 0 -65.5 -36.5t-25.5 -95.5zM558 183q0 -59 25.5 -95.5t65.5 -36.5t65.5 36.5t25.5 95.5q0 58 -25.5 94.5t-65.5 36.5t-65.5 -36.5t-25.5 -94.5z" />
    <glyph glyph-name="ampersand" unicode="&#x26;" horiz-adv-x="739" 
d="M459 130l-198 183q-22 22 -36 49q-37 -11 -59 -45.5t-22 -81.5q0 -72 49 -117t124 -45q83 0 142 57zM201 442q-2 20 -2 32q0 103 65.5 167t169.5 64q78 0 137 -39v-85q-47 44 -118 44q-72 0 -117.5 -44t-45.5 -114q0 -68 41 -106l177 -164q42 81 42 192h92
q0 -148 -66 -255l145 -134h-121l-77 71q-84 -81 -208 -81q-115 0 -189 68t-74 176q0 78 40.5 134t108.5 74z" />
    <glyph glyph-name="quotesingle" unicode="'" horiz-adv-x="244" 
d="M93 472l-17 228h92l-16 -228h-59z" />
    <glyph glyph-name="parenleft" unicode="(" horiz-adv-x="301" 
d="M56 300q0 144 36.5 260.5t101.5 189.5h87q-67 -60 -105 -178t-38 -272t38 -271.5t104 -178.5h-87q-65 73 -101 189.5t-36 260.5z" />
    <glyph glyph-name="parenright" unicode=")" horiz-adv-x="301" 
d="M20 750h87q65 -73 101.5 -189.5t36.5 -260.5q0 -145 -36 -261t-101 -189h-87q67 61 104.5 178.5t37.5 271.5q0 155 -38 272.5t-105 177.5z" />
    <glyph glyph-name="asterisk" unicode="*" horiz-adv-x="480" 
d="M51 538l20 64l147 -60l-11 158h66l-10 -158l146 60l20 -64l-153 -37l102 -121l-55 -39l-83 133l-83 -134l-54 40l101 121z" />
    <glyph glyph-name="plus" unicode="+" horiz-adv-x="620" 
d="M90 379h191v191h58v-191h191v-58h-191v-191h-58v191h-191v58z" />
    <glyph glyph-name="comma" unicode="," horiz-adv-x="206" 
d="M82 -135h-58q54 58 54 112q0 21 -15.5 40.5t-15.5 38.5q0 22 14 36t38 14q30 0 46 -24t16 -62q0 -93 -79 -155z" />
    <glyph glyph-name="hyphen" unicode="-" horiz-adv-x="386" 
d="M61 246v78h265v-78h-265z" />
    <glyph glyph-name="period" unicode="." horiz-adv-x="206" 
d="M44 49q0 26 16.5 42t42.5 16t42.5 -16t16.5 -42t-16.5 -42.5t-42.5 -16.5t-42.5 16.5t-16.5 42.5z" />
    <glyph glyph-name="slash" unicode="/" horiz-adv-x="476" 
d="M53 -165l-53 24l423 906l53 -24z" />
    <glyph glyph-name="zero" unicode="0" horiz-adv-x="680" 
d="M340 710q124 0 201.5 -100.5t77.5 -259.5t-77.5 -259.5t-201.5 -100.5t-201.5 100.5t-77.5 259.5t77.5 259.5t201.5 100.5zM153 350q0 -123 52 -200t135 -77t135 77t52 200t-52 200t-135 77t-135 -77t-52 -200z" />
    <glyph glyph-name="one" unicode="1" horiz-adv-x="419" 
d="M216 592l-151 -67v90l192 85h49v-700h-90v592z" />
    <glyph glyph-name="two" unicode="2" horiz-adv-x="599" 
d="M536 0h-481v44l267 279q102 107 102 190q0 52 -42.5 83t-112.5 31q-131 0 -202 -94v94q85 83 218 83q104 0 167.5 -49.5t63.5 -130.5q0 -58 -34.5 -126.5t-97.5 -134.5l-186 -191h338v-78z" />
    <glyph glyph-name="three" unicode="3" horiz-adv-x="614" 
d="M287 -10q-135 0 -221 80v97q71 -94 209 -94q80 0 130.5 35t50.5 95q0 51 -35 84t-89 33h-90v75h77q50 0 82 31.5t32 79.5q0 57 -43.5 89t-116.5 32q-131 0 -202 -94v97q86 80 214 80q110 0 175 -52t65 -143q0 -103 -77 -154q47 -23 73.5 -66.5t26.5 -100.5
q0 -95 -71.5 -149.5t-189.5 -54.5z" />
    <glyph glyph-name="four" unicode="4" horiz-adv-x="648" 
d="M36 136v43l413 521h73v-491h88v-73h-88v-136h-90v136h-396zM159 209h273v345z" />
    <glyph glyph-name="five" unicode="5" horiz-adv-x="611" 
d="M280 -10q-132 0 -219 76v96q72 -89 209 -89q83 0 134.5 40.5t51.5 110.5q0 65 -57.5 103t-154.5 38q-90 0 -149 -29l27 364h361v-78h-286l-15 -188q39 9 91 9q126 0 200.5 -60.5t74.5 -161.5q0 -107 -73 -169t-195 -62z" />
    <glyph glyph-name="six" unicode="6" horiz-adv-x="640" 
d="M369 710q88 0 155 -39v-84q-55 43 -139 43q-105 0 -167 -73t-67 -200q55 87 183 87q109 0 177.5 -63.5t68.5 -164.5t-67 -163.5t-174 -62.5q-129 0 -203.5 93.5t-74.5 255.5q0 170 83 270.5t225 100.5zM156 266q13 -92 60.5 -142.5t120.5 -50.5q67 0 109 40t42 104
q0 68 -47.5 110t-122.5 42q-117 0 -162 -103z" />
    <glyph glyph-name="seven" unicode="7" horiz-adv-x="590" 
d="M40 700h510v-44l-310 -656h-94l294 622h-400v78z" />
    <glyph glyph-name="eight" unicode="8" horiz-adv-x="610" 
d="M180 375q-97 49 -97 153q0 81 62 131.5t160 50.5t160 -50.5t62 -131.5q0 -104 -97 -153q60 -25 93.5 -72.5t33.5 -108.5q0 -90 -70.5 -147t-181.5 -57t-181.5 57.5t-70.5 146.5q0 61 34 108.5t93 72.5zM143 203q0 -58 45 -94t117 -36t117.5 36t45.5 94t-45.5 94.5
t-117.5 36.5t-117 -36.5t-45 -94.5zM305 411q58 0 95 30.5t37 78.5q0 47 -37 77t-95 30t-95 -30t-37 -77q0 -48 37 -78.5t95 -30.5z" />
    <glyph glyph-name="nine" unicode="9" horiz-adv-x="640" 
d="M304 710q130 0 203 -91t73 -252q0 -175 -86.5 -276t-235.5 -101q-94 0 -164 39v84q61 -43 147 -43q112 0 176.5 72t70.5 201q-55 -84 -182 -84q-109 0 -177 63t-68 164q0 100 67 162t176 62zM153 485q0 -67 47 -109t122 -42q116 0 163 102q-13 92 -60 142t-121 50
q-67 0 -109 -39.5t-42 -103.5z" />
    <glyph glyph-name="colon" unicode=":" horiz-adv-x="206" 
d="M44 49q0 26 16.5 42t42.5 16t42.5 -16t16.5 -42t-16.5 -42.5t-42.5 -16.5t-42.5 16.5t-16.5 42.5zM44 431q0 26 16.5 42.5t42.5 16.5t42.5 -16.5t16.5 -42.5t-16.5 -42t-42.5 -16t-42.5 16t-16.5 42z" />
    <glyph glyph-name="semicolon" unicode=";" horiz-adv-x="206" 
d="M82 -135h-58q54 58 54 112q0 21 -15.5 40.5t-15.5 38.5q0 22 14 36t38 14q30 0 46 -24t16 -62q0 -93 -79 -155zM44 431q0 26 16.5 42.5t42.5 16.5t42.5 -16.5t16.5 -42.5t-16.5 -42t-42.5 -16t-42.5 16t-16.5 42z" />
    <glyph glyph-name="less" unicode="&#x3c;" horiz-adv-x="620" 
d="M70 372l460 192v-63l-360 -151l360 -151v-63l-460 192v44z" />
    <glyph glyph-name="equal" unicode="=" horiz-adv-x="620" 
d="M90 441v58h440v-58h-440zM530 201h-440v58h440v-58z" />
    <glyph glyph-name="greater" unicode="&#x3e;" horiz-adv-x="620" 
d="M90 199l360 151l-360 151v63l460 -192v-44l-460 -192v63z" />
    <glyph glyph-name="question" unicode="?" horiz-adv-x="525" 
d="M238 627q-128 0 -198 -94v94q83 83 214 83q103 0 164.5 -48t61.5 -128q0 -70 -50.5 -133t-135.5 -97l-2 -85h-75l-3 130q79 28 126.5 73.5t47.5 94.5q0 51 -41 80.5t-109 29.5zM255 -10q-26 0 -42.5 16.5t-16.5 42.5t16.5 42t42.5 16t42 -16t16 -42t-16 -42.5t-42 -16.5z
" />
    <glyph glyph-name="at" unicode="@" horiz-adv-x="835" 
d="M395 -10q-172 0 -265.5 101t-70.5 262q22 157 136.5 257t272.5 100q157 0 244 -97t67 -242q-13 -90 -61 -145.5t-113 -55.5q-43 0 -68.5 24.5t-27.5 65.5q-30 -42 -71.5 -67t-85.5 -25q-62 0 -95 48.5t-22 123.5q13 87 71.5 140.5t138.5 53.5q62 0 99 -34l9 26h56
l-33 -236q-4 -26 8 -42.5t34 -16.5q34 0 60 37t35 97q17 120 -54 198.5t-199 78.5q-130 0 -222.5 -80.5t-110.5 -208.5q-18 -132 58.5 -213.5t221.5 -81.5t250 74l-12 -75q-109 -67 -250 -67zM305 343q-8 -52 12.5 -85.5t59.5 -33.5t78 37t65 99l11 82q-28 37 -82 37
q-56 0 -96 -37t-48 -99z" />
    <glyph glyph-name="A" unicode="A" horiz-adv-x="799" 
d="M23 0l354 700h44l355 -700h-106l-76 155h-390l-76 -155h-105zM399 553l-155 -316h310z" />
    <glyph glyph-name="B" unicode="B" horiz-adv-x="711" 
d="M89 0v700h326q92 0 149.5 -51t57.5 -133q0 -103 -88 -153q54 -23 85 -67.5t31 -103.5q0 -85 -61 -138.5t-158 -53.5h-342zM418 318h-235v-236h235q59 0 97 33t38 85t-38 85t-97 33zM400 618h-217v-221h217q55 0 90 31t35 80q0 48 -35 79t-90 31z" />
    <glyph glyph-name="C" unicode="C" horiz-adv-x="720" 
d="M415 -10q-163 0 -266 100.5t-103 259.5t103 259.5t266 100.5q141 0 239 -79v-100q-86 92 -227 92q-126 0 -205 -76t-79 -197t79 -197t205 -76q141 0 227 92v-100q-98 -79 -239 -79z" />
    <glyph glyph-name="D" unicode="D" horiz-adv-x="796" 
d="M89 700h289q159 0 259.5 -97.5t100.5 -252.5t-100.5 -252.5t-259.5 -97.5h-289v700zM378 618h-195v-536h195q116 0 189.5 75t73.5 193t-73.5 193t-189.5 75z" />
    <glyph glyph-name="E" unicode="E" horiz-adv-x="659" 
d="M89 0v700h522v-82h-428v-223h353v-82h-353v-231h433v-82h-527z" />
    <glyph glyph-name="F" unicode="F" horiz-adv-x="649" 
d="M183 0h-94v700h522v-82h-428v-223h353v-82h-353v-313z" />
    <glyph glyph-name="G" unicode="G" horiz-adv-x="769" 
d="M46 351q0 158 104 258.5t269 100.5q142 0 241 -77v-98q-85 88 -227 88q-129 0 -209.5 -76t-80.5 -198q0 -121 78.5 -196.5t204.5 -75.5q87 0 156 37v165h-151v78h241v-294h-1q-104 -73 -244 -73q-169 0 -275 100.5t-106 260.5z" />
    <glyph glyph-name="H" unicode="H" horiz-adv-x="849" 
d="M183 0h-94v700h94v-305h482v305h95v-700h-95v313h-482v-313z" />
    <glyph glyph-name="I" unicode="I" horiz-adv-x="272" 
d="M89 700h94v-700h-94v700z" />
    <glyph glyph-name="J" unicode="J" horiz-adv-x="307" 
d="M62 -207q-52 0 -87 23v79q25 -20 63 -20q39 0 62.5 23.5t23.5 63.5v738h94v-752q0 -71 -42.5 -113t-113.5 -42z" />
    <glyph glyph-name="K" unicode="K" horiz-adv-x="720" 
d="M89 0v700h94v-299h133l232 299h117l-270 -341l294 -359h-119l-254 318h-133v-318h-94z" />
    <glyph glyph-name="L" unicode="L" horiz-adv-x="639" 
d="M89 0v700h94v-618h426v-82h-520z" />
    <glyph glyph-name="M" unicode="M" horiz-adv-x="967" 
d="M183 0h-94v700h54l341 -524l341 526h53v-702h-94v485l-278 -435h-44l-279 435v-485z" />
    <glyph glyph-name="N" unicode="N" horiz-adv-x="859" 
d="M89 696h53l533 -530v534h92v-700h-53l-533 529v-529h-92v696z" />
    <glyph glyph-name="O" unicode="O" horiz-adv-x="846" 
d="M423 710q161 0 263 -100.5t102 -259.5t-102 -259.5t-263 -100.5t-263 100.5t-102 259.5t102 259.5t263 100.5zM155 350q0 -121 74.5 -197t193.5 -76t193.5 76t74.5 197t-74.5 197t-193.5 76t-193.5 -76t-74.5 -197z" />
    <glyph glyph-name="P" unicode="P" horiz-adv-x="673" 
d="M183 0h-94v700h305q101 0 164.5 -57.5t63.5 -149.5t-63.5 -149.5t-164.5 -57.5h-211v-286zM183 369h203q61 0 100 34.5t39 89.5t-39 90t-100 35h-203v-249z" />
    <glyph glyph-name="Q" unicode="Q" horiz-adv-x="846" 
d="M423 710q161 0 263 -100.5t102 -259.5q0 -109 -49.5 -192.5t-137.5 -127.5l118 -180h-112l-84 151q-50 -11 -100 -11q-161 0 -263 100.5t-102 259.5t102 259.5t263 100.5zM423 77q119 0 193.5 76t74.5 197t-74.5 197t-193.5 76t-193.5 -76t-74.5 -197t74.5 -197
t193.5 -76z" />
    <glyph glyph-name="R" unicode="R" horiz-adv-x="713" 
d="M183 0h-94v700h320q101 0 164.5 -57.5t63.5 -149.5q0 -75 -44 -129t-118 -71l192 -293h-112l-174 286h-198v-286zM401 618h-218v-249h218q61 0 100 34.5t39 89.5t-39 90t-100 35z" />
    <glyph glyph-name="S" unicode="S" horiz-adv-x="650" 
d="M62 522q0 90 66.5 139t189.5 49q144 0 229 -73v-84q-75 70 -218 70q-83 0 -129.5 -26t-46.5 -72q0 -43 44.5 -72t138.5 -49q134 -26 197 -78.5t63 -137.5q0 -94 -73 -145t-208 -51q-160 0 -252 73v84q85 -70 241 -70q94 0 148 28.5t54 79.5q0 45 -45 74.5t-142 49.5
q-134 28 -195.5 78.5t-61.5 132.5z" />
    <glyph glyph-name="T" unicode="T" horiz-adv-x="703" 
d="M304 618h-274v82h643v-82h-274v-618h-95v618z" />
    <glyph glyph-name="U" unicode="U" horiz-adv-x="816" 
d="M81 306v394h95v-390q0 -103 65 -168t169 -65q103 0 167 64.5t64 168.5v390h94v-394q0 -140 -90.5 -228t-234.5 -88q-145 0 -237 88t-92 228z" />
    <glyph glyph-name="V" unicode="V" horiz-adv-x="799" 
d="M23 700h105l271 -553l271 553h106l-355 -700h-44z" />
    <glyph glyph-name="W" unicode="W" horiz-adv-x="1146" 
d="M310 0l-287 700h103l208 -533l217 533h44l217 -533l209 533h102l-286 -700h-45l-219 536l-219 -536h-44z" />
    <glyph glyph-name="X" unicode="X" horiz-adv-x="762" 
d="M148 0h-117l289 361l-270 339h117l214 -276l214 276h117l-270 -339l290 -361h-118l-233 297z" />
    <glyph glyph-name="Y" unicode="Y" horiz-adv-x="719" 
d="M312 297l-291 403h115l223 -317l224 317h115l-292 -403v-297h-94v297z" />
    <glyph glyph-name="Z" unicode="Z" horiz-adv-x="748" 
d="M685 0h-622v44l475 574h-470v82h612v-44l-475 -574h480v-82z" />
    <glyph glyph-name="bracketleft" unicode="[" horiz-adv-x="308" 
d="M81 -150v900h201v-59h-121v-782h121v-59h-201z" />
    <glyph glyph-name="backslash" unicode="\" horiz-adv-x="476" 
d="M423 -165l-423 906l53 24l423 -906z" />
    <glyph glyph-name="bracketright" unicode="]" horiz-adv-x="308" 
d="M226 -150h-200v59h120v782h-120v59h200v-900z" />
    <glyph glyph-name="asciicircum" unicode="^" horiz-adv-x="620" 
d="M96 496l214 214l214 -214l-42 -41l-172 172l-172 -172z" />
    <glyph glyph-name="underscore" unicode="_" horiz-adv-x="500" 
d="M0 -158v58h500v-58h-500z" />
    <glyph glyph-name="grave" unicode="`" horiz-adv-x="332" 
d="M265 562l-198 80v86l198 -106v-60z" />
    <glyph glyph-name="a" unicode="a" horiz-adv-x="556" 
d="M241 -7q-89 0 -140 38.5t-51 104.5q0 70 57 110t158 40q46 0 114 -10v25q0 106 -143 106q-95 0 -149 -43v81q65 42 165 42q105 0 161 -45.5t56 -130.5v-205q0 -44 60 -44v-59q-18 -9 -46 -9q-61 0 -90 43q-62 -44 -152 -44zM283 213q-67 0 -105 -20.5t-38 -55.5
q0 -32 30.5 -50.5t84.5 -18.5q76 0 124 44v92q-65 9 -96 9z" />
    <glyph glyph-name="b" unicode="b" horiz-adv-x="591" 
d="M79 0v720h89v-268q55 35 130 35q109 0 176.5 -68.5t67.5 -177.5q0 -110 -68 -179t-176 -69q-80 0 -135 38l-4 -31h-80zM168 112q44 -41 114 -41q75 0 121.5 47t46.5 122t-46.5 122t-121.5 47q-70 0 -114 -41v-256z" />
    <glyph glyph-name="c" unicode="c" horiz-adv-x="514" 
d="M308 -10q-115 0 -187.5 70t-72.5 180t72.5 180t187.5 70q86 0 151 -43v-85q-54 48 -134 48q-82 0 -133.5 -47.5t-51.5 -122.5t51.5 -122.5t133.5 -47.5q80 0 134 48v-85q-65 -43 -151 -43z" />
    <glyph glyph-name="d" unicode="d" horiz-adv-x="591" 
d="M48 241q0 109 68 177.5t177 68.5q76 0 129 -34v267h90v-720h-80l-4 31q-56 -38 -135 -38q-109 0 -177 69t-68 179zM308 409q-74 0 -121 -47t-47 -122t47 -122t121 -47q69 0 114 40v258q-45 40 -114 40z" />
    <glyph glyph-name="e" unicode="e" horiz-adv-x="579" 
d="M291 490q112 0 177 -77.5t57 -201.5h-386q13 -65 67.5 -102.5t138.5 -37.5q97 0 157 51v-84q-72 -48 -171 -48q-128 0 -205.5 69.5t-77.5 184.5q0 108 67.5 177t175.5 69zM138 284h299q-5 58 -45 93t-101 35q-60 0 -101 -35t-52 -93z" />
    <glyph glyph-name="f" unicode="f" horiz-adv-x="377" 
d="M203 480h149v-78h-149v-402h-89v402h-88v78h88v95q0 70 42 112.5t111 42.5q47 0 85 -22v-73q-23 17 -61 17q-40 0 -64 -25.5t-24 -67.5v-79z" />
    <glyph glyph-name="g" unicode="g" horiz-adv-x="591" 
d="M293 -7q-109 0 -177 69t-68 179t68 178.5t177 68.5q75 0 134 -38l5 30h80v-498q0 -92 -64.5 -142t-182.5 -50q-102 0 -174 40v78q58 -39 160 -39q82 0 126.5 29.5t44.5 84.5v45q-55 -35 -129 -35zM140 241q0 -75 47 -122.5t121 -47.5q68 0 114 41v257q-46 41 -114 41
q-74 0 -121 -47.5t-47 -121.5z" />
    <glyph glyph-name="h" unicode="h" horiz-adv-x="611" 
d="M79 720h89v-281q58 50 145 50q103 0 163.5 -58.5t60.5 -159.5v-271h-89v271q0 65 -40.5 102.5t-109.5 37.5q-78 0 -130 -57v-354h-89v720z" />
    <glyph glyph-name="i" unicode="i" horiz-adv-x="247" 
d="M79 0v480h89v-480h-89zM64 645q0 26 16.5 42.5t42.5 16.5t42.5 -16.5t16.5 -42.5t-16.5 -42t-42.5 -16t-42.5 16t-16.5 42z" />
    <glyph glyph-name="j" unicode="j" horiz-adv-x="247" 
d="M1 -197v59q36 0 57 17t21 46v555h89v-569q0 -51 -33.5 -84t-85.5 -33q-29 0 -48 9zM64 645q0 26 16.5 42.5t42.5 16.5t42.5 -16.5t16.5 -42.5t-16.5 -42t-42.5 -16t-42.5 16t-16.5 42z" />
    <glyph glyph-name="k" unicode="k" horiz-adv-x="538" 
d="M79 0v720h89v-437h64l160 197h107l-196 -236l209 -244h-109l-171 206h-64v-206h-89z" />
    <glyph glyph-name="l" unicode="l" horiz-adv-x="277" 
d="M199 -6q-53 0 -86.5 33t-33.5 84v609h89v-595q0 -29 21 -46t57 -17v-59q-20 -9 -47 -9z" />
    <glyph glyph-name="m" unicode="m" horiz-adv-x="935" 
d="M168 0h-89v480h80l6 -44q55 53 141 53q111 0 167 -73q61 73 173 73q98 0 156.5 -57t58.5 -154v-278h-89v279q0 61 -37.5 96.5t-101.5 35.5q-80 0 -127 -62q9 -33 9 -71v-278h-90v279q0 61 -37 96.5t-100 35.5q-73 0 -120 -57v-354z" />
    <glyph glyph-name="n" unicode="n" horiz-adv-x="611" 
d="M79 480h80l6 -44q58 53 148 53q103 0 163.5 -58.5t60.5 -159.5v-271h-89v271q0 65 -40.5 102.5t-109.5 37.5q-78 0 -130 -57v-354h-89v480z" />
    <glyph glyph-name="o" unicode="o" 
d="M303 490q112 0 183.5 -70t71.5 -180t-71.5 -180t-183.5 -70t-183.5 70t-71.5 180t71.5 180t183.5 70zM140 240q0 -74 45.5 -120.5t117.5 -46.5t117.5 46.5t45.5 120.5t-45.5 120.5t-117.5 46.5t-117.5 -46.5t-45.5 -120.5z" />
    <glyph glyph-name="p" unicode="p" horiz-adv-x="591" 
d="M79 -200v680h80l4 -31q56 39 135 39q108 0 176 -69t68 -178q0 -110 -67.5 -179t-176.5 -69q-75 0 -130 35v-228h-89zM282 410q-69 0 -114 -42v-255q45 -42 114 -42q75 0 121.5 47.5t46.5 122.5t-46.5 122t-121.5 47z" />
    <glyph glyph-name="q" unicode="q" horiz-adv-x="591" 
d="M48 241q0 110 68 178.5t177 68.5q76 0 135 -38l4 30h80v-680h-90v228q-55 -35 -129 -35q-109 0 -177 69t-68 179zM308 410q-74 0 -121 -47.5t-47 -121.5q0 -75 47 -122.5t121 -47.5q68 0 114 41v257q-46 41 -114 41z" />
    <glyph glyph-name="r" unicode="r" horiz-adv-x="414" 
d="M79 0v480h80l4 -58q58 67 153 67q34 0 67 -10v-87q-33 19 -81 19q-82 0 -134 -70v-341h-89z" />
    <glyph glyph-name="s" unicode="s" horiz-adv-x="508" 
d="M56 353q0 66 49.5 101.5t143.5 35.5q111 0 169 -50v-80q-50 48 -159 48q-118 0 -118 -54q0 -24 28.5 -40t90.5 -27q101 -18 148.5 -55t47.5 -99q0 -69 -55 -106t-160 -37q-116 0 -182 50v80q59 -48 175 -48q63 0 99.5 16t36.5 44q0 24 -28.5 40.5t-94.5 28.5
q-99 18 -145 54.5t-46 97.5z" />
    <glyph glyph-name="t" unicode="t" horiz-adv-x="398" 
d="M203 480h149v-78h-149v-245q0 -40 23.5 -63.5t62.5 -23.5q38 0 63 20v-74q-37 -23 -86 -23q-68 0 -110 40t-42 105v264h-88v78h88v78l89 44v-122z" />
    <glyph glyph-name="u" unicode="u" 
d="M74 200v280h89v-280q0 -62 37.5 -96t105.5 -34q81 0 132 56v354h89v-480h-80l-6 44q-55 -52 -150 -52q-102 0 -159.5 55t-57.5 153z" />
    <glyph glyph-name="v" unicode="v" horiz-adv-x="567" 
d="M18 480h95l170 -343l170 343h95l-243 -480h-44z" />
    <glyph glyph-name="w" unicode="w" horiz-adv-x="814" 
d="M18 480h93l137 -334l137 334h44l138 -334l136 334h93l-207 -480h-45l-137 335l-137 -335h-45z" />
    <glyph glyph-name="x" unicode="x" horiz-adv-x="568" 
d="M136 0h-108l200 244l-194 236h108l142 -178l142 178h107l-193 -236l199 -244h-107l-148 185z" />
    <glyph glyph-name="y" unicode="y" horiz-adv-x="567" 
d="M239 45l-221 435h95l171 -341l169 341h95l-344 -680h-97z" />
    <glyph glyph-name="z" unicode="z" horiz-adv-x="533" 
d="M490 0h-442v44l300 358h-295v78h432v-44l-300 -358h305v-78z" />
    <glyph glyph-name="braceleft" unicode="{" horiz-adv-x="342" 
d="M26 329q50 0 82 32.5t28 83.5l-11 126q-7 81 49 133.5t142 52.5v-58q-50 0 -82.5 -33t-28.5 -83l11 -121q4 -53 -20 -95.5t-70 -66.5q45 -23 69.5 -65.5t20.5 -96.5l-11 -121q-4 -50 28.5 -83t82.5 -33v-58q-86 0 -142 52.5t-49 133.5l11 126q4 51 -28 83.5t-82 32.5v58z
" />
    <glyph glyph-name="bar" unicode="|" horiz-adv-x="281" 
d="M170 -100h-59v900h59v-900z" />
    <glyph glyph-name="braceright" unicode="}" horiz-adv-x="342" 
d="M216 29q7 -81 -48.5 -133.5t-141.5 -52.5v58q50 0 82 33t28 83l-10 121q-5 54 19.5 96.5t70.5 65.5q-46 24 -70.5 66.5t-19.5 95.5l10 121q4 50 -28 83t-82 33v58q86 0 141.5 -52.5t48.5 -133.5l-11 -126q-4 -51 28.5 -83.5t82.5 -32.5v-58q-50 0 -82.5 -32.5
t-28.5 -83.5z" />
    <glyph glyph-name="asciitilde" unicode="~" horiz-adv-x="620" 
d="M204 426q40 0 78.5 -23t72 -46t61.5 -23q32 0 53.5 23.5t21.5 58.5h59q0 -61 -38 -100.5t-95 -39.5q-40 0 -78.5 23t-72.5 45.5t-62 22.5q-32 0 -53.5 -23t-21.5 -59h-59q0 62 38 101.5t96 39.5z" />
    <glyph glyph-name="exclamdown" unicode="&#xa1;" horiz-adv-x="252" 
d="M173 -200h-94l10 461h75zM126 373q-26 0 -42.5 16t-16.5 42t16.5 42.5t42.5 16.5t42.5 -16.5t16.5 -42.5t-16.5 -42t-42.5 -16z" />
    <glyph glyph-name="cent" unicode="&#xa2;" horiz-adv-x="514" 
d="M48 240q0 100 61 168t160 80v92h58v-91q74 -4 132 -42v-85q-54 48 -134 48q-82 0 -133.5 -47.5t-51.5 -122.5t51.5 -122.5t133.5 -47.5q80 0 134 48v-85q-58 -38 -132 -42v-91h-58v92q-99 12 -160 80t-61 168z" />
    <glyph glyph-name="sterling" unicode="&#xa3;" horiz-adv-x="574" 
d="M46 294v58h88v108q0 110 68 180t177 70q81 0 142 -43v-85q-50 48 -125 48q-76 0 -124.5 -47.5t-48.5 -122.5v-108h199v-58h-199v-216h313v-78h-490v78h88v216h-88z" />
    <glyph glyph-name="currency" unicode="&#xa4;" horiz-adv-x="620" 
d="M66 552l42 42l78 -79q57 42 124 42t124 -42l78 79l42 -42l-79 -78q42 -57 42 -124q0 -68 -42 -123l79 -79l-42 -42l-79 79q-54 -41 -123 -41t-123 41l-79 -79l-42 42l79 79q-41 54 -41 123t41 124zM310 498q-62 0 -105 -43t-43 -105t43 -105t105 -43t105 43t43 105
q0 61 -43.5 104.5t-104.5 43.5z" />
    <glyph glyph-name="yen" unicode="&#xa5;" horiz-adv-x="719" 
d="M289 329l-268 371h115l223 -317l224 317h115l-269 -371h140v-59h-163v-102h163v-58h-163v-110h-94v110h-162v58h162v102h-162v59h139z" />
    <glyph glyph-name="brokenbar" unicode="&#xa6;" horiz-adv-x="281" 
d="M170 -100h-59v350h59v-350zM111 800h59v-350h-59v350z" />
    <glyph glyph-name="section" unicode="&#xa7;" horiz-adv-x="510" 
d="M133 466q-77 38 -77 109q0 65 51 100t146 35q111 0 170 -50v-80q-51 48 -161 48q-120 0 -120 -53q0 -46 118 -69q98 -19 144.5 -57.5t46.5 -100.5q0 -76 -75 -110q80 -39 80 -111q0 -67 -54.5 -102t-158.5 -35q-118 0 -184 50v80q59 -48 176 -48q62 0 98.5 15t36.5 42
q0 43 -116 64q-101 19 -147 56.5t-46 102.5q0 80 72 114zM146 362q0 -57 128 -81q91 9 91 62q0 51 -139 79q-37 -4 -58.5 -19.5t-21.5 -40.5z" />
    <glyph glyph-name="dieresis" unicode="&#xa8;" horiz-adv-x="451" 
d="M118 586q-23 0 -37.5 15t-14.5 38t14.5 37t37.5 14q22 0 36.5 -14t14.5 -37t-14.5 -38t-36.5 -15zM334 586q-23 0 -37.5 15t-14.5 38t14.5 37t37.5 14q22 0 36 -14t14 -37t-14 -38t-36 -15z" />
    <glyph glyph-name="copyright" unicode="&#xa9;" horiz-adv-x="826" 
d="M413 -10q-149 0 -254.5 105.5t-105.5 254.5t105.5 254.5t254.5 105.5t254.5 -105.5t105.5 -254.5t-105.5 -254.5t-254.5 -105.5zM413 651q-125 0 -213 -88t-88 -213t88 -213t213 -88t213.5 88t88.5 213t-88.5 213t-213.5 88zM427 170q-83 0 -135.5 50t-52.5 130
t52.5 130.5t135.5 50.5q66 0 115 -36v-61q-40 43 -108 43q-59 0 -96.5 -35.5t-37.5 -91.5t37.5 -91t96.5 -35q70 0 108 43v-62q-49 -35 -115 -35z" />
    <glyph glyph-name="ordfeminine" unicode="&#xaa;" horiz-adv-x="427" 
d="M186 335q-67 0 -105.5 29t-38.5 79q0 52 43 82t118 30q35 0 85 -8v19q0 78 -107 78q-69 0 -111 -31v61q50 32 124 32q79 0 121 -34.5t42 -98.5v-153q0 -33 45 -33v-45q-14 -6 -35 -6q-46 0 -68 32q-46 -33 -113 -33zM217 499q-50 0 -78 -14.5t-28 -41.5q0 -24 23 -37.5
t63 -13.5q60 0 91 33v67q-49 7 -71 7z" />
    <glyph glyph-name="guillemotleft" unicode="&#xab;" horiz-adv-x="410" 
d="M299 115l-97 170l97 170h58l-72 -170l72 -170h-58zM40 285l97 170h58l-72 -170l72 -170h-58z" />
    <glyph glyph-name="logicalnot" unicode="&#xac;" horiz-adv-x="620" 
d="M90 371v58h440v-196h-59v138h-381z" />
    <glyph glyph-name="uni00AD" unicode="&#xad;" horiz-adv-x="386" 
d="M61 246v78h265v-78h-265z" />
    <glyph glyph-name="registered" unicode="&#xae;" horiz-adv-x="826" 
d="M413 -10q-149 0 -254.5 105.5t-105.5 254.5t105.5 254.5t254.5 105.5t254.5 -105.5t105.5 -254.5t-105.5 -254.5t-254.5 -105.5zM413 651q-125 0 -213 -88t-88 -213t88 -213t213 -88t213.5 88t88.5 213t-88.5 213t-213.5 88zM340 175h-59v350h163q52 0 84.5 -29.5
t32.5 -76.5q0 -36 -20.5 -62.5t-55.5 -37.5l93 -144h-70l-82 138h-86v-138zM340 364h99q27 0 44.5 15.5t17.5 39.5t-17.5 39.5t-44.5 15.5h-99v-110z" />
    <glyph glyph-name="macron" unicode="&#xaf;" horiz-adv-x="402" 
d="M66 592v58h269v-58h-269z" />
    <glyph glyph-name="degree" unicode="&#xb0;" horiz-adv-x="390" 
d="M195 705q56 0 95 -39t39 -95t-39 -95t-95 -39t-95 39t-39 95t39 95t95 39zM119 571q0 -31 22.5 -53.5t53.5 -22.5t53.5 22.5t22.5 53.5t-22.5 53.5t-53.5 22.5t-53.5 -22.5t-22.5 -53.5z" />
    <glyph glyph-name="plusminus" unicode="&#xb1;" horiz-adv-x="620" 
d="M90 441h191v179h58v-179h191v-58h-191v-179h-58v179h-191v58zM530 80h-440v59h440v-59z" />
    <glyph glyph-name="twosuperior" unicode="&#xb2;" horiz-adv-x="342" 
d="M302 365h-265v26l143 153q56 58 56 102q0 27 -23 44t-60 17q-71 0 -110 -51v56q47 44 119 44q59 0 94 -27t35 -72q0 -69 -73 -145l-97 -101h181v-46z" />
    <glyph glyph-name="threesuperior" unicode="&#xb3;" horiz-adv-x="346" 
d="M161 359q-73 0 -121 43v57q40 -51 114 -51q43 0 70 18.5t27 50.5q0 27 -18.5 44.5t-47.5 17.5h-49v45h42q26 0 43.5 16.5t17.5 41.5q0 30 -24 47.5t-62 17.5q-72 0 -110 -51v57q46 43 117 43q61 0 97.5 -29t36.5 -79q0 -56 -41 -84q53 -27 53 -92q0 -53 -40 -83t-105 -30
z" />
    <glyph glyph-name="acute" unicode="&#xb4;" horiz-adv-x="335" 
d="M67 562v60l202 106v-85z" />
    <glyph glyph-name="mu" unicode="&#xb5;" 
d="M74 -150v630h89v-280q0 -62 37.5 -96t105.5 -34q81 0 132 56v354h89v-480h-80l-6 44q-55 -52 -150 -52q-75 0 -128 31v-173h-89z" />
    <glyph glyph-name="paragraph" unicode="&#xb6;" horiz-adv-x="600" 
d="M51 493q0 92 63.5 149.5t164.5 57.5h232v-752q0 -71 -38 -113t-102 -42q-46 0 -79 19v64q23 -20 63 -20q39 0 62.5 24t23.5 64v698h-91v-642h-71v286q-101 0 -164.5 57.5t-63.5 149.5z" />
    <glyph glyph-name="periodcentered" unicode="&#xb7;" horiz-adv-x="206" 
d="M44 350q0 26 16.5 42.5t42.5 16.5t42.5 -16.5t16.5 -42.5t-16.5 -42.5t-42.5 -16.5t-42.5 16.5t-16.5 42.5z" />
    <glyph glyph-name="cedilla" unicode="&#xb8;" horiz-adv-x="318" 
d="M67 -122q29 -23 70 -23q53 0 53 28q0 15 -19.5 26t-52.5 14l9 87h58l-6 -61q32 -5 52.5 -25t20.5 -48q0 -31 -27.5 -52t-71.5 -21q-50 0 -86 28v47z" />
    <glyph glyph-name="onesuperior" unicode="&#xb9;" horiz-adv-x="242" 
d="M123 686l-82 -37v54l106 47h29v-385h-53v321z" />
    <glyph glyph-name="ordmasculine" unicode="&#xba;" horiz-adv-x="464" 
d="M232 707q85 0 138 -52t53 -135t-53 -135t-138 -52q-84 0 -137.5 52.5t-53.5 134.5q0 83 53.5 135t137.5 52zM113 520q0 -54 33.5 -89t85.5 -35t86 35t34 89q0 55 -33.5 89.5t-86.5 34.5t-86 -34.5t-33 -89.5z" />
    <glyph glyph-name="guillemotright" unicode="&#xbb;" horiz-adv-x="410" 
d="M287 285l-72 170h59l96 -170l-96 -170h-59zM53 455h59l96 -170l-96 -170h-59l72 170z" />
    <glyph glyph-name="onequarter" unicode="&#xbc;" horiz-adv-x="715" 
d="M383 105l223 280h37v-268h50v-41h-50v-76h-54v76h-206v29zM136 0h-71l488 700h72zM41 599v54l106 47h29v-385h-53v321zM446 117h143v181z" />
    <glyph glyph-name="onehalf" unicode="&#xbd;" horiz-adv-x="752" 
d="M65 0l488 700h72l-489 -700h-71zM712 0h-265v26l144 153q55 58 55 102q0 27 -23 44t-60 17q-71 0 -110 -51v56q47 44 119 44q59 0 94 -27t35 -72q0 -69 -73 -145l-97 -101h181v-46zM41 599v54l106 47h29v-385h-53v321z" />
    <glyph glyph-name="threequarters" unicode="&#xbe;" horiz-adv-x="782" 
d="M450 105l223 280h37v-268h50v-41h-50v-76h-54v76h-206v29zM203 0h-71l489 700h71zM161 309q-73 0 -121 43v57q40 -51 114 -51q43 0 70 18.5t27 50.5q0 27 -18.5 44.5t-47.5 17.5h-49v45h42q26 0 43.5 16.5t17.5 41.5q0 30 -24 47.5t-62 17.5q-72 0 -110 -51v57
q46 43 117 43q61 0 97.5 -29t36.5 -79q0 -56 -41 -84q53 -27 53 -92q0 -53 -40 -83t-105 -30zM513 117h143v181z" />
    <glyph glyph-name="questiondown" unicode="&#xbf;" horiz-adv-x="525" 
d="M46 -40q0 70 50 130t136 91l1 80h75l4 -125q-79 -23 -126.5 -67t-47.5 -94q0 -47 40 -74.5t107 -27.5q131 0 200 94v-94q-83 -83 -216 -83q-102 0 -162.5 46t-60.5 124zM271 373q-26 0 -42.5 16t-16.5 42t16.5 42.5t42.5 16.5t42.5 -16.5t16.5 -42.5t-16.5 -42t-42.5 -16
z" />
    <glyph glyph-name="Agrave" unicode="&#xc0;" horiz-adv-x="799" 
d="M23 0l354 700h44l355 -700h-106l-76 155h-390l-76 -155h-105zM399 553l-155 -316h310zM278 923l198 -105v-61l-198 80v86z" />
    <glyph glyph-name="Aacute" unicode="&#xc1;" horiz-adv-x="799" 
d="M23 0l354 700h44l355 -700h-106l-76 155h-390l-76 -155h-105zM399 553l-155 -316h310zM526 839l-203 -82v61l203 106v-85z" />
    <glyph glyph-name="Acircumflex" unicode="&#xc2;" horiz-adv-x="799" 
d="M23 0l354 700h44l355 -700h-106l-76 155h-390l-76 -155h-105zM399 553l-155 -316h310zM400 821l-151 -59v58l151 83l150 -83v-58z" />
    <glyph glyph-name="Atilde" unicode="&#xc3;" horiz-adv-x="799" 
d="M23 0l354 700h44l355 -700h-106l-76 155h-390l-76 -155h-105zM399 553l-155 -316h310zM337 890q33 0 66.5 -26.5t50.5 -26.5q18 0 30 13.5t12 34.5h68q0 -50 -28.5 -82t-73.5 -32q-33 0 -66 26.5t-50 26.5q-19 0 -30.5 -13.5t-11.5 -34.5h-68q0 50 28.5 82t72.5 32z" />
    <glyph glyph-name="Adieresis" unicode="&#xc4;" horiz-adv-x="799" 
d="M128 0h-105l354 700h44l355 -700h-106l-76 155h-390zM399 553l-155 -316h310zM456 839q0 23 14.5 37t37.5 14q22 0 36.5 -14t14.5 -37t-14 -37.5t-37 -14.5t-37.5 14.5t-14.5 37.5zM292 890q22 0 36.5 -14t14.5 -37t-14 -37.5t-37 -14.5t-37 14.5t-14 37.5t14.5 37
t36.5 14z" />
    <glyph glyph-name="Aring" unicode="&#xc5;" horiz-adv-x="799" 
d="M23 0l354 700h44l355 -700h-106l-76 155h-390l-76 -155h-105zM399 553l-155 -316h310zM400 955q37 0 64 -27t27 -65t-27 -65t-64 -27q-38 0 -65 27t-27 65t27 65t65 27zM357 863q0 -17 12.5 -30t30.5 -13q17 0 30 13t13 30q0 18 -13 30.5t-30 12.5q-18 0 -30.5 -12.5
t-12.5 -30.5z" />
    <glyph glyph-name="AE" unicode="&#xc6;" horiz-adv-x="1001" 
d="M131 0h-108l404 700h526v-82h-398v-223h323v-82h-323v-231h403v-82h-497v157h-241zM461 585l-195 -345h195v345z" />
    <glyph glyph-name="Ccedilla" unicode="&#xc7;" horiz-adv-x="720" 
d="M373 -8q-147 14 -237 112t-90 246q0 159 103 259.5t266 100.5q141 0 239 -79v-100q-86 92 -227 92q-126 0 -205 -76t-79 -197t79 -197t205 -76q141 0 227 92v-100q-90 -73 -222 -79l-5 -41q32 -5 52.5 -25t20.5 -48q0 -31 -27.5 -52t-71.5 -21q-51 0 -86 27v48
q31 -23 70 -23q53 0 53 28q0 15 -19.5 26.5t-51.5 14.5z" />
    <glyph glyph-name="Egrave" unicode="&#xc8;" horiz-adv-x="659" 
d="M89 0v700h522v-82h-428v-223h353v-82h-353v-231h433v-82h-527zM430 757l-198 80v86l198 -105v-61z" />
    <glyph glyph-name="Eacute" unicode="&#xc9;" horiz-adv-x="659" 
d="M89 0v700h522v-82h-428v-223h353v-82h-353v-231h433v-82h-527zM479 839l-203 -82v61l203 106v-85z" />
    <glyph glyph-name="Ecircumflex" unicode="&#xca;" horiz-adv-x="659" 
d="M89 0v700h522v-82h-428v-223h353v-82h-353v-231h433v-82h-527zM353 821l-150 -59v58l150 83l150 -83v-58z" />
    <glyph glyph-name="Edieresis" unicode="&#xcb;" horiz-adv-x="659" 
d="M89 0v700h522v-82h-428v-223h353v-82h-353v-231h433v-82h-527zM461 787q-23 0 -37.5 14.5t-14.5 37.5t14.5 37t37.5 14t37 -14t14 -37t-14 -37.5t-37 -14.5zM246 787q-23 0 -37.5 14.5t-14.5 37.5t14.5 37t37.5 14q22 0 36.5 -14t14.5 -37t-14 -37.5t-37 -14.5z" />
    <glyph glyph-name="Igrave" unicode="&#xcc;" horiz-adv-x="272" 
d="M89 700h94v-700h-94v700zM213 757l-198 80v86l198 -105v-61z" />
    <glyph glyph-name="Iacute" unicode="&#xcd;" horiz-adv-x="272" 
d="M89 700h94v-700h-94v700zM59 757v61l203 106v-85z" />
    <glyph glyph-name="Icircumflex" unicode="&#xce;" horiz-adv-x="272" 
d="M89 700h94v-700h-94v700zM-14 820l150 83l150 -83v-58l-150 59l-150 -59v58z" />
    <glyph glyph-name="Idieresis" unicode="&#xcf;" horiz-adv-x="272" 
d="M183 0h-94v700h94v-700zM234 787q-23 0 -37.5 14.5t-14.5 37.5t14.5 37t37.5 14q22 0 36.5 -14t14.5 -37t-14 -37.5t-37 -14.5zM-12 839q0 23 14 37t37 14t37 -14t14 -37t-14 -37.5t-37 -14.5t-37 14.5t-14 37.5z" />
    <glyph glyph-name="Eth" unicode="&#xd0;" horiz-adv-x="796" 
d="M3 382h86v318h289q159 0 259.5 -97.5t100.5 -252.5t-100.5 -252.5t-259.5 -97.5h-289v323h-86v59zM183 382h183v-59h-183v-241h195q116 0 189.5 75t73.5 193t-73.5 193t-189.5 75h-195v-236z" />
    <glyph glyph-name="Ntilde" unicode="&#xd1;" horiz-adv-x="859" 
d="M89 696h53l533 -530v534h92v-700h-53l-533 529v-529h-92v696zM265 776q0 50 28.5 82t72.5 32q33 0 66.5 -26.5t50.5 -26.5q18 0 30 13.5t12 34.5h68q0 -50 -28.5 -82t-73.5 -32q-33 0 -66 26.5t-50 26.5q-19 0 -30.5 -13.5t-11.5 -34.5h-68z" />
    <glyph glyph-name="Ograve" unicode="&#xd2;" horiz-adv-x="846" 
d="M58 350q0 159 102 259.5t263 100.5t263 -100.5t102 -259.5t-102 -259.5t-263 -100.5t-263 100.5t-102 259.5zM423 77q119 0 193.5 76t74.5 197t-74.5 197t-193.5 76t-193.5 -76t-74.5 -197t74.5 -197t193.5 -76zM302 837v86l198 -105v-61z" />
    <glyph glyph-name="Oacute" unicode="&#xd3;" horiz-adv-x="846" 
d="M58 350q0 159 102 259.5t263 100.5t263 -100.5t102 -259.5t-102 -259.5t-263 -100.5t-263 100.5t-102 259.5zM423 77q119 0 193.5 76t74.5 197t-74.5 197t-193.5 76t-193.5 -76t-74.5 -197t74.5 -197t193.5 -76zM346 818l203 106v-85l-203 -82v61z" />
    <glyph glyph-name="Ocircumflex" unicode="&#xd4;" horiz-adv-x="846" 
d="M423 710q161 0 263 -100.5t102 -259.5t-102 -259.5t-263 -100.5t-263 100.5t-102 259.5t102 259.5t263 100.5zM423 77q119 0 193.5 76t74.5 197t-74.5 197t-193.5 76t-193.5 -76t-74.5 -197t74.5 -197t193.5 -76zM423 821l-150 -59v58l150 83l150 -83v-58z" />
    <glyph glyph-name="Otilde" unicode="&#xd5;" horiz-adv-x="846" 
d="M423 710q161 0 263 -100.5t102 -259.5t-102 -259.5t-263 -100.5t-263 100.5t-102 259.5t102 259.5t263 100.5zM155 350q0 -121 74.5 -197t193.5 -76t193.5 76t74.5 197t-74.5 197t-193.5 76t-193.5 -76t-74.5 -197zM327 776h-68q0 50 28.5 82t72.5 32q33 0 66.5 -26.5
t50.5 -26.5q18 0 30 13.5t12 34.5h68q0 -50 -28.5 -82t-72.5 -32q-33 0 -66.5 26.5t-50.5 26.5q-18 0 -30 -13.5t-12 -34.5z" />
    <glyph glyph-name="Odieresis" unicode="&#xd6;" horiz-adv-x="846" 
d="M423 710q161 0 263 -100.5t102 -259.5t-102 -259.5t-263 -100.5t-263 100.5t-102 259.5t102 259.5t263 100.5zM155 350q0 -121 74.5 -197t193.5 -76t193.5 76t74.5 197t-74.5 197t-193.5 76t-193.5 -76t-74.5 -197zM531 890q23 0 37 -14t14 -37t-14 -37.5t-37 -14.5
t-37.5 14.5t-14.5 37.5t14.5 37t37.5 14zM316 890q22 0 36.5 -14t14.5 -37t-14 -37.5t-37 -14.5t-37.5 14.5t-14.5 37.5t14.5 37t37.5 14z" />
    <glyph glyph-name="multiply" unicode="&#xd7;" horiz-adv-x="620" 
d="M111 507l42 42l157 -158l157 158l42 -42l-158 -157l158 -157l-42 -42l-157 158l-157 -158l-42 42l158 157z" />
    <glyph glyph-name="Oslash" unicode="&#xd8;" horiz-adv-x="846" 
d="M423 710q83 0 157 -30l28 49l51 -29l-27 -47q74 -47 115 -125.5t41 -177.5q0 -159 -102 -259.5t-263 -100.5q-83 0 -157 30l-28 -49l-51 29l27 47q-74 47 -115 125.5t-41 177.5q0 159 102 259.5t263 100.5zM423 77q119 0 193.5 76t74.5 197q0 145 -105 223l-275 -475
q51 -21 112 -21zM155 350q0 -145 105 -223l275 475q-51 21 -112 21q-119 0 -193.5 -76t-74.5 -197z" />
    <glyph glyph-name="Ugrave" unicode="&#xd9;" horiz-adv-x="816" 
d="M81 306v394h95v-390q0 -103 65 -168t169 -65q103 0 167 64.5t64 168.5v390h94v-394q0 -140 -90.5 -228t-234.5 -88q-145 0 -237 88t-92 228zM287 923l198 -105v-61l-198 80v86z" />
    <glyph glyph-name="Uacute" unicode="&#xda;" horiz-adv-x="816" 
d="M81 306v394h95v-390q0 -103 65 -168t169 -65q103 0 167 64.5t64 168.5v390h94v-394q0 -140 -90.5 -228t-234.5 -88q-145 0 -237 88t-92 228zM534 839l-203 -82v61l203 106v-85z" />
    <glyph glyph-name="Ucircumflex" unicode="&#xdb;" horiz-adv-x="816" 
d="M81 306v394h95v-390q0 -103 65 -168t169 -65q103 0 167 64.5t64 168.5v390h94v-394q0 -140 -90.5 -228t-234.5 -88q-145 0 -237 88t-92 228zM258 762v58l150 83l150 -83v-58l-150 59z" />
    <glyph glyph-name="Udieresis" unicode="&#xdc;" horiz-adv-x="816" 
d="M81 306v394h95v-390q0 -103 65 -168t169 -65q103 0 167 64.5t64 168.5v390h94v-394q0 -140 -90.5 -228t-234.5 -88q-145 0 -237 88t-92 228zM516 890q22 0 36.5 -14t14.5 -37t-14 -37.5t-37 -14.5t-37.5 14.5t-14.5 37.5t14.5 37t37.5 14zM301 890q23 0 37 -14t14 -37
t-14 -37.5t-37 -14.5t-37.5 14.5t-14.5 37.5t14.5 37t37.5 14z" />
    <glyph glyph-name="Yacute" unicode="&#xdd;" horiz-adv-x="719" 
d="M312 297l-291 403h115l223 -317l224 317h115l-292 -403v-297h-94v297zM283 818l203 106v-85l-203 -82v61z" />
    <glyph glyph-name="Thorn" unicode="&#xde;" horiz-adv-x="673" 
d="M183 0h-94v700h94v-138h211q101 0 164.5 -57.5t63.5 -149.5t-63.5 -149.5t-164.5 -57.5h-211v-148zM386 479h-203v-248h203q61 0 100 34.5t39 89.5t-39 89.5t-100 34.5z" />
    <glyph glyph-name="germandbls" unicode="&#xdf;" horiz-adv-x="590" 
d="M168 0h-89v546q0 82 58.5 133t150.5 51t150.5 -52t58.5 -135q0 -105 -86 -156q61 -25 96 -74t35 -114q0 -92 -69 -150.5t-178 -58.5v83q70 0 114 37.5t44 97.5t-44 98t-114 38v77q49 0 80.5 32t31.5 82t-33.5 81t-86.5 31q-52 0 -85.5 -30.5t-33.5 -78.5v-538z" />
    <glyph glyph-name="agrave" unicode="&#xe0;" horiz-adv-x="556" 
d="M50 136q0 70 57 110t158 40q46 0 114 -10v25q0 106 -143 106q-95 0 -149 -43v81q65 42 165 42q105 0 161 -45.5t56 -130.5v-205q0 -44 60 -44v-59q-18 -9 -46 -9q-61 0 -90 43q-62 -44 -152 -44q-89 0 -140 38.5t-51 104.5zM140 137q0 -32 30.5 -50.5t84.5 -18.5
q76 0 124 44v92q-65 9 -96 9q-67 0 -105 -20.5t-38 -55.5zM143 638v85l198 -105v-60z" />
    <glyph glyph-name="aacute" unicode="&#xe1;" horiz-adv-x="556" 
d="M50 136q0 70 57 110t158 40q46 0 114 -10v25q0 106 -143 106q-95 0 -149 -43v81q65 42 165 42q105 0 161 -45.5t56 -130.5v-205q0 -44 60 -44v-59q-18 -9 -46 -9q-61 0 -90 43q-62 -44 -152 -44q-89 0 -140 38.5t-51 104.5zM140 137q0 -32 30.5 -50.5t84.5 -18.5
q76 0 124 44v92q-65 9 -96 9q-67 0 -105 -20.5t-38 -55.5zM188 618l202 106v-85l-202 -81v60z" />
    <glyph glyph-name="acircumflex" unicode="&#xe2;" horiz-adv-x="556" 
d="M241 -7q-89 0 -140 38.5t-51 104.5q0 70 57 110t158 40q46 0 114 -10v25q0 106 -143 106q-95 0 -149 -43v81q65 42 165 42q105 0 161 -45.5t56 -130.5v-205q0 -44 60 -44v-59q-18 -9 -46 -9q-61 0 -90 43q-62 -44 -152 -44zM140 137q0 -32 30.5 -50.5t84.5 -18.5
q76 0 124 44v92q-65 9 -96 9q-67 0 -105 -20.5t-38 -55.5zM264 621l-150 -58v58l150 82l150 -82v-58z" />
    <glyph glyph-name="atilde" unicode="&#xe3;" horiz-adv-x="556" 
d="M241 -7q-89 0 -140 38.5t-51 104.5q0 70 57 110t158 40q46 0 114 -10v25q0 106 -143 106q-95 0 -149 -43v81q65 42 165 42q105 0 161 -45.5t56 -130.5v-205q0 -44 60 -44v-59q-18 -9 -46 -9q-61 0 -90 43q-62 -44 -152 -44zM140 137q0 -32 30.5 -50.5t84.5 -18.5
q76 0 124 44v92q-65 9 -96 9q-67 0 -105 -20.5t-38 -55.5zM168 576h-68q0 50 28.5 81.5t72.5 31.5q33 0 66.5 -26t50.5 -26q19 0 30.5 13.5t11.5 34.5h68q0 -50 -28.5 -82t-72.5 -32q-33 0 -66.5 26.5t-50.5 26.5q-18 0 -30 -13.5t-12 -34.5z" />
    <glyph glyph-name="adieresis" unicode="&#xe4;" horiz-adv-x="556" 
d="M241 -7q-89 0 -140 38.5t-51 104.5q0 70 57 110t158 40q46 0 114 -10v25q0 106 -143 106q-95 0 -149 -43v81q65 42 165 42q105 0 161 -45.5t56 -130.5v-205q0 -44 60 -44v-59q-18 -9 -46 -9q-61 0 -90 43q-62 -44 -152 -44zM140 137q0 -32 30.5 -50.5t84.5 -18.5
q76 0 124 44v92q-65 9 -96 9q-67 0 -105 -20.5t-38 -55.5zM105 639q0 22 14.5 36t37.5 14t37 -14t14 -36q0 -23 -14 -37.5t-37 -14.5t-37.5 14.5t-14.5 37.5zM321 639q0 22 14 36t37 14t37 -14t14 -36q0 -23 -14 -37.5t-37 -14.5t-37 14.5t-14 37.5z" />
    <glyph glyph-name="aring" unicode="&#xe5;" horiz-adv-x="556" 
d="M241 -7q-89 0 -140 38.5t-51 104.5q0 70 57 110t158 40q46 0 114 -10v25q0 106 -143 106q-95 0 -149 -43v81q65 42 165 42q105 0 161 -45.5t56 -130.5v-205q0 -44 60 -44v-59q-18 -9 -46 -9q-61 0 -90 43q-62 -44 -152 -44zM283 213q-67 0 -105 -20.5t-38 -55.5
q0 -32 30.5 -50.5t84.5 -18.5q76 0 124 44v92q-65 9 -96 9zM264 571q-38 0 -65 27t-27 65t27 65t65 27t65 -27t27 -65t-27 -65t-65 -27zM264 706q-17 0 -30 -13t-13 -30t13 -30t30 -13t30 13t13 30t-13 30t-30 13z" />
    <glyph glyph-name="ae" unicode="&#xe6;" horiz-adv-x="910" 
d="M50 137q0 70 57 109.5t157 39.5q47 0 115 -10v25q0 106 -144 106q-94 0 -148 -43v81q65 42 165 42q135 0 187 -74q69 77 182 77t178.5 -77.5t56.5 -201.5h-386q13 -65 68 -102.5t138 -37.5q97 0 157 51v-84q-72 -48 -173 -48q-150 0 -227 93q-66 -90 -195 -90
q-86 0 -137 39t-51 105zM469 284h299q-4 58 -44 93t-101 35t-102 -35t-52 -93zM281 213q-66 0 -103.5 -20.5t-37.5 -55.5q0 -32 30 -50.5t79 -18.5q99 0 150 72q-13 32 -17 64q-68 9 -101 9z" />
    <glyph glyph-name="ccedilla" unicode="&#xe7;" horiz-adv-x="514" 
d="M270 -8q-100 12 -161 79.5t-61 168.5q0 110 72.5 180t187.5 70q86 0 151 -43v-85q-54 48 -134 48q-82 0 -133.5 -47.5t-51.5 -122.5t51.5 -122.5t133.5 -47.5q80 0 134 48v-85q-56 -38 -131 -42l-4 -42q32 -5 52.5 -25t20.5 -48q0 -31 -27.5 -52t-71.5 -21q-53 0 -86 27
v48q29 -23 70 -23q53 0 53 28q0 15 -19.5 26.5t-52.5 14.5z" />
    <glyph glyph-name="egrave" unicode="&#xe8;" horiz-adv-x="579" 
d="M48 244q0 108 67.5 177t175.5 69q112 0 177 -77.5t57 -201.5h-386q13 -65 67.5 -102.5t138.5 -37.5q97 0 157 51v-84q-72 -48 -171 -48q-128 0 -205.5 69.5t-77.5 184.5zM138 284h299q-5 58 -45 93t-101 35q-60 0 -101 -35t-52 -93zM169 723l198 -105v-60l-198 80v85z
" />
    <glyph glyph-name="eacute" unicode="&#xe9;" horiz-adv-x="579" 
d="M48 244q0 108 67.5 177t175.5 69q112 0 177 -77.5t57 -201.5h-386q13 -65 67.5 -102.5t138.5 -37.5q97 0 157 51v-84q-72 -48 -171 -48q-128 0 -205.5 69.5t-77.5 184.5zM138 284h299q-5 58 -45 93t-101 35q-60 0 -101 -35t-52 -93zM416 639l-203 -81v60l203 106v-85z
" />
    <glyph glyph-name="ecircumflex" unicode="&#xea;" horiz-adv-x="579" 
d="M48 244q0 108 67.5 177t175.5 69q112 0 177 -77.5t57 -201.5h-386q13 -65 67.5 -102.5t138.5 -37.5q97 0 157 51v-84q-72 -48 -171 -48q-128 0 -205.5 69.5t-77.5 184.5zM138 284h299q-5 58 -45 93t-101 35q-60 0 -101 -35t-52 -93zM140 621l150 82l150 -82v-58l-150 58
l-150 -58v58z" />
    <glyph glyph-name="edieresis" unicode="&#xeb;" horiz-adv-x="579" 
d="M48 244q0 108 67.5 177t175.5 69q112 0 177 -77.5t57 -201.5h-386q13 -65 67.5 -102.5t138.5 -37.5q97 0 157 51v-84q-72 -48 -171 -48q-128 0 -205.5 69.5t-77.5 184.5zM138 284h299q-5 58 -45 93t-101 35q-60 0 -101 -35t-52 -93zM398 689q23 0 37 -14t14 -36
q0 -23 -14 -37.5t-37 -14.5t-37.5 14.5t-14.5 37.5q0 22 14.5 36t37.5 14zM131 639q0 22 14 36t37 14t37.5 -14t14.5 -36q0 -23 -14.5 -37.5t-37.5 -14.5t-37 14.5t-14 37.5z" />
    <glyph glyph-name="igrave" unicode="&#xec;" horiz-adv-x="247" 
d="M79 0v480h89v-480h-89zM201 562l-198 80v86l198 -105v-61z" />
    <glyph glyph-name="iacute" unicode="&#xed;" horiz-adv-x="247" 
d="M79 0v480h89v-480h-89zM47 562v61l203 106v-85z" />
    <glyph glyph-name="icircumflex" unicode="&#xee;" horiz-adv-x="247" 
d="M79 0v480h89v-480h-89zM-26 625l150 83l150 -83v-58l-150 59l-150 -59v58z" />
    <glyph glyph-name="idieresis" unicode="&#xef;" horiz-adv-x="247" 
d="M79 480h89v-480h-89v480zM219 592q-23 0 -37.5 14.5t-14.5 37.5t14.5 37t37.5 14t37 -14.5t14 -36.5q0 -23 -14 -37.5t-37 -14.5zM-22 644q0 22 14 36.5t37 14.5t37.5 -14t14.5 -37t-14.5 -37.5t-37.5 -14.5t-37 14.5t-14 37.5z" />
    <glyph glyph-name="eth" unicode="&#xf0;" horiz-adv-x="621" 
d="M298 487q105 0 165 -66q-24 113 -106 172l-51 -66l-45 32l48 62q-75 36 -182 36v72q135 0 231 -45l50 65l45 -32l-46 -60q156 -103 156 -330q0 -153 -70 -245t-193 -92q-109 0 -178 69.5t-69 179.5q0 109 69 178.5t176 69.5zM299 73q78 0 124.5 66.5t48.5 176.5
q-48 96 -157 96q-75 0 -122.5 -48t-47.5 -125q0 -73 43.5 -119.5t110.5 -46.5z" />
    <glyph glyph-name="ntilde" unicode="&#xf1;" horiz-adv-x="611" 
d="M79 480h80l6 -44q58 53 148 53q103 0 163.5 -58.5t60.5 -159.5v-271h-89v271q0 65 -40.5 102.5t-109.5 37.5q-78 0 -130 -57v-354h-89v480zM207 576h-68q0 50 28.5 82t72.5 32q33 0 66.5 -26.5t50.5 -26.5q18 0 30 13.5t12 34.5h68q0 -50 -28.5 -82t-72.5 -32
q-33 0 -66.5 26.5t-50.5 26.5q-18 0 -30 -13.5t-12 -34.5z" />
    <glyph glyph-name="ograve" unicode="&#xf2;" 
d="M48 240q0 110 71.5 180t183.5 70t183.5 -70t71.5 -180t-71.5 -180t-183.5 -70t-183.5 70t-71.5 180zM303 73q72 0 117.5 46.5t45.5 120.5t-45.5 120.5t-117.5 46.5t-117.5 -46.5t-45.5 -120.5t45.5 -120.5t117.5 -46.5zM182 637v86l198 -105v-61z" />
    <glyph glyph-name="oacute" unicode="&#xf3;" 
d="M48 240q0 110 71.5 180t183.5 70t183.5 -70t71.5 -180t-71.5 -180t-183.5 -70t-183.5 70t-71.5 180zM303 73q72 0 117.5 46.5t45.5 120.5t-45.5 120.5t-117.5 46.5t-117.5 -46.5t-45.5 -120.5t45.5 -120.5t117.5 -46.5zM226 618l203 106v-85l-203 -82v61z" />
    <glyph glyph-name="ocircumflex" unicode="&#xf4;" 
d="M303 490q112 0 183.5 -70t71.5 -180t-71.5 -180t-183.5 -70t-183.5 70t-71.5 180t71.5 180t183.5 70zM303 73q72 0 117.5 46.5t45.5 120.5t-45.5 120.5t-117.5 46.5t-117.5 -46.5t-45.5 -120.5t45.5 -120.5t117.5 -46.5zM303 621l-150 -59v58l150 83l150 -83v-58z" />
    <glyph glyph-name="otilde" unicode="&#xf5;" 
d="M303 490q112 0 183.5 -70t71.5 -180t-71.5 -180t-183.5 -70t-183.5 70t-71.5 180t71.5 180t183.5 70zM140 240q0 -74 45.5 -120.5t117.5 -46.5t117.5 46.5t45.5 120.5t-45.5 120.5t-117.5 46.5t-117.5 -46.5t-45.5 -120.5zM207 576h-68q0 50 28.5 82t72.5 32
q33 0 66.5 -26.5t50.5 -26.5q18 0 30 13.5t12 34.5h68q0 -50 -28.5 -82t-72.5 -32q-33 0 -66.5 26.5t-50.5 26.5q-18 0 -30 -13.5t-12 -34.5z" />
    <glyph glyph-name="odieresis" unicode="&#xf6;" 
d="M303 490q112 0 183.5 -70t71.5 -180t-71.5 -180t-183.5 -70t-183.5 70t-71.5 180t71.5 180t183.5 70zM140 240q0 -74 45.5 -120.5t117.5 -46.5t117.5 46.5t45.5 120.5t-45.5 120.5t-117.5 46.5t-117.5 -46.5t-45.5 -120.5zM411 690q23 0 37 -14t14 -37t-14 -37.5
t-37 -14.5t-37.5 14.5t-14.5 37.5t14.5 37t37.5 14zM196 690q22 0 36.5 -14t14.5 -37t-14 -37.5t-37 -14.5t-37.5 14.5t-14.5 37.5t14.5 37t37.5 14z" />
    <glyph glyph-name="divide" unicode="&#xf7;" horiz-adv-x="620" 
d="M90 379h440v-58h-440v58zM258 526q0 23 14.5 37.5t37.5 14.5t37.5 -14.5t14.5 -37.5t-14.5 -37.5t-37.5 -14.5t-37.5 14.5t-14.5 37.5zM310 122q-23 0 -37.5 14.5t-14.5 37.5t14.5 37.5t37.5 14.5t37.5 -14.5t14.5 -37.5q0 -22 -15 -37t-37 -15z" />
    <glyph glyph-name="oslash" unicode="&#xf8;" 
d="M303 490q79 0 141 -37l42 51l44 -37l-41 -49q69 -69 69 -178q0 -110 -71.5 -180t-183.5 -70q-81 0 -141 37l-43 -51l-44 38l41 49q-68 70 -68 177q0 110 71.5 180t183.5 70zM434 352l-219 -262q39 -22 88 -22q74 0 120.5 48t46.5 124q0 67 -36 112zM171 129l219 261
q-38 22 -87 22q-74 0 -120.5 -48t-46.5 -124q0 -65 35 -111z" />
    <glyph glyph-name="ugrave" unicode="&#xf9;" 
d="M74 480h89v-280q0 -62 37.5 -96t105.5 -34q81 0 132 56v354h89v-480h-80l-6 44q-55 -52 -150 -52q-102 0 -159.5 55t-57.5 153v280zM179 723l198 -105v-61l-198 80v86z" />
    <glyph glyph-name="uacute" unicode="&#xfa;" 
d="M74 480h89v-280q0 -62 37.5 -96t105.5 -34q81 0 132 56v354h89v-480h-80l-6 44q-55 -52 -150 -52q-102 0 -159.5 55t-57.5 153v280zM427 639l-203 -82v61l203 106v-85z" />
    <glyph glyph-name="ucircumflex" unicode="&#xfb;" 
d="M74 200v280h89v-280q0 -62 37.5 -96t105.5 -34q81 0 132 56v354h89v-480h-80l-6 44q-55 -52 -150 -52q-102 0 -159.5 55t-57.5 153zM150 562v58l151 83l150 -83v-58l-150 59z" />
    <glyph glyph-name="udieresis" unicode="&#xfc;" 
d="M74 200v280h89v-280q0 -62 37.5 -96t105.5 -34q81 0 132 56v354h89v-480h-80l-6 44q-55 -52 -150 -52q-102 0 -159.5 55t-57.5 153zM409 587q-23 0 -37.5 14.5t-14.5 37.5t14.5 37t37.5 14t37 -14t14 -37t-14 -37.5t-37 -14.5zM142 639q0 23 14 37t37 14t37 -14t14 -37
t-14 -37.5t-37 -14.5t-37 14.5t-14 37.5z" />
    <glyph glyph-name="yacute" unicode="&#xfd;" horiz-adv-x="567" 
d="M18 480h95l171 -341l169 341h95l-344 -680h-97l132 245zM410 639l-203 -82v61l203 106v-85z" />
    <glyph glyph-name="thorn" unicode="&#xfe;" horiz-adv-x="591" 
d="M79 720h89v-267q53 35 130 35q108 0 176 -69t68 -178q0 -110 -67.5 -179t-176.5 -69q-75 0 -130 35v-228h-89v920zM282 410q-69 0 -114 -42v-255q45 -42 114 -42q75 0 121.5 47.5t46.5 122.5t-46.5 122t-121.5 47z" />
    <glyph glyph-name="ydieresis" unicode="&#xff;" horiz-adv-x="567" 
d="M18 480h95l171 -341l169 341h95l-344 -680h-97l132 245zM391 690q23 0 37.5 -14t14.5 -37t-14.5 -37.5t-37.5 -14.5t-37 14.5t-14 37.5t14 37t37 14zM176 690q22 0 36.5 -14t14.5 -37t-14 -37.5t-37 -14.5t-37 14.5t-14 37.5t14 37t37 14z" />
    <glyph glyph-name="Amacron" unicode="&#x100;" horiz-adv-x="799" 
d="M23 0l354 700h44l355 -700h-106l-76 155h-390l-76 -155h-105zM399 553l-155 -316h310zM534 791h-269v59h269v-59z" />
    <glyph glyph-name="amacron" unicode="&#x101;" horiz-adv-x="556" 
d="M241 -7q-89 0 -140 38.5t-51 104.5q0 70 57 110t158 40q46 0 114 -10v25q0 106 -143 106q-95 0 -149 -43v81q65 42 165 42q105 0 161 -45.5t56 -130.5v-205q0 -44 60 -44v-59q-18 -9 -46 -9q-61 0 -90 43q-62 -44 -152 -44zM140 137q0 -32 30.5 -50.5t84.5 -18.5
q76 0 124 44v92q-65 9 -96 9q-67 0 -105 -20.5t-38 -55.5zM130 649h268v-58h-268v58z" />
    <glyph glyph-name="Abreve" unicode="&#x102;" horiz-adv-x="799" 
d="M23 0l354 700h44l355 -700h-106l-76 155h-390l-76 -155h-105zM399 553l-155 -316h310zM260 835v60q64 -56 140 -56q75 0 139 56v-60q-50 -64 -139 -64q-90 0 -140 64z" />
    <glyph glyph-name="abreve" unicode="&#x103;" horiz-adv-x="556" 
d="M241 -7q-89 0 -140 38.5t-51 104.5q0 70 57 110t158 40q46 0 114 -10v25q0 106 -143 106q-95 0 -149 -43v81q65 42 165 42q105 0 161 -45.5t56 -130.5v-205q0 -44 60 -44v-59q-18 -9 -46 -9q-61 0 -90 43q-62 -44 -152 -44zM140 137q0 -32 30.5 -50.5t84.5 -18.5
q76 0 124 44v92q-65 9 -96 9q-67 0 -105 -20.5t-38 -55.5zM265 571q-90 0 -141 64v60q64 -56 141 -56q74 0 139 56v-60q-50 -64 -139 -64z" />
    <glyph glyph-name="Aogonek" unicode="&#x104;" horiz-adv-x="799" 
d="M23 0l354 700h44l355 -700h-39q-32 -13 -50 -37t-18 -50q0 -28 18.5 -45.5t49.5 -17.5q54 0 87 46v-62q-39 -44 -103 -44q-52 0 -84.5 29.5t-32.5 75.5q0 34 18 62t51 43h-3l-76 155h-390l-76 -155h-105zM399 553l-155 -316h310z" />
    <glyph glyph-name="aogonek" unicode="&#x105;" horiz-adv-x="556" 
d="M241 -7q-89 0 -140 38.5t-51 104.5q0 70 57 110t158 40q46 0 114 -10v25q0 106 -143 106q-95 0 -149 -43v81q65 42 165 42q105 0 161 -45.5t56 -130.5v-205q0 -44 60 -44v-59q-18 -9 -48 -9q-47 -30 -47 -76q0 -28 19 -45.5t49 -17.5q55 0 88 45v-61q-39 -44 -103 -44
q-52 0 -84.5 29.5t-32.5 75.5q0 70 65 103q-26 10 -42 34q-62 -44 -152 -44zM283 213q-67 0 -105 -20.5t-38 -55.5q0 -32 30.5 -50.5t84.5 -18.5q76 0 124 44v92q-65 9 -96 9z" />
    <glyph glyph-name="Cacute" unicode="&#x106;" horiz-adv-x="720" 
d="M46 350q0 159 103 259.5t266 100.5q141 0 239 -79v-100q-86 92 -227 92q-126 0 -205 -76t-79 -197t79 -197t205 -76q141 0 227 92v-100q-98 -79 -239 -79q-163 0 -266 100.5t-103 259.5zM529 839l-203 -82v61l203 106v-85z" />
    <glyph glyph-name="cacute" unicode="&#x107;" horiz-adv-x="514" 
d="M48 240q0 110 72.5 180t187.5 70q86 0 151 -43v-85q-54 48 -134 48q-82 0 -133.5 -47.5t-51.5 -122.5t51.5 -122.5t133.5 -47.5q80 0 134 48v-85q-65 -43 -151 -43q-115 0 -187.5 70t-72.5 180zM416 639l-203 -82v61l203 106v-85z" />
    <glyph glyph-name="Ccircumflex" unicode="&#x108;" horiz-adv-x="720" 
d="M415 -10q-163 0 -266 100.5t-103 259.5t103 259.5t266 100.5q141 0 239 -79v-100q-86 92 -227 92q-126 0 -205 -76t-79 -197t79 -197t205 -76q141 0 227 92v-100q-98 -79 -239 -79zM403 821l-150 -59v58l150 83l150 -83v-58z" />
    <glyph glyph-name="ccircumflex" unicode="&#x109;" horiz-adv-x="514" 
d="M308 -10q-115 0 -187.5 70t-72.5 180t72.5 180t187.5 70q86 0 151 -43v-85q-54 48 -134 48q-82 0 -133.5 -47.5t-51.5 -122.5t51.5 -122.5t133.5 -47.5q80 0 134 48v-85q-65 -43 -151 -43zM290 621l-150 -59v58l150 83l150 -83v-58z" />
    <glyph glyph-name="Cdotaccent" unicode="&#x10a;" horiz-adv-x="720" 
d="M415 -10q-163 0 -266 100.5t-103 259.5t103 259.5t266 100.5q141 0 239 -79v-100q-86 92 -227 92q-126 0 -205 -76t-79 -197t79 -197t205 -76q141 0 227 92v-100q-98 -79 -239 -79zM403 787q-26 0 -42.5 16t-16.5 42t16.5 42.5t42.5 16.5t42 -16.5t16 -42.5t-16 -42
t-42 -16z" />
    <glyph glyph-name="cdotaccent" unicode="&#x10b;" horiz-adv-x="514" 
d="M308 -10q-115 0 -187.5 70t-72.5 180t72.5 180t187.5 70q86 0 151 -43v-85q-54 48 -134 48q-82 0 -133.5 -47.5t-51.5 -122.5t51.5 -122.5t133.5 -47.5q80 0 134 48v-85q-65 -43 -151 -43zM290 587q-26 0 -42.5 16t-16.5 42t16.5 42.5t42.5 16.5t42 -16.5t16 -42.5
q0 -25 -16 -41.5t-42 -16.5z" />
    <glyph glyph-name="Ccaron" unicode="&#x10c;" horiz-adv-x="720" 
d="M415 -10q-163 0 -266 100.5t-103 259.5t103 259.5t266 100.5q141 0 239 -79v-100q-86 92 -227 92q-126 0 -205 -76t-79 -197t79 -197t205 -76q141 0 227 92v-100q-98 -79 -239 -79zM403 762l-150 83v58l150 -58l150 58v-58z" />
    <glyph glyph-name="ccaron" unicode="&#x10d;" horiz-adv-x="514" 
d="M308 -10q-115 0 -187.5 70t-72.5 180t72.5 180t187.5 70q86 0 151 -43v-85q-54 48 -134 48q-82 0 -133.5 -47.5t-51.5 -122.5t51.5 -122.5t133.5 -47.5q80 0 134 48v-85q-65 -43 -151 -43zM290 562l-150 83v58l150 -58l150 58v-58z" />
    <glyph glyph-name="Dcaron" unicode="&#x10e;" horiz-adv-x="796" 
d="M89 700h289q159 0 259.5 -97.5t100.5 -252.5t-100.5 -252.5t-259.5 -97.5h-289v700zM378 618h-195v-536h195q116 0 189.5 75t73.5 193t-73.5 193t-189.5 75zM232 903l150 -58l151 58v-58l-151 -83l-150 83v58z" />
    <glyph glyph-name="dcaron" unicode="&#x10f;" horiz-adv-x="727" 
d="M48 241q0 109 68 177.5t177 68.5q76 0 129 -34v267h90v-720h-80l-4 31q-56 -38 -135 -38q-109 0 -177 69t-68 179zM308 409q-74 0 -121 -47t-47 -122t47 -122t121 -47q69 0 114 40v258q-45 40 -114 40zM639 512h-52q49 53 49 102q0 18 -14 36t-14 34q0 20 12.5 33
t33.5 13q27 0 41.5 -21.5t14.5 -56.5q0 -84 -71 -140z" />
    <glyph glyph-name="Dcroat" unicode="&#x110;" horiz-adv-x="796" 
d="M3 382h86v318h289q159 0 259.5 -97.5t100.5 -252.5t-100.5 -252.5t-259.5 -97.5h-289v323h-86v59zM183 382h183v-59h-183v-241h195q116 0 189.5 75t73.5 193t-73.5 193t-189.5 75h-195v-236z" />
    <glyph glyph-name="dcroat" unicode="&#x111;" horiz-adv-x="591" 
d="M48 241q0 109 68 177.5t177 68.5q76 0 129 -34v118h-140v58h140v91h90v-91h76v-58h-76v-571h-80l-4 31q-56 -38 -135 -38q-109 0 -177 69t-68 179zM308 409q-74 0 -121 -47t-47 -122t47 -122t121 -47q69 0 114 40v258q-45 40 -114 40z" />
    <glyph glyph-name="Emacron" unicode="&#x112;" horiz-adv-x="659" 
d="M89 0v700h522v-82h-428v-223h353v-82h-353v-231h433v-82h-527zM487 791h-268v59h268v-59z" />
    <glyph glyph-name="emacron" unicode="&#x113;" horiz-adv-x="579" 
d="M48 244q0 108 67.5 177t175.5 69q112 0 177 -77.5t57 -201.5h-386q13 -65 67.5 -102.5t138.5 -37.5q97 0 157 51v-84q-72 -48 -171 -48q-128 0 -205.5 69.5t-77.5 184.5zM138 284h299q-5 58 -45 93t-101 35q-60 0 -101 -35t-52 -93zM424 591h-269v58h269v-58z" />
    <glyph glyph-name="Ebreve" unicode="&#x114;" horiz-adv-x="659" 
d="M616 0h-527v700h522v-82h-428v-223h353v-82h-353v-231h433v-82zM213 835v60q64 -56 140 -56q75 0 140 56v-60q-51 -64 -140 -64t-140 64z" />
    <glyph glyph-name="ebreve" unicode="&#x115;" horiz-adv-x="579" 
d="M48 244q0 108 67.5 177t175.5 69q112 0 177 -77.5t57 -201.5h-386q13 -65 67.5 -102.5t138.5 -37.5q97 0 157 51v-84q-72 -48 -171 -48q-128 0 -205.5 69.5t-77.5 184.5zM138 284h299q-5 58 -45 93t-101 35q-60 0 -101 -35t-52 -93zM150 635v60q64 -56 141 -56
q74 0 139 56v-60q-50 -64 -139 -64q-90 0 -141 64z" />
    <glyph glyph-name="Edotaccent" unicode="&#x116;" horiz-adv-x="659" 
d="M89 0v700h522v-82h-428v-223h353v-82h-353v-231h433v-82h-527zM294 845q0 26 16.5 42.5t42.5 16.5t42.5 -16.5t16.5 -42.5t-16.5 -42t-42.5 -16t-42.5 16t-16.5 42z" />
    <glyph glyph-name="edotaccent" unicode="&#x117;" horiz-adv-x="579" 
d="M48 244q0 108 67.5 177t175.5 69q112 0 177 -77.5t57 -201.5h-386q13 -65 67.5 -102.5t138.5 -37.5q97 0 157 51v-84q-72 -48 -171 -48q-128 0 -205.5 69.5t-77.5 184.5zM138 284h299q-5 58 -45 93t-101 35q-60 0 -101 -35t-52 -93zM231 646q0 26 16.5 42t42.5 16t42 -16
t16 -42t-16 -42.5t-42 -16.5t-42.5 16.5t-16.5 42.5z" />
    <glyph glyph-name="Eogonek" unicode="&#x118;" horiz-adv-x="659" 
d="M89 0v700h522v-82h-428v-223h353v-82h-353v-231h433v-82h-78q-31 -13 -49 -37t-18 -50q0 -28 18.5 -45.5t49.5 -17.5q54 0 87 46v-62q-41 -44 -103 -44q-52 0 -84.5 29.5t-32.5 75.5q0 34 18 62t51 43h-386z" />
    <glyph glyph-name="eogonek" unicode="&#x119;" horiz-adv-x="579" 
d="M48 244q0 108 67.5 177t175.5 69q112 0 177 -77.5t57 -201.5h-386q13 -65 67.5 -102.5t138.5 -37.5q97 0 157 51v-84q-35 -23 -81 -37q-60 -29 -60 -83q0 -28 18.5 -45.5t49.5 -17.5q54 0 87 45v-61q-39 -44 -103 -44q-52 0 -84.5 29.5t-32.5 75.5q0 56 45 90
q-128 0 -210.5 65t-82.5 189zM138 284h299q-5 58 -45 93t-101 35q-60 0 -101 -35t-52 -93z" />
    <glyph glyph-name="Ecaron" unicode="&#x11a;" horiz-adv-x="659" 
d="M89 0v700h522v-82h-428v-223h353v-82h-353v-231h433v-82h-527zM203 903l150 -58l150 58v-58l-150 -83l-150 83v58z" />
    <glyph glyph-name="ecaron" unicode="&#x11b;" horiz-adv-x="579" 
d="M48 244q0 108 67.5 177t175.5 69q112 0 177 -77.5t57 -201.5h-386q13 -65 67.5 -102.5t138.5 -37.5q97 0 157 51v-84q-72 -48 -171 -48q-128 0 -205.5 69.5t-77.5 184.5zM138 284h299q-5 58 -45 93t-101 35q-60 0 -101 -35t-52 -93zM140 645v58l150 -58l150 58v-58
l-150 -82z" />
    <glyph glyph-name="Gcircumflex" unicode="&#x11c;" horiz-adv-x="769" 
d="M46 351q0 158 104 258.5t269 100.5q142 0 241 -77v-98q-85 88 -227 88q-129 0 -209.5 -76t-80.5 -198q0 -121 78.5 -196.5t204.5 -75.5q87 0 156 37v165h-151v78h241v-294h-1q-104 -73 -244 -73q-169 0 -275 100.5t-106 260.5zM406 821l-151 -58v58l151 82l150 -82v-58z
" />
    <glyph glyph-name="gcircumflex" unicode="&#x11d;" horiz-adv-x="591" 
d="M293 -7q-109 0 -177 69t-68 179t68 178.5t177 68.5q75 0 134 -38l5 30h80v-498q0 -92 -64.5 -142t-182.5 -50q-102 0 -174 40v78q58 -39 160 -39q82 0 126.5 29.5t44.5 84.5v45q-55 -35 -129 -35zM140 241q0 -75 47 -122.5t121 -47.5q68 0 114 41v257q-46 41 -114 41
q-74 0 -121 -47.5t-47 -121.5zM147 562v58l150 83l150 -83v-58l-150 59z" />
    <glyph glyph-name="Gbreve" unicode="&#x11e;" horiz-adv-x="769" 
d="M427 -10q-169 0 -275 100.5t-106 260.5q0 158 104 258.5t269 100.5q142 0 241 -77v-98q-85 88 -227 88q-129 0 -209.5 -76t-80.5 -198q0 -121 78.5 -196.5t204.5 -75.5q87 0 156 37v165h-151v78h241v-294h-1q-104 -73 -244 -73zM406 771q-89 0 -140 64v60q64 -56 140 -56
q75 0 139 56v-60q-50 -64 -139 -64z" />
    <glyph glyph-name="gbreve" unicode="&#x11f;" horiz-adv-x="591" 
d="M293 -7q-109 0 -177 69t-68 179t68 178.5t177 68.5q75 0 134 -38l5 30h80v-498q0 -92 -64.5 -142t-182.5 -50q-102 0 -174 40v78q58 -39 160 -39q82 0 126.5 29.5t44.5 84.5v45q-55 -35 -129 -35zM140 241q0 -75 47 -122.5t121 -47.5q68 0 114 41v257q-46 41 -114 41
q-74 0 -121 -47.5t-47 -121.5zM157 635v60q64 -56 141 -56q74 0 139 56v-60q-51 -64 -139 -64q-90 0 -141 64z" />
    <glyph glyph-name="Gdotaccent" unicode="&#x120;" horiz-adv-x="769" 
d="M46 351q0 158 104 258.5t269 100.5q142 0 241 -77v-98q-85 88 -227 88q-129 0 -209.5 -76t-80.5 -198q0 -121 78.5 -196.5t204.5 -75.5q87 0 156 37v165h-151v78h241v-294h-1q-104 -73 -244 -73q-169 0 -275 100.5t-106 260.5zM406 787q-26 0 -43 16.5t-17 42.5
q0 25 17 41.5t43 16.5t42 -16t16 -42t-16 -42.5t-42 -16.5z" />
    <glyph glyph-name="gdotaccent" unicode="&#x121;" horiz-adv-x="591" 
d="M48 241q0 110 68 178.5t177 68.5q75 0 134 -38l5 30h80v-498q0 -92 -64.5 -142t-182.5 -50q-102 0 -174 40v78q58 -39 160 -39q82 0 126.5 29.5t44.5 84.5v45q-55 -35 -129 -35q-109 0 -177 69t-68 179zM140 241q0 -75 47 -122.5t121 -47.5q68 0 114 41v257
q-46 41 -114 41q-74 0 -121 -47.5t-47 -121.5zM238 645q0 26 16.5 42.5t42.5 16.5t42.5 -16.5t16.5 -42.5t-16.5 -42t-42.5 -16t-42.5 16t-16.5 42z" />
    <glyph glyph-name="uni0122" unicode="&#x122;" horiz-adv-x="769" 
d="M427 -10q-169 0 -275 100.5t-106 260.5q0 158 104 258.5t269 100.5q142 0 241 -77v-98q-85 88 -227 88q-129 0 -209.5 -76t-80.5 -198q0 -121 78.5 -196.5t204.5 -75.5q87 0 156 37v165h-151v78h241v-294h-1q-104 -73 -244 -73zM362 -223q45 38 45 74q0 15 -13 30t-13 29
q0 17 11.5 28t30.5 11q22 0 34 -16.5t12 -43.5q0 -70 -62 -112h-45z" />
    <glyph glyph-name="uni0123" unicode="&#x123;" horiz-adv-x="591" 
d="M293 -7q-109 0 -177 69t-68 179t68 178.5t177 68.5q75 0 134 -38l5 30h80v-498q0 -92 -64.5 -142t-182.5 -50q-102 0 -174 40v78q58 -39 160 -39q82 0 126.5 29.5t44.5 84.5v45q-55 -35 -129 -35zM308 410q-74 0 -121 -47.5t-47 -121.5q0 -75 47 -122.5t121 -47.5
q68 0 114 41v257q-46 41 -114 41zM293 566q-46 0 -46 60q0 71 61 112h45q-44 -37 -44 -74q0 -15 12.5 -30t12.5 -29q0 -17 -11.5 -28t-29.5 -11z" />
    <glyph glyph-name="Hcircumflex" unicode="&#x124;" horiz-adv-x="849" 
d="M183 0h-94v700h94v-305h482v305h95v-700h-95v313h-482v-313zM425 821l-151 -59v58l151 83l150 -83v-58z" />
    <glyph glyph-name="hcircumflex" unicode="&#x125;" horiz-adv-x="611" 
d="M79 0v720h89v-281q58 50 145 50q103 0 163.5 -58.5t60.5 -159.5v-271h-89v271q0 65 -40.5 102.5t-109.5 37.5q-78 0 -130 -57v-354h-89zM123 815l-150 -59v58l150 83l151 -83v-58z" />
    <glyph glyph-name="Hbar" unicode="&#x126;" horiz-adv-x="849" 
d="M760 569h86v-59h-86v-510h-95v313h-482v-313h-94v510h-86v59h86v131h94v-131h482v131h95v-131zM665 510h-482v-115h482v115z" />
    <glyph glyph-name="hbar" unicode="&#x127;" horiz-adv-x="611" 
d="M79 571h-76v58h76v91h89v-91h141v-58h-141v-132q58 50 145 50q103 0 163.5 -58.5t60.5 -159.5v-271h-89v271q0 65 -40.5 102.5t-109.5 37.5q-78 0 -130 -57v-354h-89v571z" />
    <glyph glyph-name="Itilde" unicode="&#x128;" horiz-adv-x="272" 
d="M89 700h94v-700h-94v700zM40 776h-68q0 50 28.5 82t73.5 32q33 0 66 -26.5t50 -26.5q19 0 30.5 13.5t11.5 34.5h68q0 -50 -28.5 -82t-72.5 -32q-33 0 -66.5 26.5t-50.5 26.5q-18 0 -30 -13.5t-12 -34.5z" />
    <glyph glyph-name="itilde" unicode="&#x129;" horiz-adv-x="247" 
d="M79 0v480h89v-480h-89zM28 581h-68q0 50 28.5 82t72.5 32q33 0 66.5 -26.5t50.5 -26.5q18 0 30 13.5t12 34.5h68q0 -50 -28.5 -82t-73.5 -32q-33 0 -66 26.5t-50 26.5q-18 0 -30 -13.5t-12 -34.5z" />
    <glyph glyph-name="Imacron" unicode="&#x12a;" horiz-adv-x="272" 
d="M89 700h94v-700h-94v700zM2 791v59h269v-59h-269z" />
    <glyph glyph-name="imacron" unicode="&#x12b;" horiz-adv-x="247" 
d="M79 0v480h89v-480h-89zM-11 596v59h269v-59h-269z" />
    <glyph glyph-name="Ibreve" unicode="&#x12c;" horiz-adv-x="272" 
d="M183 0h-94v700h94v-700zM-4 895q65 -56 141 -56q75 0 139 56v-60q-50 -64 -139 -64q-90 0 -141 64v60z" />
    <glyph glyph-name="ibreve" unicode="&#x12d;" horiz-adv-x="247" 
d="M79 0v480h89v-480h-89zM-16 700q64 -56 140 -56q75 0 140 56v-60q-51 -64 -140 -64q-90 0 -140 64v60z" />
    <glyph glyph-name="Iogonek" unicode="&#x12e;" horiz-adv-x="272" 
d="M32 -105q0 34 18 62t51 43h-12v700h94v-700h-19q-32 -13 -50 -37t-18 -50q0 -28 19 -45.5t49 -17.5q55 0 88 46v-62q-41 -44 -104 -44q-51 0 -83.5 29.5t-32.5 75.5z" />
    <glyph glyph-name="iogonek" unicode="&#x12f;" horiz-adv-x="247" 
d="M22 -105q0 34 18 62t51 43h-12v480h89v-480h-14q-32 -13 -50 -37t-18 -50q0 -28 19 -45.5t49 -17.5q55 0 88 46v-62q-41 -44 -104 -44q-51 0 -83.5 29.5t-32.5 75.5zM64 645q0 26 16.5 42.5t42.5 16.5t42.5 -16.5t16.5 -42.5t-16.5 -42t-42.5 -16t-42.5 16t-16.5 42z" />
    <glyph glyph-name="Idotaccent" unicode="&#x130;" horiz-adv-x="272" 
d="M89 700h94v-700h-94v700zM77 845q0 26 16.5 42.5t42.5 16.5t42.5 -16.5t16.5 -42.5t-16.5 -42t-42.5 -16t-42.5 16t-16.5 42z" />
    <glyph glyph-name="dotlessi" unicode="&#x131;" horiz-adv-x="247" 
d="M79 0v480h89v-480h-89z" />
    <glyph glyph-name="IJ" unicode="&#x132;" horiz-adv-x="579" 
d="M247 -184v79q25 -20 63 -20q39 0 62.5 23.5t23.5 63.5v738h94v-752q0 -71 -42.5 -113t-113.5 -42q-52 0 -87 23zM89 700h94v-700h-94v700z" />
    <glyph glyph-name="ij" unicode="&#x133;" horiz-adv-x="494" 
d="M248 -138q36 0 57 17t21 46v555h90v-569q0 -51 -34 -84t-86 -33q-28 0 -48 9v59zM79 480h89v-480h-89v480zM64 645q0 26 16.5 42.5t42.5 16.5t42.5 -16.5t16.5 -42.5t-16.5 -42t-42.5 -16t-42.5 16t-16.5 42zM371 587q-27 0 -43 16t-16 42t16 42.5t43 16.5q26 0 42 -16.5
t16 -42.5q0 -25 -16.5 -41.5t-41.5 -16.5z" />
    <glyph glyph-name="Jcircumflex" unicode="&#x134;" horiz-adv-x="307" 
d="M62 -207q-52 0 -87 23v79q25 -20 63 -20q39 0 62.5 23.5t23.5 63.5v738h94v-752q0 -71 -42.5 -113t-113.5 -42zM20 762v58l151 83l150 -83v-58l-150 59z" />
    <glyph glyph-name="jcircumflex" unicode="&#x135;" horiz-adv-x="247" 
d="M49 -206q-29 0 -48 9v59q36 0 57 17t21 46v555h89v-569q0 -51 -33.5 -84t-85.5 -33zM123 621l-150 -59v58l150 83l151 -83v-58z" />
    <glyph glyph-name="uni0136" unicode="&#x136;" horiz-adv-x="720" 
d="M183 0h-94v700h94v-299h133l232 299h117l-270 -341l294 -359h-119l-254 318h-133v-318zM357 -223h-45q44 38 44 74q0 15 -12.5 30t-12.5 29q0 17 11 28t30 11q22 0 34 -16.5t12 -42.5q0 -32 -16 -62.5t-45 -50.5z" />
    <glyph glyph-name="uni0137" unicode="&#x137;" horiz-adv-x="538" 
d="M79 720h89v-437h64l160 197h107l-196 -236l209 -244h-109l-171 206h-64v-206h-89v720zM288 -223h-44q44 38 44 74q0 15 -13 30t-13 29q0 17 11.5 28t30.5 11q22 0 33.5 -16.5t11.5 -42.5q0 -72 -61 -113z" />
    <glyph glyph-name="Lacute" unicode="&#x139;" horiz-adv-x="639" 
d="M89 0v700h94v-618h426v-82h-520zM59 757v61l203 106v-85z" />
    <glyph glyph-name="lacute" unicode="&#x13a;" horiz-adv-x="277" 
d="M79 111v609h89v-595q0 -29 21 -46t57 -17v-59q-20 -9 -47 -9q-53 0 -86.5 33t-33.5 84zM47 812l203 106v-85l-203 -82v61z" />
    <glyph glyph-name="uni013B" unicode="&#x13b;" horiz-adv-x="639" 
d="M609 0h-520v700h94v-618h426v-82zM295 -223q44 37 44 74q0 15 -12.5 30t-12.5 29q0 17 11 28t30 11q22 0 34 -16t12 -43q0 -72 -61 -113h-45z" />
    <glyph glyph-name="uni013C" unicode="&#x13c;" horiz-adv-x="277" 
d="M79 111v609h89v-595q0 -29 21 -46t57 -17v-59q-20 -9 -47 -9q-53 0 -86.5 33t-33.5 84zM153 -223h-45q44 37 44 74q0 15 -12.5 30t-12.5 29q0 17 11.5 28t29.5 11q22 0 34 -16t12 -43q0 -72 -61 -113z" />
    <glyph glyph-name="Lcaron" unicode="&#x13d;" horiz-adv-x="639" 
d="M609 0h-520v700h94v-618h426v-82zM347 492q49 53 49 102q0 18 -14 36t-14 34q0 20 13 33t34 13q27 0 41.5 -21.5t14.5 -56.5q0 -84 -71 -140h-53z" />
    <glyph glyph-name="lcaron" unicode="&#x13e;" horiz-adv-x="404" 
d="M199 -6q-53 0 -86.5 33t-33.5 84v609h89v-595q0 -29 21 -46t57 -17v-59q-20 -9 -47 -9zM316 512h-53q49 53 49 102q0 18 -14 36t-14 34q0 20 13 33t34 13q27 0 41.5 -21.5t14.5 -56.5q0 -84 -71 -140z" />
    <glyph glyph-name="Ldot" unicode="&#x13f;" horiz-adv-x="639" 
d="M89 700h94v-618h426v-82h-520v700zM460 346q-26 0 -42.5 16t-16.5 42t16.5 42.5t42.5 16.5t42 -16.5t16 -42.5t-16 -42t-42 -16z" />
    <glyph glyph-name="ldot" unicode="&#x140;" horiz-adv-x="382" 
d="M199 -6q-53 0 -86.5 33t-33.5 84v609h89v-595q0 -29 21 -46t57 -17v-59q-20 -9 -47 -9zM320 291q-27 0 -43 16.5t-16 42.5t16 42.5t43 16.5q26 0 42 -16.5t16 -42.5t-16 -42.5t-42 -16.5z" />
    <glyph glyph-name="Lslash" unicode="&#x141;" horiz-adv-x="639" 
d="M20 251l-29 51l98 56v342h94v-287l119 68l29 -51l-148 -85v-263h426v-82h-520v291z" />
    <glyph glyph-name="lslash" unicode="&#x142;" horiz-adv-x="277" 
d="M20 271l-29 51l88 50v348h89v-297l80 46l29 -51l-109 -62v-231q0 -29 21 -46t57 -17v-59q-20 -9 -47 -9q-53 0 -86.5 33t-33.5 84v194z" />
    <glyph glyph-name="Nacute" unicode="&#x143;" horiz-adv-x="859" 
d="M89 696h53l533 -530v534h92v-700h-53l-533 529v-529h-92v696zM352 818l203 106v-85l-203 -82v61z" />
    <glyph glyph-name="nacute" unicode="&#x144;" horiz-adv-x="611" 
d="M79 480h80l6 -44q58 53 148 53q103 0 163.5 -58.5t60.5 -159.5v-271h-89v271q0 65 -40.5 102.5t-109.5 37.5q-78 0 -130 -57v-354h-89v480zM226 618l203 106v-85l-203 -82v61z" />
    <glyph glyph-name="uni0145" unicode="&#x145;" horiz-adv-x="859" 
d="M89 0v696h53l533 -530v534h92v-700h-53l-533 529v-529h-92zM370 -223q45 38 45 74q0 15 -13 30t-13 29q0 17 11.5 28t30.5 11q22 0 33.5 -16.5t11.5 -42.5q0 -72 -61 -113h-45z" />
    <glyph glyph-name="uni0146" unicode="&#x146;" horiz-adv-x="611" 
d="M168 0h-89v480h80l6 -44q58 53 148 53q103 0 163.5 -58.5t60.5 -159.5v-271h-89v271q0 65 -40.5 102.5t-109.5 37.5q-78 0 -130 -57v-354zM295 -223h-45q45 38 45 74q0 15 -13 30t-13 29q0 17 11.5 28t30.5 11q22 0 33.5 -16.5t11.5 -42.5q0 -72 -61 -113z" />
    <glyph glyph-name="Ncaron" unicode="&#x147;" horiz-adv-x="859" 
d="M89 696h53l533 -530v534h92v-700h-53l-533 529v-529h-92v696zM278 903l151 -58l150 58v-58l-150 -83l-151 83v58z" />
    <glyph glyph-name="ncaron" unicode="&#x148;" horiz-adv-x="611" 
d="M79 0v480h80l6 -44q58 53 148 53q103 0 163.5 -58.5t60.5 -159.5v-271h-89v271q0 65 -40.5 102.5t-109.5 37.5q-78 0 -130 -57v-354h-89zM303 562l-150 83v58l150 -58l150 58v-58z" />
    <glyph glyph-name="Eng" unicode="&#x14a;" horiz-adv-x="859" 
d="M89 696h53l533 -530v534h92v-752q0 -71 -42 -113t-113 -42q-51 0 -88 23v79q27 -20 64 -20q40 0 63.5 23.5t23.5 63.5v77l-494 490v-529h-92v696z" />
    <glyph glyph-name="eng" unicode="&#x14b;" horiz-adv-x="611" 
d="M168 0h-89v480h80l6 -44q58 53 148 53q103 0 163.5 -58.5t60.5 -159.5v-360q0 -51 -33.5 -84t-85.5 -33q-28 0 -48 9v59q36 0 57 17t21 46v346q0 65 -40.5 102.5t-109.5 37.5q-78 0 -130 -57v-354z" />
    <glyph glyph-name="Omacron" unicode="&#x14c;" horiz-adv-x="846" 
d="M58 350q0 159 102 259.5t263 100.5t263 -100.5t102 -259.5t-102 -259.5t-263 -100.5t-263 100.5t-102 259.5zM423 77q119 0 193.5 76t74.5 197t-74.5 197t-193.5 76t-193.5 -76t-74.5 -197t74.5 -197t193.5 -76zM289 850h268v-59h-268v59z" />
    <glyph glyph-name="omacron" unicode="&#x14d;" 
d="M48 240q0 110 71.5 180t183.5 70t183.5 -70t71.5 -180t-71.5 -180t-183.5 -70t-183.5 70t-71.5 180zM303 73q72 0 117.5 46.5t45.5 120.5t-45.5 120.5t-117.5 46.5t-117.5 -46.5t-45.5 -120.5t45.5 -120.5t117.5 -46.5zM169 650h268v-59h-268v59z" />
    <glyph glyph-name="Obreve" unicode="&#x14e;" horiz-adv-x="846" 
d="M423 710q161 0 263 -100.5t102 -259.5t-102 -259.5t-263 -100.5t-263 100.5t-102 259.5t102 259.5t263 100.5zM423 77q119 0 193.5 76t74.5 197t-74.5 197t-193.5 76t-193.5 -76t-74.5 -197t74.5 -197t193.5 -76zM283 835v60q64 -56 141 -56q74 0 139 56v-60
q-51 -64 -139 -64q-90 0 -141 64z" />
    <glyph glyph-name="obreve" unicode="&#x14f;" 
d="M303 490q112 0 183.5 -70t71.5 -180t-71.5 -180t-183.5 -70t-183.5 70t-71.5 180t71.5 180t183.5 70zM303 73q72 0 117.5 46.5t45.5 120.5t-45.5 120.5t-117.5 46.5t-117.5 -46.5t-45.5 -120.5t45.5 -120.5t117.5 -46.5zM163 635v60q64 -56 141 -56q74 0 139 56v-60
q-51 -64 -139 -64q-90 0 -141 64z" />
    <glyph glyph-name="Ohungarumlaut" unicode="&#x150;" horiz-adv-x="846" 
d="M58 350q0 159 102 259.5t263 100.5t263 -100.5t102 -259.5t-102 -259.5t-263 -100.5t-263 100.5t-102 259.5zM155 350q0 -121 74.5 -197t193.5 -76t193.5 76t74.5 197t-74.5 197t-193.5 76t-193.5 -76t-74.5 -197zM520 761h-59l93 139h87zM292 761l92 139h88l-122 -139
h-58z" />
    <glyph glyph-name="ohungarumlaut" unicode="&#x151;" 
d="M48 240q0 110 71.5 180t183.5 70t183.5 -70t71.5 -180t-71.5 -180t-183.5 -70t-183.5 70t-71.5 180zM140 240q0 -74 45.5 -120.5t117.5 -46.5t117.5 46.5t45.5 120.5t-45.5 120.5t-117.5 46.5t-117.5 -46.5t-45.5 -120.5zM400 561h-59l93 139h87zM172 561l92 139h88
l-122 -139h-58z" />
    <glyph glyph-name="OE" unicode="&#x152;" horiz-adv-x="1262" 
d="M58 350q0 159 101 259.5t261 100.5q174 0 276 -118v108h518v-82h-428v-223h353v-82h-353v-231h433v-82h-523v108q-102 -118 -276 -118q-160 0 -261 100.5t-101 259.5zM423 77q119 0 193.5 76t74.5 197t-74.5 197t-193.5 76t-193.5 -76t-74.5 -197t74.5 -197t193.5 -76z
" />
    <glyph glyph-name="oe" unicode="&#x153;" horiz-adv-x="1002" 
d="M140 240q0 -74 45.5 -120.5t117.5 -46.5t117.5 46.5t45.5 120.5t-45.5 120.5t-117.5 46.5t-117.5 -46.5t-45.5 -120.5zM561 284h299q-4 58 -44 93t-101 35t-102 -35t-52 -93zM511 386q67 104 203 104q113 0 178 -77.5t56 -201.5h-387q14 -65 69 -102.5t139 -37.5
q96 0 156 51v-84q-72 -48 -171 -48q-164 0 -240 109q-33 -52 -88 -80.5t-125 -28.5q-112 0 -182.5 70t-70.5 180t70.5 180t182.5 70q140 0 210 -104z" />
    <glyph glyph-name="Racute" unicode="&#x154;" horiz-adv-x="713" 
d="M183 0h-94v700h320q101 0 164.5 -57.5t63.5 -149.5q0 -75 -44 -129t-118 -71l192 -293h-112l-174 286h-198v-286zM401 618h-218v-249h218q61 0 100 34.5t39 89.5t-39 90t-100 35zM276 818l203 106v-85l-203 -82v61z" />
    <glyph glyph-name="racute" unicode="&#x155;" horiz-adv-x="414" 
d="M79 0v480h80l4 -58q58 67 153 67q34 0 67 -10v-87q-33 19 -81 19q-82 0 -134 -70v-341h-89zM154 557v61l203 106v-85z" />
    <glyph glyph-name="uni0156" unicode="&#x156;" horiz-adv-x="713" 
d="M183 0h-94v700h320q101 0 164.5 -57.5t63.5 -149.5q0 -75 -44 -129t-118 -71l192 -293h-112l-174 286h-198v-286zM401 618h-218v-249h218q61 0 100 34.5t39 89.5t-39 90t-100 35zM360 -223h-45q44 38 44 74q0 15 -12.5 30t-12.5 29q0 17 11 28t30 11q22 0 34 -16.5
t12 -42.5q0 -32 -16 -62.5t-45 -50.5z" />
    <glyph glyph-name="uni0157" unicode="&#x157;" horiz-adv-x="414" 
d="M79 0v480h80l4 -58q58 67 153 67q34 0 67 -10v-87q-33 19 -81 19q-82 0 -134 -70v-341h-89zM65 -223q44 38 44 74q0 15 -12.5 30t-12.5 29q0 17 11 28t30 11q22 0 34 -16t12 -43q0 -72 -61 -113h-45z" />
    <glyph glyph-name="Rcaron" unicode="&#x158;" horiz-adv-x="713" 
d="M89 700h320q101 0 164.5 -57.5t63.5 -149.5q0 -75 -44 -129t-118 -71l192 -293h-112l-174 286h-198v-286h-94v700zM183 369h218q61 0 100 34.5t39 89.5t-39 90t-100 35h-218v-249zM353 762l-150 83v58l150 -58l150 58v-58z" />
    <glyph glyph-name="rcaron" unicode="&#x159;" horiz-adv-x="414" 
d="M79 0v480h80l4 -58q58 67 153 67q34 0 67 -10v-87q-33 19 -81 19q-82 0 -134 -70v-341h-89zM80 703l151 -58l150 58v-58l-150 -83l-151 83v58z" />
    <glyph glyph-name="Sacute" unicode="&#x15a;" horiz-adv-x="650" 
d="M319 311q-134 28 -195.5 78.5t-61.5 132.5q0 90 66.5 139t189.5 49q144 0 229 -73v-84q-75 70 -218 70q-83 0 -129.5 -26t-46.5 -72q0 -43 44.5 -72t138.5 -49q134 -26 197 -78.5t63 -137.5q0 -94 -73 -145t-208 -51q-160 0 -252 73v84q85 -70 241 -70q94 0 148 28.5
t54 79.5q0 45 -45 74.5t-142 49.5zM449 839l-203 -82v61l203 106v-85z" />
    <glyph glyph-name="sacute" unicode="&#x15b;" horiz-adv-x="508" 
d="M247 201q-99 18 -145 54.5t-46 97.5q0 66 49.5 101.5t143.5 35.5q111 0 169 -50v-80q-50 48 -159 48q-118 0 -118 -54q0 -24 28.5 -40t90.5 -27q101 -18 148.5 -55t47.5 -99q0 -69 -55 -106t-160 -37q-116 0 -182 50v80q59 -48 175 -48q63 0 99.5 16t36.5 44
q0 24 -28.5 40.5t-94.5 28.5zM376 639l-203 -81v60l203 106v-85z" />
    <glyph glyph-name="Scircumflex" unicode="&#x15c;" horiz-adv-x="650" 
d="M62 522q0 90 66.5 139t189.5 49q144 0 229 -73v-84q-75 70 -218 70q-83 0 -129.5 -26t-46.5 -72q0 -43 44.5 -72t138.5 -49q134 -26 197 -78.5t63 -137.5q0 -94 -73 -145t-208 -51q-160 0 -252 73v84q85 -70 241 -70q94 0 148 28.5t54 79.5q0 45 -45 74.5t-142 49.5
q-134 28 -195.5 78.5t-61.5 132.5zM173 762v58l150 83l150 -83v-58l-150 59z" />
    <glyph glyph-name="scircumflex" unicode="&#x15d;" horiz-adv-x="508" 
d="M56 353q0 66 49.5 101.5t143.5 35.5q111 0 169 -50v-80q-50 48 -159 48q-118 0 -118 -54q0 -24 28.5 -40t90.5 -27q101 -18 148.5 -55t47.5 -99q0 -69 -55 -106t-160 -37q-116 0 -182 50v80q59 -48 175 -48q63 0 99.5 16t36.5 44q0 24 -28.5 40.5t-94.5 28.5
q-99 18 -145 54.5t-46 97.5zM100 563v58l150 82l150 -82v-58l-150 58z" />
    <glyph glyph-name="Scedilla" unicode="&#x15e;" horiz-adv-x="650" 
d="M319 311q-134 28 -195.5 78.5t-61.5 132.5q0 90 66.5 139t189.5 49q144 0 229 -73v-84q-75 70 -218 70q-83 0 -129.5 -26t-46.5 -72q0 -43 44.5 -72t138.5 -49q134 -26 197 -78.5t63 -137.5q0 -87 -61.5 -137t-177.5 -58l-4 -44q32 -5 52.5 -25t20.5 -48q0 -31 -27.5 -52
t-71.5 -21q-52 0 -87 27v48q31 -23 71 -23q52 0 52 28q0 15 -19.5 26.5t-51.5 14.5l7 68q-150 4 -236 73v84q85 -70 241 -70q94 0 148 28.5t54 79.5q0 45 -45 74.5t-142 49.5z" />
    <glyph glyph-name="scedilla" unicode="&#x15f;" horiz-adv-x="508" 
d="M247 201q-99 18 -145 54.5t-46 97.5q0 66 49.5 101.5t143.5 35.5q111 0 169 -50v-80q-50 48 -159 48q-118 0 -118 -54q0 -24 28.5 -40t90.5 -27q101 -18 148.5 -55t47.5 -99q0 -127 -174 -141l-4 -43q32 -6 52.5 -25.5t20.5 -47.5q0 -31 -27.5 -52t-70.5 -21
q-52 0 -87 27v49q27 -24 70 -24q24 0 38.5 8t14.5 20q0 15 -20 26.5t-52 13.5l7 67q-106 4 -165 50v80q59 -48 175 -48q63 0 99.5 16t36.5 44q0 24 -28.5 40.5t-94.5 28.5z" />
    <glyph glyph-name="Scaron" unicode="&#x160;" horiz-adv-x="650" 
d="M62 522q0 90 66.5 139t189.5 49q144 0 229 -73v-84q-75 70 -218 70q-83 0 -129.5 -26t-46.5 -72q0 -43 44.5 -72t138.5 -49q134 -26 197 -78.5t63 -137.5q0 -94 -73 -145t-208 -51q-160 0 -252 73v84q85 -70 241 -70q94 0 148 28.5t54 79.5q0 45 -45 74.5t-142 49.5
q-134 28 -195.5 78.5t-61.5 132.5zM323 762l-150 83v58l150 -58l150 58v-58z" />
    <glyph glyph-name="scaron" unicode="&#x161;" horiz-adv-x="508" 
d="M56 353q0 66 49.5 101.5t143.5 35.5q111 0 169 -50v-80q-50 48 -159 48q-118 0 -118 -54q0 -24 28.5 -40t90.5 -27q101 -18 148.5 -55t47.5 -99q0 -69 -55 -106t-160 -37q-116 0 -182 50v80q59 -48 175 -48q63 0 99.5 16t36.5 44q0 24 -28.5 40.5t-94.5 28.5
q-99 18 -145 54.5t-46 97.5zM250 563l-150 82v58l150 -58l150 58v-58z" />
    <glyph glyph-name="uni0162" unicode="&#x162;" horiz-adv-x="703" 
d="M30 618v82h643v-82h-274v-618h-95v618h-274zM294 -223q44 38 44 74q0 15 -13 30t-13 29q0 17 11.5 28t30.5 11q22 0 33.5 -16.5t11.5 -42.5q0 -72 -61 -113h-44z" />
    <glyph glyph-name="uni0163" unicode="&#x163;" horiz-adv-x="398" 
d="M203 480h149v-78h-149v-245q0 -40 23.5 -63.5t62.5 -23.5q38 0 63 20v-74q-37 -23 -86 -23q-68 0 -110 40t-42 105v264h-88v78h88v78l89 44v-122zM175 -223q45 38 45 74q0 15 -13 30t-13 29q0 17 11.5 28t30.5 11q22 0 33.5 -16.5t11.5 -42.5q0 -72 -61 -113h-45z" />
    <glyph glyph-name="Tcaron" unicode="&#x164;" horiz-adv-x="703" 
d="M304 618h-274v82h643v-82h-274v-618h-95v618zM202 903l150 -58l150 58v-58l-150 -83l-150 83v58z" />
    <glyph glyph-name="tcaron" unicode="&#x165;" horiz-adv-x="427" 
d="M26 402v78h88v78l89 44v-122h149v-78h-149v-245q0 -40 23.5 -63.5t62.5 -23.5q38 0 63 20v-74q-37 -23 -86 -23q-68 0 -110 40t-42 105v264h-88zM327 532h-48q44 48 44 93q0 17 -12.5 33t-12.5 31q0 18 11.5 30t30.5 12q25 0 38 -20t13 -52q0 -77 -64 -127z" />
    <glyph glyph-name="Tbar" unicode="&#x166;" horiz-adv-x="703" 
d="M30 618v82h643v-82h-274v-244h139v-58h-139v-316h-95v316h-138v58h138v244h-274z" />
    <glyph glyph-name="tbar" unicode="&#x167;" horiz-adv-x="398" 
d="M26 402v78h88v78l89 44v-122h149v-78h-149v-102h139v-58h-139v-85q0 -40 23.5 -63.5t62.5 -23.5q38 0 63 20v-74q-37 -23 -86 -23q-68 0 -110 40t-42 105v104h-78v58h78v102h-88z" />
    <glyph glyph-name="Utilde" unicode="&#x168;" horiz-adv-x="816" 
d="M81 306v394h95v-390q0 -103 65 -168t169 -65q103 0 167 64.5t64 168.5v390h94v-394q0 -140 -90.5 -228t-234.5 -88q-145 0 -237 88t-92 228zM346 890q33 0 66 -26.5t50 -26.5q19 0 30.5 13.5t11.5 34.5h68q0 -50 -28.5 -82t-72.5 -32q-33 0 -66.5 26.5t-50.5 26.5
q-18 0 -30 -13.5t-12 -34.5h-68q0 50 28.5 82t73.5 32z" />
    <glyph glyph-name="utilde" unicode="&#x169;" 
d="M74 200v280h89v-280q0 -62 37.5 -96t105.5 -34q81 0 132 56v354h89v-480h-80l-6 44q-55 -52 -150 -52q-102 0 -159.5 55t-57.5 153zM137 576q0 50 28.5 82t72.5 32q33 0 66.5 -26.5t50.5 -26.5q18 0 30 13.5t12 34.5h68q0 -50 -28.5 -82t-73.5 -32q-33 0 -66 26.5
t-50 26.5q-19 0 -30.5 -13.5t-11.5 -34.5h-68z" />
    <glyph glyph-name="Umacron" unicode="&#x16a;" horiz-adv-x="816" 
d="M81 306v394h95v-390q0 -103 65 -168t169 -65q103 0 167 64.5t64 168.5v390h94v-394q0 -140 -90.5 -228t-234.5 -88q-145 0 -237 88t-92 228zM543 791h-269v59h269v-59z" />
    <glyph glyph-name="umacron" unicode="&#x16b;" 
d="M74 480h89v-280q0 -62 37.5 -96t105.5 -34q81 0 132 56v354h89v-480h-80l-6 44q-55 -52 -150 -52q-102 0 -159.5 55t-57.5 153v280zM435 591h-269v59h269v-59z" />
    <glyph glyph-name="Ubreve" unicode="&#x16c;" horiz-adv-x="816" 
d="M81 306v394h95v-390q0 -103 65 -168t169 -65q103 0 167 64.5t64 168.5v390h94v-394q0 -140 -90.5 -228t-234.5 -88q-145 0 -237 88t-92 228zM409 839q74 0 139 56v-60q-50 -64 -139 -64q-90 0 -141 64v60q65 -56 141 -56z" />
    <glyph glyph-name="ubreve" unicode="&#x16d;" 
d="M74 200v280h89v-280q0 -62 37.5 -96t105.5 -34q81 0 132 56v354h89v-480h-80l-6 44q-55 -52 -150 -52q-102 0 -159.5 55t-57.5 153zM161 695q64 -56 140 -56q75 0 139 56v-60q-50 -64 -139 -64q-90 0 -140 64v60z" />
    <glyph glyph-name="Uring" unicode="&#x16e;" horiz-adv-x="816" 
d="M81 306v394h95v-390q0 -103 65 -168t169 -65q103 0 167 64.5t64 168.5v390h94v-394q0 -140 -90.5 -228t-234.5 -88q-145 0 -237 88t-92 228zM408 955q38 0 65 -27t27 -65t-27 -65t-65 -27t-65 27.5t-27 64.5t27 64.5t65 27.5zM408 820q18 0 30.5 13t12.5 30
q0 18 -12.5 30.5t-30.5 12.5q-17 0 -30 -12.5t-13 -30.5q0 -17 13 -30t30 -13z" />
    <glyph glyph-name="uring" unicode="&#x16f;" 
d="M74 200v280h89v-280q0 -62 37.5 -96t105.5 -34q81 0 132 56v354h89v-480h-80l-6 44q-55 -52 -150 -52q-102 0 -159.5 55t-57.5 153zM301 571q-38 0 -65 27t-27 65t27 65t65 27q37 0 64 -27t27 -65t-27 -65t-64 -27zM258 663q0 -17 12.5 -30t30.5 -13q17 0 30 13t13 30
q0 18 -13 30.5t-30 12.5q-18 0 -30.5 -12.5t-12.5 -30.5z" />
    <glyph glyph-name="Uhungarumlaut" unicode="&#x170;" horiz-adv-x="816" 
d="M81 306v394h95v-390q0 -103 65 -168t169 -65q103 0 167 64.5t64 168.5v390h94v-394q0 -140 -90.5 -228t-234.5 -88q-145 0 -237 88t-92 228zM446 761l93 139h87l-121 -139h-59zM277 761l92 139h88l-122 -139h-58z" />
    <glyph glyph-name="uhungarumlaut" unicode="&#x171;" 
d="M74 200v280h89v-280q0 -62 37.5 -96t105.5 -34q81 0 132 56v354h89v-480h-80l-6 44q-55 -52 -150 -52q-102 0 -159.5 55t-57.5 153zM397 561h-58l92 139h88zM228 561h-59l93 139h87z" />
    <glyph glyph-name="Uogonek" unicode="&#x172;" horiz-adv-x="816" 
d="M81 306v394h95v-390q0 -103 65 -168t169 -65q103 0 167 64.5t64 168.5v390h94v-394q0 -121 -68.5 -204.5t-183.5 -104.5q-51 -31 -51 -79q0 -28 19 -45.5t49 -17.5q55 0 88 46v-62q-41 -44 -104 -44q-52 0 -84.5 29.5t-32.5 75.5q0 56 45 90q-144 0 -237.5 86.5
t-93.5 229.5z" />
    <glyph glyph-name="uogonek" unicode="&#x173;" 
d="M291 -8q-102 0 -159.5 55t-57.5 153v280h89v-280q0 -62 37.5 -96t105.5 -34q81 0 132 56v354h89v-480h-14q-32 -13 -50 -37t-18 -50q0 -28 19 -45.5t49 -17.5q55 0 88 46v-62q-41 -44 -104 -44q-51 0 -83.5 29.5t-32.5 75.5q0 34 18 62t51 43h-3l-6 44q-55 -52 -150 -52z
" />
    <glyph glyph-name="Wcircumflex" unicode="&#x174;" horiz-adv-x="1146" 
d="M23 700h103l208 -533l217 533h44l217 -533l209 533h102l-286 -700h-45l-219 536l-219 -536h-44zM573 821l-150 -59v58l150 83l150 -83v-58z" />
    <glyph glyph-name="wcircumflex" unicode="&#x175;" horiz-adv-x="814" 
d="M18 480h93l137 -334l137 334h44l138 -334l136 334h93l-207 -480h-45l-137 335l-137 -335h-45zM407 621l-150 -59v58l150 83l151 -83v-58z" />
    <glyph glyph-name="Ycircumflex" unicode="&#x176;" horiz-adv-x="719" 
d="M312 297l-291 403h115l223 -317l224 317h115l-292 -403v-297h-94v297zM359 821l-150 -59v58l150 83l151 -83v-58z" />
    <glyph glyph-name="ycircumflex" unicode="&#x177;" horiz-adv-x="567" 
d="M239 45l-221 435h95l171 -341l169 341h95l-344 -680h-97zM284 621l-151 -59v58l151 83l150 -83v-58z" />
    <glyph glyph-name="Ydieresis" unicode="&#x178;" horiz-adv-x="719" 
d="M312 297l-291 403h115l223 -317l224 317h115l-292 -403v-297h-94v297zM467 890q23 0 37.5 -14t14.5 -37t-14.5 -37.5t-37.5 -14.5t-37 14.5t-14 37.5t14 37t37 14zM252 890q22 0 36.5 -14t14.5 -37t-14 -37.5t-37 -14.5t-37.5 14.5t-14.5 37.5t14.5 37t37.5 14z" />
    <glyph glyph-name="Zacute" unicode="&#x179;" horiz-adv-x="748" 
d="M685 0h-622v44l475 574h-470v82h612v-44l-475 -574h480v-82zM298 818l203 106v-85l-203 -82v61z" />
    <glyph glyph-name="zacute" unicode="&#x17a;" horiz-adv-x="533" 
d="M490 0h-442v44l300 358h-295v78h432v-44l-300 -358h305v-78zM193 557v61l203 106v-85z" />
    <glyph glyph-name="Zdotaccent" unicode="&#x17b;" horiz-adv-x="748" 
d="M63 0v44l475 574h-470v82h612v-44l-475 -574h480v-82h-622zM375 787q-27 0 -43 16t-16 42t16 42.5t43 16.5q26 0 42 -16.5t16 -42.5q0 -25 -16.5 -41.5t-41.5 -16.5z" />
    <glyph glyph-name="zdotaccent" unicode="&#x17c;" horiz-adv-x="533" 
d="M48 0v44l300 358h-295v78h432v-44l-300 -358h305v-78h-442zM270 587q-27 0 -43 16t-16 42t16 42.5t43 16.5q26 0 42 -16.5t16 -42.5q0 -25 -16 -41.5t-42 -16.5z" />
    <glyph glyph-name="Zcaron" unicode="&#x17d;" horiz-adv-x="748" 
d="M685 0h-622v44l475 574h-470v82h612v-44l-475 -574h480v-82zM375 762l-151 83v58l151 -58l150 58v-58z" />
    <glyph glyph-name="zcaron" unicode="&#x17e;" horiz-adv-x="533" 
d="M490 0h-442v44l300 358h-295v78h432v-44l-300 -358h305v-78zM119 645v58l151 -58l150 58v-58l-150 -83z" />
    <glyph glyph-name="uni018F" unicode="&#x18f;" horiz-adv-x="805" 
d="M60 382h590q-14 110 -101 175t-220 65q-145 0 -235 -78v87q105 79 256 79q178 0 287.5 -100.5t109.5 -264.5q0 -155 -96.5 -254t-249.5 -99q-162 0 -257 108.5t-84 281.5zM396 79q104 0 173 62t82 161h-494q6 -102 72.5 -162.5t166.5 -60.5z" />
    <glyph glyph-name="florin" unicode="&#x192;" horiz-adv-x="417" 
d="M-9 -210q-47 0 -82 22l11 73q22 -17 58 -17q40 0 67.5 25.5t33.5 67.5l55 391h-88l11 78h88l20 145q11 70 59 112.5t117 42.5q48 0 81 -22l-10 -73q-20 17 -58 17q-40 0 -67.5 -25.5t-34.5 -67.5l-18 -129h149l-11 -78h-149l-57 -407q-10 -70 -58 -112.5t-117 -42.5z" />
    <glyph glyph-name="uni01DD" unicode="&#x1dd;" horiz-adv-x="579" 
d="M54 269h386q-13 65 -67.5 102.5t-138.5 37.5q-97 0 -157 -51v84q72 48 171 48q128 0 205.5 -69.5t77.5 -184.5q0 -108 -67.5 -177t-175.5 -69q-112 0 -177 77.5t-57 201.5zM288 68q60 0 101 35t52 93h-299q5 -58 45 -93t101 -35z" />
    <glyph glyph-name="Aringacute" unicode="&#x1fa;" horiz-adv-x="799" 
d="M128 0h-105l339 669q-24 11 -39 34t-15 50q0 38 27 65t65 27q7 0 10 -1l57 96h89l-95 -119q30 -28 30 -68q0 -28 -15 -50.5t-39 -33.5l339 -669h-106l-76 155h-390zM399 553l-155 -316h310zM400 710q17 0 30 13t13 30t-13 30t-30 13q-18 0 -30.5 -13t-12.5 -30t12.5 -30
t30.5 -13z" />
    <glyph glyph-name="aringacute" unicode="&#x1fb;" horiz-adv-x="556" 
d="M241 -7q-89 0 -140 38.5t-51 104.5q0 70 57 110t158 40q46 0 114 -10v25q0 106 -143 106q-95 0 -149 -43v81q65 42 165 42q105 0 161 -45.5t56 -130.5v-205q0 -44 60 -44v-59q-18 -9 -46 -9q-61 0 -90 43q-62 -44 -152 -44zM264 520q-38 0 -65 27t-27 65t27 65t65 27
q7 0 11 -1l58 99h86l-95 -120q32 -29 32 -70q0 -38 -27 -65t-65 -27zM140 137q0 -32 30.5 -50.5t84.5 -18.5q76 0 124 44v92q-65 9 -96 9q-67 0 -105 -20.5t-38 -55.5zM221 612q0 -17 13 -30t30 -13t30 13t13 30t-13 30t-30 13t-30 -13t-13 -30z" />
    <glyph glyph-name="AEacute" unicode="&#x1fc;" horiz-adv-x="1001" 
d="M23 0l404 700h526v-82h-398v-223h323v-82h-323v-231h403v-82h-497v157h-241l-89 -157h-108zM461 585l-195 -345h195v345zM414 818l203 106v-85l-203 -82v61z" />
    <glyph glyph-name="aeacute" unicode="&#x1fd;" horiz-adv-x="910" 
d="M50 137q0 70 57 109.5t157 39.5q47 0 115 -10v25q0 106 -144 106q-94 0 -148 -43v81q65 42 165 42q135 0 187 -74q69 77 182 77t178.5 -77.5t56.5 -201.5h-386q13 -65 68 -102.5t138 -37.5q97 0 157 51v-84q-72 -48 -173 -48q-150 0 -227 93q-66 -90 -195 -90
q-86 0 -137 39t-51 105zM469 284h299q-4 58 -44 93t-101 35t-102 -35t-52 -93zM281 213q-66 0 -103.5 -20.5t-37.5 -55.5q0 -32 30 -50.5t79 -18.5q99 0 150 72q-13 32 -17 64q-68 9 -101 9zM579 639l-202 -81v60l202 106v-85z" />
    <glyph glyph-name="Oslashacute" unicode="&#x1fe;" horiz-adv-x="846" 
d="M423 710q83 0 157 -30l28 49l51 -29l-27 -47q74 -47 115 -125.5t41 -177.5q0 -159 -102 -259.5t-263 -100.5q-83 0 -157 30l-28 -49l-51 29l27 47q-74 47 -115 125.5t-41 177.5q0 159 102 259.5t263 100.5zM423 77q119 0 193.5 76t74.5 197q0 145 -105 223l-275 -475
q51 -21 112 -21zM155 350q0 -145 105 -223l275 475q-51 21 -112 21q-119 0 -193.5 -76t-74.5 -197zM549 839l-203 -82v61l203 106v-85z" />
    <glyph glyph-name="oslashacute" unicode="&#x1ff;" 
d="M162 27l-43 -51l-44 38l41 49q-68 70 -68 177q0 110 71.5 180t183.5 70q79 0 141 -37l42 51l44 -37l-41 -49q69 -69 69 -178q0 -110 -71.5 -180t-183.5 -70q-81 0 -141 37zM434 352l-219 -262q39 -22 88 -22q74 0 120.5 48t46.5 124q0 67 -36 112zM171 129l219 261
q-38 22 -87 22q-74 0 -120.5 -48t-46.5 -124q0 -65 35 -111zM226 618l203 106v-85l-203 -82v61z" />
    <glyph glyph-name="uni0218" unicode="&#x218;" horiz-adv-x="650" 
d="M62 522q0 90 66.5 139t189.5 49q144 0 229 -73v-84q-75 70 -218 70q-83 0 -129.5 -26t-46.5 -72q0 -43 44.5 -72t138.5 -49q134 -26 197 -78.5t63 -137.5q0 -94 -73 -145t-208 -51q-160 0 -252 73v84q85 -70 241 -70q94 0 148 28.5t54 79.5q0 45 -45 74.5t-142 49.5
q-134 28 -195.5 78.5t-61.5 132.5zM270 -223q44 38 44 74q0 15 -12.5 30t-12.5 29q0 17 11 28t30 11q22 0 34 -16t12 -43q0 -32 -16 -62.5t-45 -50.5h-45z" />
    <glyph glyph-name="uni0219" unicode="&#x219;" horiz-adv-x="508" 
d="M56 353q0 66 49.5 101.5t143.5 35.5q111 0 169 -50v-80q-50 48 -159 48q-118 0 -118 -54q0 -24 28.5 -40t90.5 -27q101 -18 148.5 -55t47.5 -99q0 -69 -55 -106t-160 -37q-116 0 -182 50v80q59 -48 175 -48q63 0 99.5 16t36.5 44q0 24 -28.5 40.5t-94.5 28.5
q-99 18 -145 54.5t-46 97.5zM195 -223q45 38 45 74q0 15 -13 30t-13 29q0 17 11.5 28t29.5 11q46 0 46 -60q0 -71 -61 -112h-45z" />
    <glyph glyph-name="uni021A" unicode="&#x21a;" horiz-adv-x="703" 
d="M30 618v82h643v-82h-274v-618h-95v618h-274zM294 -223q44 38 44 74q0 15 -13 30t-13 29q0 17 11.5 28t30.5 11q22 0 33.5 -16.5t11.5 -42.5q0 -72 -61 -113h-44z" />
    <glyph glyph-name="uni021B" unicode="&#x21b;" horiz-adv-x="398" 
d="M203 480h149v-78h-149v-245q0 -40 23.5 -63.5t62.5 -23.5q38 0 63 20v-74q-37 -23 -86 -23q-68 0 -110 40t-42 105v264h-88v78h88v78l89 44v-122zM175 -223q45 38 45 74q0 15 -13 30t-13 29q0 17 11.5 28t30.5 11q22 0 33.5 -16.5t11.5 -42.5q0 -72 -61 -113h-45z" />
    <glyph glyph-name="uni0237" unicode="&#x237;" horiz-adv-x="247" 
d="M1 -138q36 0 57 17t21 46v555h89v-569q0 -51 -33.5 -84t-85.5 -33q-29 0 -48 9v59z" />
    <glyph glyph-name="uni0259" unicode="&#x259;" horiz-adv-x="579" 
d="M54 269h386q-13 65 -67.5 102.5t-138.5 37.5q-97 0 -157 -51v84q72 48 171 48q128 0 205.5 -69.5t77.5 -184.5q0 -108 -67.5 -177t-175.5 -69q-112 0 -177 77.5t-57 201.5zM288 68q60 0 101 35t52 93h-299q5 -58 45 -93t101 -35z" />
    <glyph glyph-name="circumflex" unicode="&#x2c6;" horiz-adv-x="433" 
d="M66 625l151 82l150 -82v-58l-150 58l-151 -58v58z" />
    <glyph glyph-name="caron" unicode="&#x2c7;" horiz-adv-x="433" 
d="M66 648v58l151 -57l150 57v-58l-150 -81z" />
    <glyph glyph-name="breve" unicode="&#x2d8;" horiz-adv-x="433" 
d="M77 635v59q63 -55 140 -55q75 0 139 55v-59q-51 -64 -139 -64q-87 0 -140 64z" />
    <glyph glyph-name="dotaccent" unicode="&#x2d9;" horiz-adv-x="251" 
d="M66 646q0 26 16.5 42t43.5 16q26 0 42 -16t16 -42t-16.5 -43t-41.5 -17q-27 0 -43.5 17t-16.5 43z" />
    <glyph glyph-name="ring" unicode="&#x2da;" horiz-adv-x="316" 
d="M159 755q37 0 64 -27t27 -64q0 -38 -27 -65.5t-64 -27.5q-38 0 -65.5 27.5t-27.5 65.5q0 37 27.5 64t65.5 27zM115 664q0 -18 13 -31t31 -13q17 0 30 13t13 31q0 16 -13 29.5t-30 13.5q-18 0 -31 -13t-13 -30z" />
    <glyph glyph-name="ogonek" unicode="&#x2db;" horiz-adv-x="353" 
d="M66 -105q0 34 18.5 62.5t50.5 42.5h64q-32 -13 -50.5 -37t-18.5 -50q0 -28 19.5 -46t49.5 -18q53 0 87 46v-62q-40 -43 -102 -43q-52 0 -85 29.5t-33 75.5z" />
    <glyph glyph-name="tilde" unicode="&#x2dc;" horiz-adv-x="460" 
d="M134 576h-68q0 51 28 82t73 31q33 0 67 -26t50 -26q19 0 30.5 13.5t11.5 34.5h68q0 -50 -28 -82t-73 -32q-33 0 -66 26.5t-50 26.5q-18 0 -30.5 -13.5t-12.5 -34.5z" />
    <glyph glyph-name="hungarumlaut" unicode="&#x2dd;" horiz-adv-x="482" 
d="M235 560l94 140h87l-122 -140h-59zM125 560h-58l92 140h88z" />
    <glyph glyph-name="uni0400" unicode="&#x400;" horiz-adv-x="659" 
d="M89 0v700h522v-82h-428v-223h353v-82h-353v-231h433v-82h-527zM430 757l-198 80v86l198 -105v-61z" />
    <glyph glyph-name="uni0401" unicode="&#x401;" horiz-adv-x="659" 
d="M89 0v700h522v-82h-428v-223h353v-82h-353v-231h433v-82h-527zM461 787q-23 0 -37.5 14.5t-14.5 37.5t14.5 37t37.5 14t37 -14t14 -37t-14 -37.5t-37 -14.5zM246 787q-23 0 -37.5 14.5t-14.5 37.5t14.5 37t37.5 14q22 0 36.5 -14t14.5 -37t-14 -37.5t-37 -14.5z" />
    <glyph glyph-name="uni0402" unicode="&#x402;" horiz-adv-x="933" 
d="M304 618h-274v82h643v-82h-274v-235q81 45 199 45q135 0 203.5 -60t68.5 -175v-245q0 -71 -42.5 -113t-113.5 -42q-50 0 -87 23v79q25 -20 63 -20q39 0 62.5 23.5t23.5 63.5v229q0 77 -45.5 115t-144.5 38q-113 0 -187 -45v-299h-95v618z" />
    <glyph glyph-name="uni0403" unicode="&#x403;" horiz-adv-x="614" 
d="M89 700h495v-82h-401v-618h-94v700zM260 757v61l203 106v-85z" />
    <glyph glyph-name="uni0404" unicode="&#x404;" horiz-adv-x="720" 
d="M46 350q0 159 103 259.5t266 100.5q141 0 239 -79v-100q-86 92 -227 92q-113 0 -189.5 -62.5t-91.5 -165.5h396v-82h-397q13 -106 89.5 -171t192.5 -65q141 0 227 92v-100q-98 -79 -239 -79q-163 0 -266 100.5t-103 259.5z" />
    <glyph glyph-name="uni0405" unicode="&#x405;" horiz-adv-x="650" 
d="M62 522q0 90 66.5 139t189.5 49q144 0 229 -73v-84q-75 70 -218 70q-83 0 -129.5 -26t-46.5 -72q0 -43 44.5 -72t138.5 -49q134 -26 197 -78.5t63 -137.5q0 -94 -73 -145t-208 -51q-160 0 -252 73v84q85 -70 241 -70q94 0 148 28.5t54 79.5q0 45 -45 74.5t-142 49.5
q-134 28 -195.5 78.5t-61.5 132.5z" />
    <glyph glyph-name="uni0406" unicode="&#x406;" horiz-adv-x="272" 
d="M89 700h94v-700h-94v700z" />
    <glyph glyph-name="uni0407" unicode="&#x407;" horiz-adv-x="272" 
d="M183 0h-94v700h94v-700zM234 787q-23 0 -37.5 14.5t-14.5 37.5t14.5 37t37.5 14q22 0 36.5 -14t14.5 -37t-14 -37.5t-37 -14.5zM-12 839q0 23 14 37t37 14t37 -14t14 -37t-14 -37.5t-37 -14.5t-37 14.5t-14 37.5z" />
    <glyph glyph-name="uni0408" unicode="&#x408;" horiz-adv-x="307" 
d="M62 -207q-52 0 -87 23v79q25 -20 63 -20q39 0 62.5 23.5t23.5 63.5v738h94v-752q0 -71 -42.5 -113t-113.5 -42z" />
    <glyph glyph-name="uni0409" unicode="&#x409;" horiz-adv-x="1204" 
d="M28 68h20q34 0 57.5 19.5t42.5 72t28.5 156.5t9.5 264v120h529v-286h210q101 0 164.5 -57.5t63.5 -149.5t-63.5 -149.5t-164.5 -57.5h-305v618h-344v-49q0 -149 -10 -256.5t-26 -168t-42 -95.5t-51 -45t-59 -10q-37 0 -60 9v65zM917 331h-202v-249h202q61 0 100.5 35
t39.5 90t-39 89.5t-101 34.5z" />
    <glyph glyph-name="uni040A" unicode="&#x40a;" horiz-adv-x="1204" 
d="M183 0h-94v700h94v-294h437v294h95v-294h210q101 0 164.5 -56.5t63.5 -146.5t-63.5 -146.5t-164.5 -56.5h-305v324h-437v-324zM917 324h-202v-242h202q62 0 101 34t39 87t-39 87t-101 34z" />
    <glyph glyph-name="uni040B" unicode="&#x40b;" horiz-adv-x="933" 
d="M30 700h643v-82h-274v-235q81 45 199 45q135 0 203.5 -60t68.5 -175v-193h-94v191q0 77 -45.5 115t-144.5 38q-113 0 -187 -45v-299h-95v618h-274v82z" />
    <glyph glyph-name="uni040C" unicode="&#x40c;" horiz-adv-x="720" 
d="M183 0h-94v700h94v-299h133l232 299h117l-270 -341l294 -359h-119l-254 318h-133v-318zM283 818l203 106v-85l-203 -82v61z" />
    <glyph glyph-name="uni040D" unicode="&#x40d;" horiz-adv-x="859" 
d="M142 0h-53v700h94v-537l531 533h53v-696h-94v533zM307 923l198 -105v-61l-198 80v86z" />
    <glyph glyph-name="uni040E" unicode="&#x40e;" horiz-adv-x="746" 
d="M23 700h110l248 -424l234 424h108l-332 -584q-70 -123 -176 -123q-48 0 -87 22v78q28 -20 70 -20q71 0 117 84l18 33zM224 865h62q0 -35 24.5 -56.5t63.5 -21.5t64 22t25 56h62q0 -62 -42 -101t-108 -39q-67 0 -109 39t-42 101z" />
    <glyph glyph-name="uni040F" unicode="&#x40f;" horiz-adv-x="834" 
d="M89 0v700h94v-618h467v618h95v-700h-281v-160h-94v160h-281z" />
    <glyph glyph-name="uni0410" unicode="&#x410;" horiz-adv-x="799" 
d="M23 0l354 700h44l355 -700h-106l-76 155h-390l-76 -155h-105zM399 553l-155 -316h310z" />
    <glyph glyph-name="uni0411" unicode="&#x411;" horiz-adv-x="695" 
d="M89 700h491v-82h-397v-204h228q101 0 165 -57.5t64 -149.5t-64 -149.5t-165 -57.5h-322v700zM403 331h-220v-249h220q61 0 100.5 35t39.5 90t-39 89.5t-101 34.5z" />
    <glyph glyph-name="uni0412" unicode="&#x412;" horiz-adv-x="711" 
d="M89 0v700h326q92 0 149.5 -51t57.5 -133q0 -103 -88 -153q54 -23 85 -67.5t31 -103.5q0 -85 -61 -138.5t-158 -53.5h-342zM418 318h-235v-236h235q59 0 97 33t38 85t-38 85t-97 33zM400 618h-217v-221h217q55 0 90 31t35 80q0 48 -35 79t-90 31z" />
    <glyph glyph-name="uni0413" unicode="&#x413;" horiz-adv-x="614" 
d="M89 700h495v-82h-401v-618h-94v700z" />
    <glyph glyph-name="uni0414" unicode="&#x414;" horiz-adv-x="852" 
d="M125 -160h-95v242h71q49 31 70.5 140.5t21.5 357.5v120h529v-618h100v-242h-95v160h-602v-160zM214 82h413v536h-344v-48q0 -371 -69 -488z" />
    <glyph glyph-name="uni0415" unicode="&#x415;" horiz-adv-x="659" 
d="M89 0v700h522v-82h-428v-223h353v-82h-353v-231h433v-82h-527z" />
    <glyph glyph-name="uni0416" unicode="&#x416;" horiz-adv-x="1122" 
d="M31 0l277 359l-260 341h116l224 -299h126v299h94v-299h126l224 299h116l-259 -341l276 -359h-116l-241 318h-126v-318h-94v318h-126l-240 -318h-117z" />
    <glyph glyph-name="uni0417" unicode="&#x417;" horiz-adv-x="679" 
d="M320 -10q-156 0 -254 81v101q84 -95 243 -95q95 0 153.5 34t58.5 93q0 49 -37.5 81.5t-96.5 32.5h-147v79h134q54 0 89.5 31t35.5 78q0 54 -52.5 85.5t-138.5 31.5q-153 0 -237 -95v101q98 81 249 81q126 0 201 -52t75 -142q0 -104 -91 -155q53 -23 83 -67t30 -101
q0 -94 -81 -148.5t-217 -54.5z" />
    <glyph glyph-name="uni0418" unicode="&#x418;" horiz-adv-x="859" 
d="M142 0h-53v700h94v-537l531 533h53v-696h-94v533z" />
    <glyph glyph-name="uni0419" unicode="&#x419;" horiz-adv-x="859" 
d="M142 0h-53v700h94v-537l531 533h53v-696h-94v533zM279 865h62q0 -35 24.5 -56.5t64.5 -21.5q38 0 63 22t25 56h62q0 -62 -42 -101t-108 -39q-67 0 -109 39t-42 101z" />
    <glyph glyph-name="uni041A" unicode="&#x41a;" horiz-adv-x="720" 
d="M89 0v700h94v-299h133l232 299h117l-270 -341l294 -359h-119l-254 318h-133v-318h-94z" />
    <glyph glyph-name="uni041B" unicode="&#x41b;" horiz-adv-x="803" 
d="M28 3v65h20q34 0 57.5 19.5t42.5 72t28.5 156.5t9.5 264v120h529v-700h-95v618h-344v-49q0 -149 -10 -256.5t-26 -168t-42 -95.5t-51 -45t-59 -10q-37 0 -60 9z" />
    <glyph glyph-name="uni041C" unicode="&#x41c;" horiz-adv-x="967" 
d="M183 0h-94v700h54l341 -524l341 526h53v-702h-94v485l-278 -435h-44l-279 435v-485z" />
    <glyph glyph-name="uni041D" unicode="&#x41d;" horiz-adv-x="849" 
d="M183 0h-94v700h94v-305h482v305h95v-700h-95v313h-482v-313z" />
    <glyph glyph-name="uni041E" unicode="&#x41e;" horiz-adv-x="846" 
d="M423 710q161 0 263 -100.5t102 -259.5t-102 -259.5t-263 -100.5t-263 100.5t-102 259.5t102 259.5t263 100.5zM155 350q0 -121 74.5 -197t193.5 -76t193.5 76t74.5 197t-74.5 197t-193.5 76t-193.5 -76t-74.5 -197z" />
    <glyph glyph-name="uni041F" unicode="&#x41f;" horiz-adv-x="836" 
d="M89 0v700h658v-700h-94v618h-470v-618h-94z" />
    <glyph glyph-name="uni0420" unicode="&#x420;" horiz-adv-x="673" 
d="M183 0h-94v700h305q101 0 164.5 -57.5t63.5 -149.5t-63.5 -149.5t-164.5 -57.5h-211v-286zM183 369h203q61 0 100 34.5t39 89.5t-39 90t-100 35h-203v-249z" />
    <glyph glyph-name="uni0421" unicode="&#x421;" horiz-adv-x="720" 
d="M415 -10q-163 0 -266 100.5t-103 259.5t103 259.5t266 100.5q141 0 239 -79v-100q-86 92 -227 92q-126 0 -205 -76t-79 -197t79 -197t205 -76q141 0 227 92v-100q-98 -79 -239 -79z" />
    <glyph glyph-name="uni0422" unicode="&#x422;" horiz-adv-x="703" 
d="M304 618h-274v82h643v-82h-274v-618h-95v618z" />
    <glyph glyph-name="uni0423" unicode="&#x423;" horiz-adv-x="746" 
d="M23 700h110l248 -424l234 424h108l-332 -584q-70 -123 -176 -123q-48 0 -87 22v78q28 -20 70 -20q71 0 117 84l18 33z" />
    <glyph glyph-name="uni0424" unicode="&#x424;" horiz-adv-x="861" 
d="M385 65q-150 0 -244.5 80.5t-94.5 206.5q0 127 94.5 207t244.5 80v71h92v-71q150 0 244.5 -80t94.5 -207q0 -126 -94.5 -206.5t-244.5 -80.5v-75h-92v75zM142 352q0 -88 68 -143.5t175 -55.5v399q-107 0 -175 -56t-68 -144zM719 352q0 88 -67.5 144t-174.5 56v-399
q107 0 174.5 55.5t67.5 143.5z" />
    <glyph glyph-name="uni0425" unicode="&#x425;" horiz-adv-x="762" 
d="M148 0h-117l289 361l-270 339h117l214 -276l214 276h117l-270 -339l290 -361h-118l-233 297z" />
    <glyph glyph-name="uni0426" unicode="&#x426;" horiz-adv-x="868" 
d="M89 700h94v-618h460v618h94v-618h100v-242h-94v160h-654v700z" />
    <glyph glyph-name="uni0427" unicode="&#x427;" horiz-adv-x="740" 
d="M63 485v215h95v-213q0 -153 207 -153q114 0 192 45v321h94v-700h-94v295q-82 -45 -203 -45q-141 0 -216 60.5t-75 174.5z" />
    <glyph glyph-name="uni0428" unicode="&#x428;" horiz-adv-x="1205" 
d="M89 0v700h94v-618h372v618h95v-618h372v618h94v-700h-1027z" />
    <glyph glyph-name="uni0429" unicode="&#x429;" horiz-adv-x="1246" 
d="M89 700h94v-618h372v618h95v-618h372v618h94v-618h100v-242h-94v160h-1033v700z" />
    <glyph glyph-name="uni042A" unicode="&#x42a;" horiz-adv-x="888" 
d="M30 700h369v-286h210q101 0 165 -57.5t64 -149.5t-64 -149.5t-165 -57.5h-305v618h-274v82zM399 82h202q61 0 100.5 35t39.5 90t-39 89.5t-101 34.5h-202v-249z" />
    <glyph glyph-name="uni042B" unicode="&#x42b;" horiz-adv-x="930" 
d="M89 0v700h94v-286h211q101 0 164.5 -57.5t63.5 -149.5t-63.5 -149.5t-164.5 -57.5h-305zM183 82h203q61 0 100 35t39 90t-39 89.5t-100 34.5h-203v-249zM746 0v700h95v-700h-95z" />
    <glyph glyph-name="uni042C" unicode="&#x42c;" horiz-adv-x="673" 
d="M89 0v700h94v-286h211q101 0 164.5 -57.5t63.5 -149.5t-63.5 -149.5t-164.5 -57.5h-305zM386 331h-203v-249h203q61 0 100 35t39 90t-39 89.5t-100 34.5z" />
    <glyph glyph-name="uni042D" unicode="&#x42d;" horiz-adv-x="720" 
d="M66 169q84 -92 226 -92q116 0 193 65t90 171h-317v82h316q-15 103 -91.5 165.5t-190.5 62.5q-142 0 -226 -92v100q98 79 238 79q164 0 267 -100.5t103 -259.5t-103 -259.5t-267 -100.5q-140 0 -238 79v100z" />
    <glyph glyph-name="uni042E" unicode="&#x42e;" horiz-adv-x="1105" 
d="M89 0v700h94v-305h156q14 141 111 228t242 87q157 0 256 -100.5t99 -259.5t-99 -259.5t-256 -100.5q-147 0 -244 89t-109 234h-156v-313h-94zM434 350q0 -121 72 -197t186 -76t186 76t72 197t-72 197t-186 76t-186 -76t-72 -197z" />
    <glyph glyph-name="uni042F" unicode="&#x42f;" horiz-adv-x="718" 
d="M51 0l189 285q-82 14 -130.5 69.5t-48.5 136.5q0 92 63.5 150.5t164.5 58.5h340v-700h-94v281h-199l-173 -281h-112zM297 618q-61 0 -100 -35.5t-39 -91.5t38.5 -91.5t100.5 -35.5h238v254h-238z" />
    <glyph glyph-name="uni0430" unicode="&#x430;" horiz-adv-x="556" 
d="M241 -7q-89 0 -140 38.5t-51 104.5q0 70 57 110t158 40q46 0 114 -10v25q0 106 -143 106q-95 0 -149 -43v81q65 42 165 42q105 0 161 -45.5t56 -130.5v-205q0 -44 60 -44v-59q-18 -9 -46 -9q-61 0 -90 43q-62 -44 -152 -44zM283 213q-67 0 -105 -20.5t-38 -55.5
q0 -32 30.5 -50.5t84.5 -18.5q76 0 124 44v92q-65 9 -96 9z" />
    <glyph glyph-name="uni0431" unicode="&#x431;" horiz-adv-x="611" 
d="M306 707l218 23v-85l-206 -24q-79 -8 -121 -58.5t-52 -148.5q60 73 172 73q108 0 177 -69.5t69 -178.5q0 -110 -69 -179.5t-178 -69.5q-125 0 -194 96t-69 270q0 324 253 351zM144 318q6 -117 51 -181t121 -64q68 0 111.5 46.5t43.5 119.5q0 77 -48 125t-123 48
q-107 0 -156 -94z" />
    <glyph glyph-name="uni0432" unicode="&#x432;" horiz-adv-x="560" 
d="M78 0v480h259q67 0 109 -36.5t42 -95.5q0 -63 -48 -100q68 -36 68 -113q0 -59 -42.5 -97t-110.5 -38h-277zM339 206h-172v-133h172q36 0 59 18.5t23 48.5q0 29 -23 47.5t-59 18.5zM324 407h-157v-128h157q35 0 57 18t22 47q0 28 -22 45.5t-57 17.5z" />
    <glyph glyph-name="uni0433" unicode="&#x433;" horiz-adv-x="449" 
d="M79 0v480h344v-78h-255v-402h-89z" />
    <glyph glyph-name="uni0434" unicode="&#x434;" horiz-adv-x="647" 
d="M33 -135v213h59q64 59 64 328v74h378v-402h80v-213h-89v135h-402v-135h-90zM188 78h257v324h-207v-29q0 -205 -50 -295z" />
    <glyph glyph-name="uni0435" unicode="&#x435;" horiz-adv-x="579" 
d="M291 490q112 0 177 -77.5t57 -201.5h-386q13 -65 67.5 -102.5t138.5 -37.5q97 0 157 51v-84q-72 -48 -171 -48q-128 0 -205.5 69.5t-77.5 184.5q0 108 67.5 177t175.5 69zM138 284h299q-5 58 -45 93t-101 35q-60 0 -101 -35t-52 -93z" />
    <glyph glyph-name="uni0436" unicode="&#x436;" horiz-adv-x="826" 
d="M26 0l189 244l-176 236h102l145 -197h83v197h88v-197h83l145 197h102l-176 -236l189 -244h-104l-156 206h-83v-206h-88v206h-83l-156 -206h-104z" />
    <glyph glyph-name="uni0437" unicode="&#x437;" horiz-adv-x="507" 
d="M214 68q70 0 111.5 20t41.5 54q0 28 -23.5 46t-60.5 18h-116v73h103q37 0 60.5 17.5t23.5 44.5q0 33 -38 52t-103 19q-99 0 -154 -50v82q67 46 168 46q98 0 155 -38t57 -105q0 -61 -50 -100q66 -35 66 -110q0 -68 -61.5 -107.5t-166.5 -39.5q-107 0 -172 46v82
q55 -50 159 -50z" />
    <glyph glyph-name="uni0438" unicode="&#x438;" horiz-adv-x="629" 
d="M132 0h-53v480h89v-331l329 331h53v-480h-89v331z" />
    <glyph glyph-name="uni0439" unicode="&#x439;" horiz-adv-x="629" 
d="M132 0h-53v480h89v-331l329 331h53v-480h-89v331zM226 690q0 -34 25 -56t64 -22t63.5 21.5t24.5 56.5h62q0 -62 -42 -101t-108 -39q-67 0 -109 39t-42 101h62z" />
    <glyph glyph-name="uni043A" unicode="&#x43a;" horiz-adv-x="554" 
d="M79 0v480h89v-197h88l155 197h104l-188 -236l201 -244h-106l-166 206h-88v-206h-89z" />
    <glyph glyph-name="uni043B" unicode="&#x43b;" horiz-adv-x="598" 
d="M23 3v58h16q33 0 53.5 26t33.5 103t13 211v79h381v-480h-90v402h-209v-34q0 -97 -9 -167.5t-22.5 -109.5t-34 -61.5t-39.5 -29t-43 -6.5q-31 0 -50 9z" />
    <glyph glyph-name="uni043C" unicode="&#x43c;" horiz-adv-x="707" 
d="M164 0h-85v480h53l222 -334l221 334h54v-480h-85v294l-168 -259h-44l-168 259v-294z" />
    <glyph glyph-name="uni043D" unicode="&#x43d;" horiz-adv-x="621" 
d="M168 0h-89v480h89v-197h285v197h90v-480h-90v205h-285v-205z" />
    <glyph glyph-name="uni043E" unicode="&#x43e;" 
d="M303 490q112 0 183.5 -70t71.5 -180t-71.5 -180t-183.5 -70t-183.5 70t-71.5 180t71.5 180t183.5 70zM140 240q0 -74 45.5 -120.5t117.5 -46.5t117.5 46.5t45.5 120.5t-45.5 120.5t-117.5 46.5t-117.5 -46.5t-45.5 -120.5z" />
    <glyph glyph-name="uni043F" unicode="&#x43f;" horiz-adv-x="611" 
d="M79 480h454v-480h-90v402h-275v-402h-89v480z" />
    <glyph glyph-name="uni0440" unicode="&#x440;" horiz-adv-x="593" 
d="M79 -200v680h80l4 -31q56 39 135 39q108 0 176 -69t68 -178q0 -110 -67.5 -179t-176.5 -69q-75 0 -130 35v-228h-89zM282 410q-69 0 -114 -42v-255q45 -42 114 -42q75 0 121.5 47.5t46.5 122.5t-46.5 122t-121.5 47z" />
    <glyph glyph-name="uni0441" unicode="&#x441;" horiz-adv-x="514" 
d="M308 -10q-115 0 -187.5 70t-72.5 180t72.5 180t187.5 70q86 0 151 -43v-85q-54 48 -134 48q-82 0 -133.5 -47.5t-51.5 -122.5t51.5 -122.5t133.5 -47.5q80 0 134 48v-85q-65 -43 -151 -43z" />
    <glyph glyph-name="uni0442" unicode="&#x442;" horiz-adv-x="503" 
d="M207 402h-181v78h452v-78h-182v-402h-89v402z" />
    <glyph glyph-name="uni0443" unicode="&#x443;" horiz-adv-x="567" 
d="M239 45l-221 435h95l171 -341l169 341h95l-344 -680h-97z" />
    <glyph glyph-name="uni0444" unicode="&#x444;" horiz-adv-x="720" 
d="M316 -10q-119 0 -193.5 70t-74.5 181q0 110 75 179.5t193 69.5v230h87v-230q118 0 193 -69.5t75 -179.5q0 -111 -74.5 -181t-193.5 -70v-190h-87v190zM579 241q0 74 -49 120t-127 46v-334q78 0 127 46.5t49 121.5zM316 407q-77 0 -126.5 -46.5t-49.5 -119.5
q0 -75 49 -121.5t127 -46.5v334z" />
    <glyph glyph-name="uni0445" unicode="&#x445;" horiz-adv-x="568" 
d="M136 0h-108l200 244l-194 236h108l142 -178l142 178h107l-193 -236l199 -244h-107l-148 185z" />
    <glyph glyph-name="uni0446" unicode="&#x446;" horiz-adv-x="643" 
d="M523 0h-444v480h89v-402h275v402h90v-402h80v-218h-90v140z" />
    <glyph glyph-name="uni0447" unicode="&#x447;" horiz-adv-x="581" 
d="M61 350v130h90v-131q0 -56 31.5 -82t97.5 -26q85 0 132 37v202h90v-480h-90v199q-59 -37 -146 -37q-100 0 -152.5 47.5t-52.5 140.5z" />
    <glyph glyph-name="uni0448" unicode="&#x448;" horiz-adv-x="910" 
d="M79 480h89v-402h242v402h90v-402h241v402h90v-480h-752v480z" />
    <glyph glyph-name="uni0449" unicode="&#x449;" horiz-adv-x="941" 
d="M79 480h89v-402h242v402h90v-402h241v402h90v-402h80v-218h-90v140h-742v480z" />
    <glyph glyph-name="uni044A" unicode="&#x44a;" horiz-adv-x="665" 
d="M26 402v78h270v-176h153q76 0 124 -42.5t48 -109.5q0 -68 -48 -110t-124 -42h-242v402h-181zM444 227h-148v-151h148q38 0 61.5 21t23.5 55q0 33 -24 54t-61 21z" />
    <glyph glyph-name="uni044B" unicode="&#x44b;" horiz-adv-x="748" 
d="M79 0v480h89v-176h153q76 0 124 -42.5t48 -109.5q0 -68 -48 -110t-124 -42h-242zM580 0v480h89v-480h-89zM316 227h-148v-151h148q38 0 61.5 21t23.5 55q0 33 -24 54t-61 21z" />
    <glyph glyph-name="uni044C" unicode="&#x44c;" horiz-adv-x="537" 
d="M79 480h89v-176h153q76 0 124 -42.5t48 -109.5q0 -68 -48 -110t-124 -42h-242v480zM316 227h-148v-151h148q38 0 61.5 21t23.5 55q0 33 -24 54t-61 21z" />
    <glyph glyph-name="uni044D" unicode="&#x44d;" horiz-adv-x="512" 
d="M55 116q53 -48 135 -48q73 0 123.5 37.5t61.5 100.5h-210v73h209q-13 61 -62.5 97t-121.5 36q-82 0 -135 -48v83q65 43 150 43q115 0 187.5 -70t72.5 -180t-72.5 -180t-187.5 -70q-85 0 -150 43v83z" />
    <glyph glyph-name="uni044E" unicode="&#x44e;" horiz-adv-x="816" 
d="M79 0v480h89v-197h113q14 94 79.5 150.5t162.5 56.5q108 0 176 -70t68 -180t-68 -180t-176 -70q-99 0 -165.5 59t-77.5 156h-112v-205h-89zM370 240q0 -74 42.5 -120.5t110.5 -46.5t110 46.5t42 120.5t-42 120.5t-110 46.5t-110.5 -46.5t-42.5 -120.5z" />
    <glyph glyph-name="uni044F" unicode="&#x44f;" horiz-adv-x="575" 
d="M50 0l136 184q-55 14 -87.5 52.5t-32.5 92.5q0 68 49 109.5t128 41.5h254v-480h-90v178h-122l-131 -178h-104zM158 327q0 -34 24 -55.5t63 -21.5h162v152h-162q-39 0 -63 -21t-24 -54z" />
    <glyph glyph-name="uni0450" unicode="&#x450;" horiz-adv-x="579" 
d="M48 244q0 108 67.5 177t175.5 69q112 0 177 -77.5t57 -201.5h-386q13 -65 67.5 -102.5t138.5 -37.5q97 0 157 51v-84q-72 -48 -171 -48q-128 0 -205.5 69.5t-77.5 184.5zM138 284h299q-5 58 -45 93t-101 35q-60 0 -101 -35t-52 -93zM169 723l198 -105v-60l-198 80v85z
" />
    <glyph glyph-name="uni0451" unicode="&#x451;" horiz-adv-x="579" 
d="M48 244q0 108 67.5 177t175.5 69q112 0 177 -77.5t57 -201.5h-386q13 -65 67.5 -102.5t138.5 -37.5q97 0 157 51v-84q-72 -48 -171 -48q-128 0 -205.5 69.5t-77.5 184.5zM138 284h299q-5 58 -45 93t-101 35q-60 0 -101 -35t-52 -93zM398 689q23 0 37 -14t14 -36
q0 -23 -14 -37.5t-37 -14.5t-37.5 14.5t-14.5 37.5q0 22 14.5 36t37.5 14zM131 639q0 22 14 36t37 14t37.5 -14t14.5 -36q0 -23 -14.5 -37.5t-37.5 -14.5t-37 14.5t-14 37.5z" />
    <glyph glyph-name="uni0452" unicode="&#x452;" horiz-adv-x="611" 
d="M168 629h141v-58h-141v-132q58 50 145 50q103 0 163.5 -58.5t60.5 -159.5v-360q0 -51 -33.5 -84t-85.5 -33q-28 0 -48 9v59q36 0 57 17t21 46v346q0 65 -40.5 102.5t-109.5 37.5q-78 0 -130 -57v-354h-89v571h-76v58h76v91h89v-91z" />
    <glyph glyph-name="uni0453" unicode="&#x453;" horiz-adv-x="449" 
d="M79 0v480h344v-78h-255v-402h-89zM174 557v61l203 106v-85z" />
    <glyph glyph-name="uni0454" unicode="&#x454;" horiz-adv-x="512" 
d="M48 240q0 110 72 180t187 70q86 0 151 -43v-83q-53 48 -136 48q-72 0 -121 -36t-62 -97h246v-73h-247q11 -63 61 -100.5t123 -37.5q83 0 136 48v-83q-65 -43 -151 -43q-115 0 -187 70t-72 180z" />
    <glyph glyph-name="uni0455" unicode="&#x455;" horiz-adv-x="508" 
d="M56 353q0 66 49.5 101.5t143.5 35.5q111 0 169 -50v-80q-50 48 -159 48q-118 0 -118 -54q0 -24 28.5 -40t90.5 -27q101 -18 148.5 -55t47.5 -99q0 -69 -55 -106t-160 -37q-116 0 -182 50v80q59 -48 175 -48q63 0 99.5 16t36.5 44q0 24 -28.5 40.5t-94.5 28.5
q-99 18 -145 54.5t-46 97.5z" />
    <glyph glyph-name="uni0456" unicode="&#x456;" horiz-adv-x="247" 
d="M79 0v480h89v-480h-89zM64 645q0 26 16.5 42.5t42.5 16.5t42.5 -16.5t16.5 -42.5t-16.5 -42t-42.5 -16t-42.5 16t-16.5 42z" />
    <glyph glyph-name="uni0457" unicode="&#x457;" horiz-adv-x="247" 
d="M79 480h89v-480h-89v480zM219 592q-23 0 -37.5 14.5t-14.5 37.5t14.5 37t37.5 14t37 -14.5t14 -36.5q0 -23 -14 -37.5t-37 -14.5zM-22 644q0 22 14 36.5t37 14.5t37.5 -14t14.5 -37t-14.5 -37.5t-37.5 -14.5t-37 14.5t-14 37.5z" />
    <glyph glyph-name="uni0458" unicode="&#x458;" horiz-adv-x="247" 
d="M1 -197v59q36 0 57 17t21 46v555h89v-569q0 -51 -33.5 -84t-85.5 -33q-29 0 -48 9zM64 645q0 26 16.5 42.5t42.5 16.5t42.5 -16.5t16.5 -42.5t-16.5 -42t-42.5 -16t-42.5 16t-16.5 42z" />
    <glyph glyph-name="uni0459" unicode="&#x459;" horiz-adv-x="888" 
d="M23 61h16q33 0 53.5 26t33.5 103t13 211v79h381v-176h152q76 0 124 -42.5t48 -109.5q0 -68 -48 -110t-124 -42h-242v402h-209v-34q0 -97 -9 -167.5t-22.5 -109.5t-34 -61.5t-39.5 -29t-43 -6.5q-31 0 -50 9v58zM668 227h-148v-151h148q37 0 60.5 21t23.5 55
q0 33 -23.5 54t-60.5 21z" />
    <glyph glyph-name="uni045A" unicode="&#x45a;" horiz-adv-x="890" 
d="M79 480h89v-187h265v187h89v-187h155q76 0 123 -40.5t47 -105.5t-47 -106t-123 -41h-244v219h-265v-219h-89v480zM673 219h-151v-143h151q36 0 59 20t23 52q0 31 -23 51t-59 20z" />
    <glyph glyph-name="uni045B" unicode="&#x45b;" horiz-adv-x="611" 
d="M79 571h-76v58h76v91h89v-91h141v-58h-141v-132q58 50 145 50q103 0 163.5 -58.5t60.5 -159.5v-271h-89v271q0 65 -40.5 102.5t-109.5 37.5q-78 0 -130 -57v-354h-89v571z" />
    <glyph glyph-name="uni045C" unicode="&#x45c;" horiz-adv-x="554" 
d="M168 0h-89v480h89v-197h88l155 197h104l-188 -236l201 -244h-106l-166 206h-88v-206zM216 557v61l203 106v-85z" />
    <glyph glyph-name="uni045D" unicode="&#x45d;" horiz-adv-x="629" 
d="M132 0h-53v480h89v-331l329 331h53v-480h-89v331zM193 637v86l199 -105v-61z" />
    <glyph glyph-name="uni045E" unicode="&#x45e;" horiz-adv-x="567" 
d="M239 45l-221 435h95l171 -341l169 341h95l-344 -680h-97zM133 690h62q0 -35 24.5 -56.5t64.5 -21.5q38 0 63 22t25 56h62q0 -62 -42 -101t-108 -39q-67 0 -109 39t-42 101z" />
    <glyph glyph-name="uni045F" unicode="&#x45f;" horiz-adv-x="609" 
d="M260 0h-181v480h89v-402h272v402h90v-480h-181v-140h-89v140z" />
    <glyph glyph-name="uni0490" unicode="&#x490;" horiz-adv-x="614" 
d="M183 0h-94v700h393v150h94v-232h-393v-618z" />
    <glyph glyph-name="uni0491" unicode="&#x491;" horiz-adv-x="449" 
d="M79 0v480h250v125h89v-203h-250v-402h-89z" />
    <glyph glyph-name="uni04D8" unicode="&#x4d8;" horiz-adv-x="805" 
d="M60 382h590q-14 110 -101 175t-220 65q-145 0 -235 -78v87q105 79 256 79q178 0 287.5 -100.5t109.5 -264.5q0 -155 -96.5 -254t-249.5 -99q-162 0 -257 108.5t-84 281.5zM396 79q104 0 173 62t82 161h-494q6 -102 72.5 -162.5t166.5 -60.5z" />
    <glyph glyph-name="uni04D9" unicode="&#x4d9;" horiz-adv-x="579" 
d="M54 269h386q-13 65 -67.5 102.5t-138.5 37.5q-97 0 -157 -51v84q72 48 171 48q128 0 205.5 -69.5t77.5 -184.5q0 -108 -67.5 -177t-175.5 -69q-112 0 -177 77.5t-57 201.5zM288 68q60 0 101 35t52 93h-299q5 -58 45 -93t101 -35z" />
    <glyph glyph-name="Wgrave" unicode="&#x1e80;" horiz-adv-x="1146" 
d="M23 700h103l208 -533l217 533h44l217 -533l209 533h102l-286 -700h-45l-219 536l-219 -536h-44zM452 837v86l198 -105v-61z" />
    <glyph glyph-name="wgrave" unicode="&#x1e81;" horiz-adv-x="814" 
d="M18 480h93l137 -334l137 334h44l138 -334l136 334h93l-207 -480h-45l-137 335l-137 -335h-45zM286 637v86l198 -105v-61z" />
    <glyph glyph-name="Wacute" unicode="&#x1e82;" horiz-adv-x="1146" 
d="M23 700h103l208 -533l217 533h44l217 -533l209 533h102l-286 -700h-45l-219 536l-219 -536h-44zM496 818l203 106v-85l-203 -82v61z" />
    <glyph glyph-name="wacute" unicode="&#x1e83;" horiz-adv-x="814" 
d="M18 480h93l137 -334l137 334h44l138 -334l136 334h93l-207 -480h-45l-137 335l-137 -335h-45zM331 618l203 106v-85l-203 -82v61z" />
    <glyph glyph-name="Wdieresis" unicode="&#x1e84;" horiz-adv-x="1146" 
d="M23 700h103l208 -533l217 533h44l217 -533l209 533h102l-286 -700h-45l-219 536l-219 -536h-44zM681 890q23 0 37 -14t14 -37t-14 -37.5t-37 -14.5t-37.5 14.5t-14.5 37.5t14.5 37t37.5 14zM414 839q0 23 14.5 37t37.5 14q22 0 36.5 -14t14.5 -37t-14 -37.5t-37 -14.5
t-37.5 14.5t-14.5 37.5z" />
    <glyph glyph-name="wdieresis" unicode="&#x1e85;" horiz-adv-x="814" 
d="M18 480h93l137 -334l137 334h44l138 -334l136 334h93l-207 -480h-45l-137 335l-137 -335h-45zM464 639q0 23 14 37t37 14t37.5 -14t14.5 -37t-14.5 -37.5t-37.5 -14.5t-37 14.5t-14 37.5zM248 639q0 23 14.5 37t37.5 14q22 0 36.5 -14t14.5 -37t-14 -37.5t-37 -14.5
t-37.5 14.5t-14.5 37.5z" />
    <glyph glyph-name="Germandbls" unicode="&#x1e9e;" horiz-adv-x="759" 
d="M89 484q0 95 59.5 155.5t153.5 60.5h364v-44l-178 -244q96 -14 155.5 -74t59.5 -147q0 -89 -64 -144t-169 -55q-117 0 -191 71v81q65 -65 172 -65q73 0 117 32.5t44 84.5q0 64 -67.5 106t-175.5 47v44l165 225h-207q-64 0 -104 -41t-40 -106v-471h-94v484z" />
    <glyph glyph-name="Ygrave" unicode="&#x1ef2;" horiz-adv-x="719" 
d="M312 297l-291 403h115l223 -317l224 317h115l-292 -403v-297h-94v297zM238 837v86l198 -105v-61z" />
    <glyph glyph-name="ygrave" unicode="&#x1ef3;" horiz-adv-x="567" 
d="M18 480h95l171 -341l169 341h95l-344 -680h-97l132 245zM162 723l198 -105v-61l-198 80v86z" />
    <glyph glyph-name="figuredash" unicode="&#x2012;" horiz-adv-x="620" 
d="M96 311v78h428v-78h-428z" />
    <glyph glyph-name="endash" unicode="&#x2013;" horiz-adv-x="500" 
d="M66 256v58h368v-58h-368z" />
    <glyph glyph-name="emdash" unicode="&#x2014;" horiz-adv-x="1000" 
d="M66 256v58h868v-58h-868z" />
    <glyph glyph-name="quoteleft" unicode="&#x2018;" horiz-adv-x="192" 
d="M45 590q0 84 71 140h52q-49 -53 -49 -102q0 -18 14.5 -36t14.5 -34q0 -20 -13 -33t-34 -13q-27 0 -41.5 21.5t-14.5 56.5z" />
    <glyph glyph-name="quoteright" unicode="&#x2019;" horiz-adv-x="192" 
d="M76 512h-52q49 55 49 102q0 18 -14.5 36t-14.5 34q0 20 13 33t34 13q27 0 41.5 -21.5t14.5 -56.5q0 -84 -71 -140z" />
    <glyph glyph-name="quotesinglbase" unicode="&#x201a;" horiz-adv-x="192" 
d="M76 -116h-52q49 55 49 101q0 19 -14.5 36.5t-14.5 34.5q0 20 13 33t34 13q27 0 41.5 -22t14.5 -57q0 -83 -71 -139z" />
    <glyph glyph-name="quotereversed" unicode="&#x201b;" horiz-adv-x="192" 
d="M45 652q0 35 14.5 56.5t41.5 21.5q21 0 34 -13t13 -33q0 -16 -14.5 -34t-14.5 -36q0 -49 49 -102h-52q-71 56 -71 140z" />
    <glyph glyph-name="quotedblleft" unicode="&#x201c;" horiz-adv-x="335" 
d="M244 512q-27 0 -41.5 21.5t-14.5 56.5q0 84 71 140h53q-49 -53 -49 -102q0 -18 14 -36t14 -34q0 -20 -12.5 -33t-34.5 -13zM101 512q-27 0 -41.5 21.5t-14.5 56.5q0 84 71 140h52q-49 -53 -49 -102q0 -18 14.5 -36t14.5 -34q0 -20 -13 -33t-34 -13z" />
    <glyph glyph-name="quotedblright" unicode="&#x201d;" horiz-adv-x="335" 
d="M24 512q49 55 49 102q0 18 -14.5 36t-14.5 34q0 20 13 33t34 13q27 0 41.5 -21.5t14.5 -56.5q0 -84 -71 -140h-52zM167 512q49 53 49 102q0 18 -14 36t-14 34q0 20 13 33t34 13q27 0 41 -21.5t14 -56.5q0 -85 -70 -140h-53z" />
    <glyph glyph-name="quotedblbase" unicode="&#x201e;" horiz-adv-x="335" 
d="M24 -116q49 55 49 101q0 19 -14.5 36.5t-14.5 34.5q0 20 13 33t34 13q27 0 41.5 -22t14.5 -57q0 -83 -71 -139h-52zM167 -116q49 53 49 101q0 19 -14 36.5t-14 34.5q0 20 13 33t34 13q27 0 41 -22t14 -57q0 -84 -70 -139h-53z" />
    <glyph glyph-name="uni201F" unicode="&#x201f;" horiz-adv-x="335" 
d="M188 652q0 35 14.5 56.5t41.5 21.5q22 0 34.5 -13t12.5 -33q0 -16 -14 -34t-14 -36q0 -49 49 -102h-53q-71 56 -71 140zM45 652q0 35 14.5 56.5t41.5 21.5q21 0 34 -13t13 -33q0 -16 -14.5 -34t-14.5 -36q0 -49 49 -102h-52q-71 56 -71 140z" />
    <glyph glyph-name="dagger" unicode="&#x2020;" horiz-adv-x="390" 
d="M166 521h-120v59h120v120h58v-120h121v-59h-121v-321h-58v321z" />
    <glyph glyph-name="daggerdbl" unicode="&#x2021;" horiz-adv-x="390" 
d="M224 580h121v-59h-121v-142h121v-59h-121v-120h-58v120h-120v59h120v142h-120v59h120v120h58v-120z" />
    <glyph glyph-name="bullet" unicode="&#x2022;" horiz-adv-x="317" 
d="M44 350q0 51 32 82.5t83 31.5q50 0 82 -31.5t32 -82.5t-32 -82.5t-82 -31.5q-51 0 -83 31.5t-32 82.5z" />
    <glyph glyph-name="ellipsis" unicode="&#x2026;" horiz-adv-x="617" 
d="M455 49q0 26 16.5 42t42.5 16t42.5 -16t16.5 -42t-16.5 -42.5t-42.5 -16.5t-42.5 16.5t-16.5 42.5zM44 49q0 26 16.5 42t42.5 16t42.5 -16t16.5 -42t-16.5 -42.5t-42.5 -16.5t-42.5 16.5t-16.5 42.5zM309 -10q-26 0 -42.5 16.5t-16.5 42.5t16.5 42t42.5 16t42 -16t16 -42
t-16 -42.5t-42 -16.5z" />
    <glyph glyph-name="perthousand" unicode="&#x2030;" horiz-adv-x="1204" 
d="M649 -10q-68 0 -111.5 54t-43.5 139t43.5 138.5t111.5 53.5t111.5 -53.5t43.5 -138.5t-43.5 -139t-111.5 -54zM849 183q0 85 43.5 138.5t111.5 53.5t111.5 -53.5t43.5 -138.5t-43.5 -139t-111.5 -54t-111.5 54t-43.5 139zM200 325q-68 0 -111 53.5t-43 138.5t43 139
t111 54q69 0 112 -54t43 -139t-43 -138.5t-112 -53.5zM144 0l489 700h71l-489 -700h-71zM109 517q0 -58 25.5 -94.5t65.5 -36.5q41 0 66.5 36.5t25.5 94.5q0 59 -25.5 95.5t-66.5 36.5q-40 0 -65.5 -36.5t-25.5 -95.5zM913 183q0 -59 25.5 -95.5t65.5 -36.5t65.5 36.5
t25.5 95.5q0 58 -25.5 94.5t-65.5 36.5t-65.5 -36.5t-25.5 -94.5zM558 183q0 -59 25.5 -95.5t65.5 -36.5t65.5 36.5t25.5 95.5q0 58 -25.5 94.5t-65.5 36.5t-65.5 -36.5t-25.5 -94.5z" />
    <glyph glyph-name="guilsinglleft" unicode="&#x2039;" horiz-adv-x="248" 
d="M137 115l-97 170l97 170h58l-72 -170l72 -170h-58z" />
    <glyph glyph-name="guilsinglright" unicode="&#x203a;" horiz-adv-x="248" 
d="M112 115h-59l72 170l-72 170h59l96 -170z" />
    <glyph glyph-name="fraction" unicode="&#x2044;" horiz-adv-x="560" 
d="M71 0h-71l489 700h71z" />
    <glyph glyph-name="Euro" unicode="&#x20ac;" horiz-adv-x="795" 
d="M239 461h317v-58h-334q-4 -34 -4 -53q0 -28 4 -49h334v-59h-318q30 -77 100 -121t165 -44q142 0 226 92v-100q-98 -79 -238 -79q-133 0 -228 68t-128 184h-94v59h83q-3 24 -3 49q0 28 3 53h-83v58h95q33 114 128 181.5t227 67.5q140 0 238 -79v-100q-84 92 -226 92
q-94 0 -163.5 -43.5t-100.5 -118.5z" />
    <glyph glyph-name="uni20B4" unicode="&#x20b4;" horiz-adv-x="640" 
d="M48 245v58h544v-58h-398q-20 -25 -20 -55q0 -52 47.5 -81.5t131.5 -29.5q132 0 209 65v-81q-86 -71 -226 -71q-122 0 -187 50t-65 144q0 32 15 59h-51zM48 405v59h399q23 23 23 58q0 48 -42.5 74.5t-119.5 26.5q-125 0 -192 -65v80q75 72 210 72q113 0 173.5 -48.5
t60.5 -138.5q0 -35 -14 -59h46v-59h-544z" />
    <glyph glyph-name="uni2116" unicode="&#x2116;" horiz-adv-x="1239" 
d="M181 0h-92v696h53l533 -530v534h92v-700h-53l-533 529v-529zM1023 325q-68 0 -111 53.5t-43 138.5t43 139t111 54q69 0 112 -54t43 -139t-43 -138.5t-112 -53.5zM932 517q0 -58 25.5 -94.5t65.5 -36.5q41 0 66.5 36.5t25.5 94.5q0 59 -25.5 95.5t-66.5 36.5
q-40 0 -65.5 -36.5t-25.5 -95.5zM876 181v58h294v-58h-294z" />
    <glyph glyph-name="uni2117" unicode="&#x2117;" horiz-adv-x="826" 
d="M413 -10q-149 0 -254.5 105.5t-105.5 254.5t105.5 254.5t254.5 105.5t254.5 -105.5t105.5 -254.5t-105.5 -254.5t-254.5 -105.5zM112 350q0 -125 88 -213t213 -88t213.5 88t88.5 213t-88.5 213t-213.5 88t-213 -88t-88 -213zM358 175h-59v350h157q51 0 83.5 -29.5
t32.5 -76.5t-32.5 -76.5t-83.5 -29.5h-98v-138zM450 474h-92v-110h92q28 0 45 15.5t17 39.5t-17 39.5t-45 15.5z" />
    <glyph glyph-name="trademark" unicode="&#x2122;" horiz-adv-x="841" 
d="M394 700h34l167 -249l168 250h33v-351h-59v220l-128 -195h-28l-128 194v-219h-59v350zM19 649v51h321v-51h-131v-299h-58v299h-132z" />
    <glyph glyph-name="estimated" unicode="&#x212e;" horiz-adv-x="817" 
d="M53 350q0 147 104.5 251t250.5 104q142 0 245 -98.5t110 -241.5v-30h-585v-215q95 -95 230 -95q85 0 158 40.5t116 109.5h35q-47 -82 -129.5 -131t-179.5 -49q-146 0 -250.5 104t-104.5 251zM408 675q-135 0 -230 -95v-215h460v215q-95 95 -230 95z" />
    <glyph glyph-name="uni2150" unicode="&#x2150;" horiz-adv-x="765" 
d="M65 0l488 700h72l-489 -700h-71zM458 385h281v-26l-170 -359h-56l160 339h-215v46zM123 636l-82 -37v54l106 47h29v-385h-53v321z" />
    <glyph glyph-name="uni2151" unicode="&#x2151;" horiz-adv-x="771" 
d="M448 267q0 56 37 90t97 34q71 0 111.5 -50t40.5 -139q0 -96 -48 -152t-131 -56q-50 0 -89 21v51q34 -24 79 -24q60 0 95 38t39 106q-29 -45 -96 -45q-60 0 -97.5 35t-37.5 91zM136 0h-71l488 700h72zM123 636l-82 -37v54l106 47h29v-385h-53v321zM592 186q61 0 85 55
q-7 48 -31.5 74.5t-62.5 26.5q-36 0 -58 -21t-22 -54q0 -36 25 -58.5t64 -22.5z" />
    <glyph glyph-name="uni2152" unicode="&#x2152;" horiz-adv-x="1023" 
d="M676 193q0 87 43.5 142.5t111.5 55.5t111.5 -55.5t43.5 -142.5q0 -88 -43.5 -143.5t-111.5 -55.5t-111.5 55.5t-43.5 143.5zM831 43q44 0 72 42t28 108q0 65 -28 107t-72 42t-71.5 -41.5t-27.5 -107.5t27.5 -108t71.5 -42zM136 0h-71l488 700h72zM451 284v54l106 47h29
v-385h-53v321zM41 599v54l106 47h29v-385h-53v321z" />
    <glyph glyph-name="onethird" unicode="&#x2153;" horiz-adv-x="756" 
d="M136 0h-71l488 700h72zM450 37v57q41 -51 114 -51q43 0 70 18.5t27 50.5q0 27 -18.5 44.5t-47.5 17.5h-49v45h42q26 0 43.5 16.5t17.5 41.5q0 30 -24 47.5t-62 17.5q-70 0 -110 -51v57q46 43 117 43q61 0 97.5 -29t36.5 -79q0 -57 -41 -84q53 -27 53 -92q0 -53 -40 -83
t-105 -30q-73 0 -121 43zM41 653l106 47h29v-385h-53v321l-82 -37v54z" />
    <glyph glyph-name="twothirds" unicode="&#x2154;" horiz-adv-x="829" 
d="M209 0h-71l489 700h71zM524 37v57q40 -51 113 -51q43 0 70 18.5t27 50.5q0 27 -18.5 44.5t-46.5 17.5h-49v45h41q26 0 43.5 16.5t17.5 41.5q0 30 -23.5 47.5t-62.5 17.5q-70 0 -110 -51v57q48 43 117 43q61 0 97.5 -29t36.5 -79q0 -57 -41 -84q53 -27 53 -92
q0 -53 -39.5 -83t-105.5 -30q-74 0 -120 43zM37 315v26l143 153q56 58 56 102q0 27 -23 44t-60 17q-71 0 -110 -51v56q47 44 119 44q59 0 94 -27t35 -72q0 -69 -73 -145l-97 -101h181v-46h-265z" />
    <glyph glyph-name="uni2155" unicode="&#x2155;" horiz-adv-x="755" 
d="M136 0h-71l488 700h72zM447 35v57q41 -49 114 -49q44 0 72 22t28 59q0 34 -31 54t-82 20q-48 0 -82 -15l15 202h199v-46h-154l-8 -98q19 4 48 4q68 0 109.5 -33.5t41.5 -88.5q0 -60 -40.5 -94.5t-108.5 -34.5q-72 0 -121 41zM41 599v54l106 47h29v-385h-53v321z" />
    <glyph glyph-name="uni2156" unicode="&#x2156;" horiz-adv-x="829" 
d="M138 0l489 700h71l-489 -700h-71zM521 35v57q40 -49 113 -49q45 0 72.5 22t27.5 59q0 34 -30.5 54t-82.5 20q-47 0 -82 -15l15 202h199v-46h-154l-8 -98q19 4 48 4q68 0 109.5 -33.5t41.5 -88.5q0 -60 -40.5 -94.5t-108.5 -34.5q-73 0 -120 41zM37 341l143 153
q56 58 56 102q0 27 -23 44t-60 17q-71 0 -110 -51v56q47 44 119 44q59 0 94 -27t35 -72q0 -69 -73 -145l-97 -101h181v-46h-265v26z" />
    <glyph glyph-name="uni2157" unicode="&#x2157;" horiz-adv-x="823" 
d="M132 0l489 700h71l-489 -700h-71zM515 35v57q40 -49 113 -49q45 0 72.5 22t27.5 59q0 34 -31 54t-82 20q-47 0 -82 -15l15 202h199v-46h-154l-8 -98q19 4 48 4q68 0 109.5 -33.5t41.5 -88.5q0 -60 -40.5 -94.5t-108.5 -34.5q-73 0 -120 41zM40 409q40 -51 114 -51
q43 0 70 18.5t27 50.5q0 27 -18.5 44.5t-47.5 17.5h-49v45h42q26 0 43.5 16.5t17.5 41.5q0 30 -24 47.5t-62 17.5q-72 0 -110 -51v57q46 43 117 43q61 0 97.5 -29t36.5 -79q0 -56 -41 -84q53 -27 53 -92q0 -53 -40 -83t-105 -30q-73 0 -121 43v57z" />
    <glyph glyph-name="uni2158" unicode="&#x2158;" horiz-adv-x="839" 
d="M23 391v29l223 280h37v-268h50v-41h-50v-76h-54v76h-206zM219 0h-71l489 700h71zM531 92q40 -49 113 -49q45 0 72.5 22t27.5 59q0 34 -30.5 54t-81.5 20q-48 0 -83 -15l15 202h200v-46h-154l-8 -98q19 4 47 4q69 0 110 -33.5t41 -88.5q0 -60 -40.5 -94.5t-108.5 -34.5
q-73 0 -120 41v57zM86 432h143v181z" />
    <glyph glyph-name="uni2159" unicode="&#x2159;" horiz-adv-x="771" 
d="M619 391q47 0 84 -21v-50q-29 23 -74 23q-56 0 -89 -38t-37 -104q31 45 96 45q60 0 97.5 -35.5t37.5 -91.5t-37 -90.5t-96 -34.5q-71 0 -112 51.5t-41 140.5q0 94 46 149.5t125 55.5zM136 0h-71l488 700h72zM123 636l-82 -37v54l106 47h29v-385h-53v321zM505 146
q7 -48 32 -75.5t63 -27.5q35 0 57 21.5t22 55.5q0 35 -25 57.5t-65 22.5q-61 0 -84 -54z" />
    <glyph glyph-name="uni215A" unicode="&#x215a;" horiz-adv-x="838" 
d="M668 -6q-71 0 -112.5 51.5t-41.5 140.5q0 94 46.5 149.5t125.5 55.5q47 0 84 -21v-50q-31 23 -74 23q-56 0 -89 -37.5t-37 -103.5q33 44 96 44q60 0 97.5 -35.5t37.5 -91.5q0 -55 -37 -90t-96 -35zM131 0l489 700h71l-489 -700h-71zM158 309q-72 0 -121 41v57
q40 -49 114 -49q44 0 72 22t28 59q0 34 -31 54t-82 20q-49 0 -82 -15l14 202h200v-46h-154l-8 -98q19 4 47 4q69 0 110.5 -33.5t41.5 -88.5q0 -60 -40.5 -94.5t-108.5 -34.5zM656 200q-60 0 -85 -53q8 -49 32.5 -76.5t62.5 -27.5q35 0 57.5 21.5t22.5 55.5q0 35 -25 57.5
t-65 22.5z" />
    <glyph glyph-name="oneeighth" unicode="&#x215b;" horiz-adv-x="755" 
d="M511 206q-51 27 -51 84q0 45 34 73t89 28t89 -28t34 -73q0 -57 -51 -84q67 -31 67 -99q0 -50 -39 -81.5t-100 -31.5q-62 0 -101 31.5t-39 81.5q0 68 68 99zM65 0l488 700h72l-489 -700h-71zM123 636l-82 -37v54l106 47h29v-385h-53v321zM583 43q37 0 61 19.5t24 50.5
q0 30 -24 49.5t-61 19.5t-61 -19.5t-24 -49.5q0 -31 24 -50.5t61 -19.5zM514 285q0 -25 19 -41t50 -16q30 0 49.5 16t19.5 41t-19.5 41t-49.5 16q-31 0 -50 -16t-19 -41z" />
    <glyph glyph-name="threeeighths" unicode="&#x215c;" horiz-adv-x="822" 
d="M650 -6q-61 0 -100 31.5t-39 81.5q0 68 67 99q-51 27 -51 84q0 45 34 73t89 28t89 -28t34 -73q0 -57 -51 -84q68 -31 68 -99q0 -50 -39.5 -81.5t-100.5 -31.5zM203 0h-71l489 700h71zM161 309q-73 0 -121 43v57q40 -51 114 -51q43 0 70 18.5t27 50.5q0 27 -18.5 44.5
t-47.5 17.5h-49v45h42q26 0 43.5 16.5t17.5 41.5q0 30 -24 47.5t-62 17.5q-72 0 -110 -51v57q46 43 117 43q61 0 97.5 -29t36.5 -79q0 -56 -41 -84q53 -27 53 -92q0 -53 -40 -83t-105 -30zM650 182q-37 0 -61 -19.5t-24 -49.5q0 -31 24 -50.5t61 -19.5q38 0 62 19.5t24 50.5
q0 30 -24.5 49.5t-61.5 19.5zM650 342q-31 0 -50 -16t-19 -41t19 -41t50 -16q30 0 49.5 16t19.5 41t-19.5 41t-49.5 16z" />
    <glyph glyph-name="fiveeighths" unicode="&#x215d;" horiz-adv-x="822" 
d="M649 -6q-61 0 -100 31.5t-39 81.5q0 68 67 99q-51 27 -51 84q0 45 34 73t89 28t89 -28t34 -73q0 -57 -51 -84q68 -31 68 -99q0 -50 -39 -81.5t-101 -31.5zM202 0h-71l489 700h71zM37 407q40 -49 114 -49q44 0 72 22t28 59q0 34 -31 54t-82 20q-49 0 -82 -15l14 202h200
v-46h-154l-8 -98q19 4 47 4q69 0 110.5 -33.5t41.5 -88.5q0 -60 -40.5 -94.5t-108.5 -34.5q-72 0 -121 41v57zM649 182q-37 0 -61 -19.5t-24 -49.5q0 -31 24 -50.5t61 -19.5q38 0 62 19.5t24 50.5q0 30 -24.5 49.5t-61.5 19.5zM649 342q-30 0 -49.5 -16t-19.5 -41t19.5 -41
t49.5 -16t49.5 16t19.5 41t-19.5 41t-49.5 16z" />
    <glyph glyph-name="seveneighths" unicode="&#x215e;" horiz-adv-x="780" 
d="M607 -6q-61 0 -100 31.5t-39 81.5q0 68 67 99q-51 27 -51 84q0 45 34 73t89 28t89 -28t34 -73q0 -57 -51 -84q68 -31 68 -99q0 -50 -39 -81.5t-101 -31.5zM160 0h-71l489 700h71zM243 654h-216v46h281v-26l-169 -359h-56zM607 182q-37 0 -61 -19.5t-24 -49.5
q0 -31 24 -50.5t61 -19.5q38 0 62 19.5t24 50.5q0 30 -24.5 49.5t-61.5 19.5zM607 342q-30 0 -49.5 -16t-19.5 -41t19.5 -41t49.5 -16t49.5 16t19.5 41t-19.5 41t-49.5 16z" />
    <glyph glyph-name="uni215F" unicode="&#x215f;" horiz-adv-x="624" 
d="M136 0h-71l488 700h72zM41 599v54l106 47h29v-385h-53v321z" />
    <glyph glyph-name="uni2189" unicode="&#x2189;" horiz-adv-x="861" 
d="M192 706q68 0 111.5 -55.5t43.5 -142.5q0 -88 -43.5 -143.5t-111.5 -55.5t-111.5 55.5t-43.5 143.5q0 87 43.5 142.5t111.5 55.5zM192 358q44 0 72 42t28 108q0 65 -28 107t-72 42t-71.5 -41.5t-27.5 -107.5t27.5 -108t71.5 -42zM241 0h-71l489 700h71zM669 43
q43 0 70 18.5t27 50.5q0 27 -18.5 44.5t-46.5 17.5h-50v45h42q26 0 43.5 16.5t17.5 41.5q0 30 -23.5 47.5t-62.5 17.5q-70 0 -110 -51v57q48 43 117 43q61 0 97.5 -29t36.5 -79q0 -57 -41 -84q53 -27 53 -92q0 -53 -39.5 -83t-105.5 -30q-74 0 -120 43v57q40 -51 113 -51z
" />
    <glyph glyph-name="arrowleft" unicode="&#x2190;" horiz-adv-x="800" 
d="M748 307h-542l254 -254l-61 -61l-359 359l359 358l61 -61l-254 -254h542v-87z" />
    <glyph glyph-name="arrowup" unicode="&#x2191;" horiz-adv-x="800" 
d="M450 0h-87v542l-253 -253l-62 61l359 358l359 -358l-61 -62l-255 254v-542z" />
    <glyph glyph-name="arrowright" unicode="&#x2192;" horiz-adv-x="800" 
d="M53 307v87h543l-254 254l61 61l359 -358l-359 -359l-62 61l255 254h-543z" />
    <glyph glyph-name="arrowdown" unicode="&#x2193;" horiz-adv-x="800" 
d="M450 700v-542l255 255l61 -62l-359 -359l-359 359l62 61l253 -254v542h87z" />
    <glyph glyph-name="uni2196" unicode="&#x2196;" horiz-adv-x="800" 
d="M683 130l-62 -62l-383 383v-358h-87v507h508v-87h-360z" />
    <glyph glyph-name="uni2197" unicode="&#x2197;" horiz-adv-x="800" 
d="M118 130l383 383h-360v87h508v-507h-87v358l-383 -383z" />
    <glyph glyph-name="uni2198" unicode="&#x2198;" horiz-adv-x="800" 
d="M118 570l61 62l383 -383v358h87v-507h-508v87h360z" />
    <glyph glyph-name="uni2199" unicode="&#x2199;" horiz-adv-x="800" 
d="M683 570l-384 -383h360v-87h-508v507h87v-358l383 383z" />
    <glyph glyph-name="minus" unicode="&#x2212;" horiz-adv-x="620" 
d="M90 321v58h440v-58h-440z" />
    <glyph glyph-name="approxequal" unicode="&#x2248;" horiz-adv-x="620" 
d="M204 536q40 0 78.5 -23t72 -46t61.5 -23q32 0 53.5 23.5t21.5 58.5h59q0 -61 -38 -100.5t-95 -39.5q-40 0 -78.5 23t-72.5 45.5t-62 22.5q-32 0 -53.5 -23t-21.5 -59h-59q0 62 38 101.5t96 39.5zM129 175h-59q0 62 38 101.5t96 39.5q40 0 78.5 -23t72 -46t61.5 -23
q32 0 53.5 23.5t21.5 58.5h59q0 -61 -38 -100.5t-95 -39.5q-32 0 -63 14t-52.5 31.5t-48 31.5t-49.5 14q-32 0 -53.5 -23t-21.5 -59z" />
    <glyph glyph-name="notequal" unicode="&#x2260;" horiz-adv-x="620" 
d="M292 259h238v-58h-272l-55 -95l-50 30l37 65h-100v58h134l105 182h-239v58h272l55 95l51 -30l-38 -65h100v-58h-133z" />
    <glyph glyph-name="lessequal" unicode="&#x2264;" horiz-adv-x="620" 
d="M90 393v44l440 187v-63l-342 -146l342 -146v-63zM530 71h-440v59h440v-59z" />
    <glyph glyph-name="greaterequal" unicode="&#x2265;" horiz-adv-x="620" 
d="M90 206v63l342 146l-342 146v63l440 -187v-44zM90 130h440v-59h-440v59z" />
    <glyph glyph-name="filledbox" unicode="&#x25a0;" horiz-adv-x="852" 
d="M76 0v700h700v-700h-700z" />
    <glyph glyph-name="H22073" unicode="&#x25a1;" horiz-adv-x="852" 
d="M76 0v700h700v-700h-700zM134 58h584v584h-584v-584z" />
    <glyph glyph-name="circle" unicode="&#x25cb;" horiz-adv-x="826" 
d="M413 -10q-149 0 -254.5 105.5t-105.5 254.5t105.5 254.5t254.5 105.5t254.5 -105.5t105.5 -254.5t-105.5 -254.5t-254.5 -105.5zM112 350q0 -125 88 -213t213 -88t213.5 88t88.5 213t-88.5 213t-213.5 88t-213 -88t-88 -213z" />
    <glyph glyph-name="H18533" unicode="&#x25cf;" horiz-adv-x="826" 
d="M53 350q0 149 105.5 254.5t254.5 105.5t254.5 -105.5t105.5 -254.5t-105.5 -254.5t-254.5 -105.5t-254.5 105.5t-105.5 254.5z" />
    </font>
</defs>
</svg>
